<?xml version="1.0" standalone="no"?><!DOCTYPE svg PUBLIC "-//W3C//DTD SVG 1.1//EN" "http://www.w3.org/Graphics/SVG/1.1/DTD/svg11.dtd" ><svg xmlns="http://www.w3.org/2000/svg"><metadata></metadata><defs><font id="Founder:FZLanTingHei-R-GBK	Regular" horiz-adv-x="265"><font-face font-family="FZLanTingHei-R-GBK" font-weight="400" font-stretch="normal" units-per-em="256" panose-1="2 0 0 0 0 0 0 0 0 0" ascent="229" descent="-64" x-height="0" bbox="-14 -64 262 212" underline-thickness="12" underline-position="-52" unicode-range="U+0021-ff1b" /><missing-glyph horiz-adv-x="256" d="M53 191 l-28 0 l5 -147 l17 0 l6 147 ZM51 -9 l0 26 l-25 0 l0 -26 l25 0 Z" /><glyph glyph-name="" unicode="!" d="M53 191 l-28 0 l5 -147 l17 0 l6 147 ZM51 -9 l0 26 l-25 0 l0 -26 l25 0 Z" /><glyph glyph-name="" unicode="&quot;" d="M40 192 l-27 0 l5 -71 l17 0 l5 71 ZM86 192 l-28 0 l6 -71 l17 0 l5 71 Z" /><glyph glyph-name="" unicode="#" d="M90 66 l9 44 l-35 0 l-9 -44 l35 0 ZM149 110 l-31 0 l-9 -44 l31 0 l-3 -17 l-32 0 l-12 -58 l-18 0 l12 58 l-35 0 l-12 -58 l-18 0 l12 58 l-32 0 l4 17 l31 0 l9 44 l-31 0 l4 17 l30 0 l12 58 l18 0 l-11 -58 l35 0 l11 58 l18 0 l-11 -58 l32 0 l-4 -17 Z" /><glyph glyph-name="" unicode="%" d="M59 -15 l20 0 l111 210 l-20 0 l-111 -210 ZM59 106 q24 2 25 37 q-1 35 -25 36 q-24 -1 -25 -37 q1 -34 25 -36 ZM59 196 q41 -1 42 -54 q-1 -50 -43 -52 q-40 3 -42 52 q2 52 43 54 ZM189 0 q25 1 26 37 q-1 35 -25 36 q-24 0 -25 -37 q1 -33 24 -36 ZM190 89 q41 -2 42 -53 q-1 -50 -44 -51 q-39 3 -41 51 q1 51 43 53 Z" /><glyph glyph-name="" unicode="&#39;" d="M40 193 l-28 0 l6 -72 l17 0 l5 72 Z" /><glyph glyph-name="" unicode="(" d="M66 -53 l18 0 q-46 60 -45 130 q0 70 45 132 l-18 0 q-47 -62 -48 -133 q2 -72 48 -129 Z" /><glyph glyph-name="" unicode=")" d="M10 -52 l18 0 q46 57 48 129 q-1 71 -48 133 l-18 0 q45 -63 45 -133 q1 -69 -45 -129 Z" /><glyph glyph-name="" unicode="*" d="M104 150 l-6 22 l-36 -17 l6 41 l-24 0 l5 -40 l-36 17 l-6 -23 l39 -5 l-29 -29 l19 -15 l20 37 l20 -37 l19 14 l-30 30 l39 5 Z" /><glyph glyph-name="" unicode="+" d="M153 100 l0 -19 l-59 0 l0 -59 l-20 0 l0 59 l-59 0 l0 19 l59 0 l0 59 l20 0 l0 -59 l59 0 Z" /><glyph glyph-name="" unicode="," d="M28 -56 l-9 8 q18 13 19 40 l-16 0 l0 29 l31 0 q0 -8 0 -25 q0 -34 -25 -52 Z" /><glyph glyph-name="" unicode="-" d="M154 80 l0 20 l-139 0 l0 -20 l139 0 Z" /><glyph glyph-name="" unicode="." d="M57 -8 l0 29 l-31 0 l0 -29 l31 0 Z" /><glyph glyph-name="" unicode="/" d="M0 -12 l19 0 l58 206 l-19 0 l-58 -206 Z" /><glyph glyph-name="" unicode="0" d="M77 176 q-41 -3 -42 -86 q0 -86 43 -85 q43 -1 43 85 q0 87 -44 86 ZM79 -12 q-67 1 -67 102 q1 101 66 104 q65 -2 66 -104 q-1 -100 -65 -102 Z" /><glyph glyph-name="" unicode="1" d="M84 -9 l21 0 l0 203 l-15 0 q-13 -32 -59 -53 l0 -21 q31 12 53 32 l0 -161 Z" /><glyph glyph-name="" unicode="2" d="M140 -7 l0 17 l-105 0 q13 26 54 56 q53 36 50 75 q-4 51 -60 53 q-49 1 -66 -48 l20 -10 q11 37 42 39 q40 -1 41 -37 q1 -27 -44 -60 q-44 -32 -63 -72 l0 -13 l131 0 Z" /><glyph glyph-name="" unicode="3" d="M101 97 q33 12 34 45 q-2 50 -59 52 q-50 -1 -62 -50 l22 -7 q7 37 41 38 q32 -1 34 -33 q-2 -37 -45 -38 q-6 0 -10 0 l0 -18 q4 0 18 0 q43 -2 46 -38 q0 -42 -45 -42 q-37 0 -43 41 l-23 -6 q12 -53 68 -53 q63 3 66 58 q-2 39 -42 51 Z" /><glyph glyph-name="" unicode="4" d="M28 58 l68 0 l0 103 q0 -1 -2 -4 q-1 -3 -2 -5 q-16 -21 -64 -94 ZM144 40 l-28 0 l0 -49 l-20 0 l0 49 l-92 0 l0 12 l96 142 l16 0 l0 -136 l28 0 l0 -18 Z" /><glyph glyph-name="" unicode="5" d="M42 109 l6 61 l86 0 l0 20 l-103 0 l-12 -105 l15 -3 q13 21 44 22 q42 -2 44 -48 q-2 -49 -45 -51 q-38 1 -44 43 l-22 -6 q11 -54 68 -54 q63 2 65 70 q-4 63 -62 66 q-22 0 -40 -15 Z" /><glyph glyph-name="" unicode="6" d="M33 67 q1 -61 48 -63 q38 2 40 50 q-1 48 -40 49 q-39 -2 -48 -36 ZM140 149 l-20 -7 q-8 35 -38 34 q-50 -1 -50 -83 q16 27 52 28 q56 -3 60 -65 q-4 -63 -63 -68 q-71 0 -71 97 q1 109 73 109 q44 -2 57 -45 Z" /><glyph glyph-name="" unicode="7" d="M143 176 l0 14 l-130 0 l0 -20 l103 0 q-60 -88 -75 -179 l24 0 q13 95 78 185 Z" /><glyph glyph-name="" unicode="8" d="M78 87 q-40 -2 -44 -44 q4 -36 45 -39 q41 3 45 37 q-3 44 -46 46 ZM79 176 q-33 -2 -36 -34 q1 -37 36 -39 q33 1 35 37 q-3 33 -35 36 ZM51 95 q-30 14 -32 45 q4 51 60 54 q54 -4 59 -54 q-2 -32 -30 -45 q37 -14 39 -54 q-3 -51 -68 -53 q-66 2 -68 55 q3 39 40 52 Z" /><glyph glyph-name="" unicode="9" d="M122 113 q0 63 -48 62 q-38 -3 -41 -49 q2 -46 41 -49 q39 0 48 36 ZM16 31 l21 7 q7 -35 37 -34 q47 2 48 83 q-15 -29 -50 -29 q-56 5 -61 66 q4 65 65 70 q70 1 69 -99 q0 -106 -73 -107 q-44 2 -56 43 Z" /><glyph glyph-name="" unicode=":" d="M56 105 l0 31 l-31 0 l0 -31 l31 0 ZM56 -6 l0 29 l-31 0 l0 -29 l31 0 Z" /><glyph glyph-name="" unicode=";" d="M56 105 l0 31 l-31 0 l0 -31 l31 0 ZM32 -55 l-9 8 q17 14 18 40 l-16 0 l0 29 l31 0 q0 -8 0 -25 q0 -35 -24 -52 Z" /><glyph glyph-name="" unicode="&lt;" d="M34 90 l118 66 l0 24 l-136 -80 l0 -20 l136 -80 l0 24 l-118 66 Z" /><glyph glyph-name="" unicode="=" d="M148 50 l0 19 l-133 0 l0 -19 l133 0 ZM148 111 l0 19 l-133 0 l0 -19 l133 0 Z" /><glyph glyph-name="" unicode="&gt;" d="M15 156 l118 -66 l-118 -66 l0 -24 l137 80 l0 20 l-137 80 l0 -24 Z" /><glyph glyph-name="" unicode="?" d="M87 -8 l0 25 l-26 0 l0 -25 l26 0 ZM85 42 l-21 0 q0 5 0 10 q-1 28 26 47 q31 21 28 45 q-4 29 -36 32 q-41 2 -49 -41 l-21 7 q13 55 72 53 q53 -3 57 -52 q2 -31 -36 -57 q-21 -14 -20 -35 q0 -6 0 -9 Z" /><glyph glyph-name="" unicode="a" d="M56 71 l75 0 l-33 85 q-1 5 -4 14 q-3 -9 -5 -14 l-33 -85 ZM164 -9 l-25 61 l-91 0 l-24 -61 l-24 0 l81 200 l24 0 l83 -200 l-24 0 Z" /><glyph glyph-name="" unicode="b" d="M97 84 l-55 0 l0 -75 l59 0 q47 0 47 39 q-3 34 -51 36 ZM94 171 l-52 0 l0 -67 l52 0 q41 2 45 36 q-2 30 -45 31 ZM104 -9 l-83 0 l0 200 l78 0 q60 -3 64 -50 q-3 -37 -40 -44 l0 -1 q45 -7 48 -51 q-3 -52 -67 -54 Z" /><glyph glyph-name="" unicode="c" d="M166 60 l26 -6 q-19 -65 -87 -66 q-86 5 -91 99 q4 102 93 107 q57 -2 81 -58 l-25 -6 q-18 43 -58 44 q-61 -6 -67 -85 q4 -77 66 -83 q49 2 62 54 Z" /><glyph glyph-name="" unicode="d" d="M91 171 l-47 0 l0 -163 l46 0 q76 1 75 82 q-3 78 -74 81 ZM90 -9 l-68 0 l0 200 l70 0 q93 -3 96 -100 q2 -102 -98 -100 Z" /><glyph glyph-name="" unicode="e" d="M45 9 l127 0 l0 -18 l-150 0 l0 200 l144 0 l0 -19 l-121 0 l0 -68 l114 0 l0 -20 l-114 0 l0 -75 Z" /><glyph glyph-name="" unicode="f" d="M158 171 l-113 0 l0 -67 l98 0 l1 -20 l-99 0 l0 -93 l-22 0 l0 200 l135 0 l0 -20 Z" /><glyph glyph-name="" unicode="h" d="M157 191 l22 0 l0 -200 l-22 0 l0 93 l-112 0 l0 -93 l-23 0 l0 200 l23 0 l0 -87 l112 0 l0 87 Z" /><glyph glyph-name="" unicode="i" d="M26 -9 l22 0 l0 200 l-22 0 l0 -200 Z" /><glyph glyph-name="" unicode="j" d="M119 51 l0 140 l-23 0 l0 -141 q0 -44 -33 -43 q-33 -2 -33 42 l-22 -4 q3 -58 54 -57 q59 -2 57 63 Z" /><glyph glyph-name="" unicode="l" d="M146 -9 l0 18 l-103 0 l0 182 l-23 0 l0 -200 l126 0 Z" /><glyph glyph-name="" unicode="m" d="M191 -9 l23 0 l0 200 l-30 0 l-58 -146 q-5 -13 -8 -27 l-1 0 q-4 16 -8 28 l-58 145 l-30 0 l0 -200 l21 0 l0 140 q0 16 -2 42 l1 1 q2 -9 6 -25 l63 -158 l13 0 l64 157 q4 10 7 26 l1 -1 q0 -3 -1 -11 q-3 -25 -3 -30 l0 -141 Z" /><glyph glyph-name="" unicode="n" d="M179 -9 l0 200 l-22 0 l0 -146 q0 -16 2 -31 l-1 0 q-2 6 -8 16 l-103 161 l-26 0 l0 -200 l22 0 l0 147 q0 21 -3 33 l1 0 q4 -12 9 -20 l104 -160 l25 0 Z" /><glyph glyph-name="" unicode="o" d="M110 174 q-66 -6 -73 -85 q4 -77 71 -83 q70 4 74 83 q-6 79 -72 85 ZM109 -12 q-91 5 -95 99 q4 102 98 107 q89 -6 95 -105 q-4 -97 -98 -101 Z" /><glyph glyph-name="" unicode="p" d="M102 171 l-58 0 l0 -79 l58 0 q48 1 49 41 q-2 37 -49 38 ZM106 72 l-62 0 l0 -81 l-22 0 l0 200 l86 0 q61 -3 67 -59 q-1 -59 -69 -60 Z" /><glyph glyph-name="" unicode="r" d="M45 171 l0 -70 l65 0 q49 1 49 37 q-1 32 -49 33 l-65 0 ZM198 -9 l-31 0 l-69 90 l-53 0 l0 -90 l-23 0 l0 200 l93 0 q64 -3 68 -54 q0 -52 -60 -56 l75 -90 Z" /><glyph glyph-name="" unicode="s" d="M143 133 l24 7 q-12 55 -77 55 q-66 -3 -70 -54 q-4 -42 72 -57 q61 -12 56 -40 q-2 -37 -51 -38 q-55 -2 -62 50 l-23 -8 q12 -62 86 -60 q69 3 74 55 q4 47 -78 62 q-52 11 -51 36 q2 33 49 34 q40 0 51 -42 Z" /><glyph glyph-name="" unicode="t" d="M166 191 l0 -19 l-68 0 l0 -181 l-23 0 l0 181 l-68 0 l0 19 l159 0 Z" /><glyph glyph-name="" unicode="u" d="M158 191 l0 -116 q2 -71 -58 -69 q-56 -2 -55 69 l0 116 l-23 0 l0 -117 q-1 -87 78 -86 q81 -1 80 86 l0 117 l-22 0 Z" /><glyph glyph-name="" unicode="w" d="M133 173 l12 18 l-23 0 l-47 -160 q-4 -14 -4 -24 l-1 0 q0 14 -3 24 l-40 160 l-23 0 l55 -200 l22 0 l49 160 q3 15 3 22 ZM124 191 l9 -18 l1 0 q0 -10 2 -22 l47 -160 l22 0 l57 200 l-24 0 l-41 -160 q0 -2 -1 -6 q-2 -13 -2 -18 l-1 0 q0 10 -4 24 l-44 160 l-21 0 Z" /><glyph glyph-name="" unicode="[" d="M73 -48 l0 16 l-35 0 l0 225 l35 0 l0 15 l-54 0 l0 -256 l54 0 Z" /><glyph glyph-name="" unicode="]" d="M3 -32 l0 -16 l55 0 l0 256 l-54 0 l0 -15 l35 0 l0 -225 l-36 0 Z" /><glyph glyph-name="" unicode="_" d="M166 -36 l0 -16 l-166 0 l0 16 l166 0 Z" /><glyph glyph-name="" unicode="a" d="M115 48 l0 19 q-4 -8 -43 -11 q-40 -5 -39 -28 q1 -22 33 -22 q45 3 49 42 ZM36 92 l-21 6 q11 45 65 43 q59 1 57 -56 l0 -59 q-1 -24 8 -34 l-21 0 q-7 8 -7 20 q-18 -24 -57 -24 q-46 2 -49 38 q1 42 53 47 q42 4 51 11 q3 40 -36 38 q-38 2 -43 -30 Z" /><glyph glyph-name="" unicode="b" d="M40 78 l0 -23 q1 -50 41 -51 q41 1 42 58 q-1 59 -45 60 q-35 -3 -38 -44 ZM40 -8 l-22 0 l0 199 l22 0 l0 -76 q16 24 42 25 q59 -3 62 -78 q-1 -71 -56 -73 q-37 -1 -48 24 l0 -21 Z" /><glyph glyph-name="" unicode="c" d="M114 90 l21 7 q-12 42 -60 43 q-62 -3 -64 -77 q1 -73 65 -75 q53 -2 61 50 l-22 5 q-3 -38 -38 -38 q-43 0 -43 58 q0 59 43 59 q28 -2 37 -32 Z" /><glyph glyph-name="" unicode="d" d="M114 55 l0 23 q-3 41 -38 44 q-44 -1 -45 -60 q1 -56 42 -58 q40 1 41 51 ZM136 -8 l-22 0 l0 21 q-11 -25 -47 -24 q-55 3 -57 73 q3 75 62 78 q26 -1 42 -25 l0 76 l22 0 l0 -199 Z" /><glyph glyph-name="" unicode="e" d="M35 75 l87 0 q-2 44 -43 46 q-41 -4 -44 -46 ZM122 37 l22 -6 q-12 -44 -64 -43 q-67 3 -69 74 q3 75 68 78 q64 -2 66 -78 q0 -4 0 -5 l-111 0 q2 -49 45 -52 q34 0 43 32 Z" /><glyph glyph-name="" unicode="f" d="M45 156 l-1 -19 l30 0 l0 -18 l-30 0 l0 -127 l-21 0 l0 127 l-23 0 l0 18 l23 0 l0 18 q-1 40 34 39 q15 0 29 -5 l-4 -16 q-9 3 -19 3 q-19 1 -18 -20 Z" /><glyph glyph-name="" unicode="g" d="M116 59 l0 22 q-2 38 -40 42 q-44 -2 -46 -57 q2 -52 43 -55 q42 1 43 48 ZM138 137 l0 -127 q4 -72 -69 -69 q-36 0 -54 21 l9 11 q20 -14 44 -15 q49 -1 48 46 l0 15 q-10 -24 -49 -23 q-56 3 -58 70 q3 71 63 74 q29 -1 44 -24 l0 21 l22 0 Z" /><glyph glyph-name="" unicode="h" d="M137 85 l0 -93 l-22 0 l0 90 q0 41 -33 41 q-39 -5 -42 -42 l0 -90 l-22 0 l0 200 l22 0 l0 -76 q17 25 47 26 q51 1 50 -56 Z" /><glyph glyph-name="" unicode="i" d="M19 -9 l21 0 l0 146 l-21 0 l0 -146 ZM19 164 l21 0 l0 27 l-21 0 l0 -27 Z" /><glyph glyph-name="" unicode="j" d="M19 164 l21 0 l0 27 l-21 0 l0 -27 ZM40 137 l0 -162 q1 -35 -31 -34 q-8 0 -21 3 q1 0 -2 1 l3 13 q6 -1 15 -1 q15 0 15 18 l0 162 l21 0 Z" /><glyph glyph-name="" unicode="k" d="M113 -8 l-50 76 l-23 -23 l0 -54 l-22 1 l0 199 l22 0 l0 -120 l64 66 l30 0 l-57 -56 l63 -89 l-27 0 Z" /><glyph glyph-name="" unicode="l" d="M18 -8 l21 0 l0 199 l-21 0 l0 -199 Z" /><glyph glyph-name="" unicode="m" d="M215 87 l0 -95 l-21 0 l0 90 q1 42 -30 41 q-34 -3 -37 -42 l0 -89 l-21 0 l0 90 q1 42 -29 41 q-34 -3 -38 -40 l0 -91 l-21 0 l0 145 l21 0 l0 -22 q16 26 40 26 q37 0 45 -31 q16 31 43 31 q49 1 48 -54 Z" /><glyph glyph-name="" unicode="n" d="M137 85 l0 -93 l-21 0 l0 90 q-1 40 -34 41 q-39 -5 -43 -42 l0 -89 l-21 -1 l0 146 l21 0 l0 -22 q17 25 48 26 q50 0 50 -56 Z" /><glyph glyph-name="" unicode="o" d="M78 123 q-46 -1 -47 -61 q1 -56 47 -58 q43 2 44 59 q-3 56 -44 60 ZM77 -12 q-65 4 -68 73 q2 77 70 79 q63 -3 66 -76 q-1 -75 -68 -76 Z" /><glyph glyph-name="" unicode="p" d="M39 78 l0 -23 q1 -50 42 -51 q41 1 42 58 q-1 58 -45 60 q-36 -4 -39 -44 ZM39 -59 l-21 0 l0 196 l21 0 l0 -22 q17 25 43 25 q59 -3 62 -78 q-1 -71 -57 -73 q-35 -1 -48 24 l0 -72 Z" /><glyph glyph-name="" unicode="q" d="M114 55 l0 23 q-3 41 -39 44 q-44 -2 -45 -60 q2 -55 42 -58 q41 1 42 51 ZM135 -59 l-21 0 l0 72 q-11 -25 -48 -24 q-55 4 -57 73 q3 75 62 78 q26 0 43 -25 l0 22 l21 0 l0 -196 Z" /><glyph glyph-name="" unicode="r" d="M89 113 l9 20 q-12 8 -24 7 q-24 -1 -34 -29 l-1 0 l0 26 l-21 0 l0 -146 l21 0 l0 79 q0 24 9 35 q11 14 23 14 q9 0 18 -6 Z" /><glyph glyph-name="" unicode="s" d="M102 96 l22 6 q-9 38 -56 39 q-49 -2 -53 -41 q-2 -37 56 -44 q38 -7 37 -27 q-1 -24 -37 -25 q-33 -1 -41 33 l-21 -6 q12 -44 62 -43 q58 1 59 42 q1 35 -53 44 q-41 7 -40 26 q3 21 32 22 q27 0 33 -26 Z" /><glyph glyph-name="" unicode="t" d="M71 4 l4 -11 q-10 -4 -22 -4 q-31 -1 -30 32 l0 98 l-20 0 l0 18 l20 0 l0 39 l21 11 l0 -50 l27 0 l0 -18 l-27 0 l0 -98 q-1 -19 16 -18 q6 0 11 1 Z" /><glyph glyph-name="" unicode="u" d="M115 137 l21 0 l0 -145 l-21 0 l0 20 q-16 -23 -48 -24 q-51 -1 -50 54 l0 95 l21 0 l0 -93 q1 -39 34 -40 q39 4 43 41 l0 92 Z" /><glyph glyph-name="" unicode="v" d="M137 137 l-23 0 l-40 -111 q-4 -12 -4 -18 l-1 0 q-1 4 -2 11 q-2 5 -2 7 l-38 111 l-24 0 l55 -145 l22 0 l57 145 Z" /><glyph glyph-name="" unicode="w" d="M201 137 l-23 0 l-33 -116 q-2 -8 -2 -12 l-1 0 q0 2 -1 6 q0 4 -1 6 l-28 116 l-22 0 l-29 -116 q0 -1 -1 -3 q-1 -4 -1 -9 l-1 0 q0 1 -1 4 q-1 5 -2 8 l-32 116 l-22 0 l45 -145 l24 0 l28 110 q1 2 2 8 q1 6 1 8 q2 -12 2 -16 l27 -110 l23 0 l48 145 Z" /><glyph glyph-name="" unicode="x" d="M135 137 l-26 0 q-29 -46 -32 -50 q-3 -6 -6 -10 q-1 4 -6 10 l-32 50 l-25 0 l52 -72 l-58 -73 l26 0 l37 50 q1 1 4 6 q1 3 2 4 q1 -2 5 -8 q1 -1 1 -2 l35 -50 l26 0 l-55 72 l52 73 Z" /><glyph glyph-name="" unicode="y" d="M138 137 l-23 0 l-41 -112 q-3 -5 -3 -10 l-1 0 q0 1 -2 8 q-1 3 -1 4 q-2 4 -39 110 l-24 0 l56 -140 q-5 -13 -8 -20 q-9 -20 -25 -19 q-8 0 -14 2 l-3 -13 q9 -5 21 -6 q30 -5 45 41 q9 21 62 155 Z" /><glyph glyph-name="" unicode="{" d="M87 -52 l0 15 q-34 -1 -32 27 l0 54 q0 25 -23 33 l0 1 q22 7 23 33 l0 58 q-2 26 32 25 l0 16 q-53 2 -50 -40 l0 -58 q0 -26 -30 -27 l0 -15 q30 -1 30 -27 l0 -56 q-3 -41 50 -39 Z" /><glyph glyph-name="" unicode="|" d="M26 -46 l19 0 l0 257 l-19 0 l0 -257 Z" /><glyph glyph-name="" unicode="}" d="M7 -37 l0 -15 q53 -2 50 39 l0 56 q0 25 29 27 l0 15 q-29 1 -29 27 l0 58 q3 42 -50 40 l0 -16 q33 1 32 -25 l0 -58 q1 -25 22 -33 l0 -1 q-21 -8 -22 -33 l0 -54 q2 -28 -32 -27 Z" /><glyph glyph-name="" unicode="~" d="M11 95 l0 -22 q18 15 37 15 q17 0 33 -9 q15 -8 36 -8 q21 0 35 12 l0 22 q-14 -13 -34 -14 q-13 0 -31 8 q-21 10 -38 9 q-19 0 -38 -13 Z" /><glyph glyph-name="" unicode="&#x3002;" d="M51 14 q2 -17 21 -19 q20 2 22 19 q-2 20 -22 22 q-19 -2 -21 -22 ZM36 14 q3 34 36 37 q34 -3 37 -37 q-3 -32 -37 -35 q-32 3 -36 35 Z" /><glyph glyph-name="" unicode="&#x4e00;" d="M8 107 l240 0 l0 -21 l-240 0 l0 21 Z" /><glyph glyph-name="" unicode="&#x4e0b;" d="M135 125 q55 -29 97 -52 l-13 -19 q-54 33 -92 53 l0 -133 l-20 0 l0 196 l-97 0 l0 19 l236 0 l0 -19 l-119 0 l0 -58 l8 13 Z" /><glyph glyph-name="" unicode="&#x4e0e;" d="M47 94 l12 114 l20 0 l-4 -38 l172 0 l0 -18 l-174 0 l-3 -39 l160 0 q-1 -14 -4 -56 q-2 -28 -3 -39 q-2 -44 -55 -41 q-22 -1 -52 -1 q-2 17 -4 21 q15 -1 55 -1 q33 -1 35 23 q2 8 5 60 q1 12 1 15 l-161 0 ZM8 57 l179 0 l0 -19 l-179 0 l0 19 Z" /><glyph glyph-name="" unicode="&#x4e13;" d="M57 58 l0 18 l11 30 l-58 0 l0 18 l66 0 l13 33 l-64 0 l0 19 l71 0 l13 32 l21 0 l-13 -32 l115 0 l0 -19 l-123 0 l-13 -33 l152 0 l0 -18 l-159 0 l-12 -30 l142 0 l0 -19 l-64 -55 q17 -6 33 -15 l-12 -18 q-55 29 -118 57 l10 16 q32 -14 69 -32 l55 48 l-135 0 Z" /><glyph glyph-name="" unicode="&#x4e16;" d="M10 145 l32 0 l0 49 l20 0 l0 -49 l46 0 l0 60 l19 0 l0 -60 l64 0 l0 60 l19 0 l0 -60 l35 0 l0 -18 l-35 0 l0 -87 l-102 0 l0 87 l-46 0 l0 -127 l177 0 l0 -18 l-197 0 l0 145 l-32 0 l0 18 ZM127 127 l0 -69 l64 0 l0 69 l-64 0 Z" /><glyph glyph-name="" unicode="&#x4e1a;" d="M149 204 l20 0 l0 -200 l79 0 l0 -17 l-239 0 l0 17 l78 0 l0 200 l20 0 l0 -200 l42 0 l0 200 ZM37 156 q21 -50 38 -99 l-19 -8 q-17 51 -37 101 l18 6 ZM178 57 q19 37 41 99 l19 -8 q-27 -70 -43 -99 l-17 8 Z" /><glyph glyph-name="" unicode="&#x4e2d;" d="M24 156 l94 0 l0 53 l20 0 l0 -53 l94 0 l0 -110 l-19 0 l0 13 l-75 0 l0 -89 l-20 0 l0 89 l-75 0 l0 -13 l-19 0 l0 110 ZM213 138 l-75 0 l0 -61 l75 0 l0 61 ZM43 138 l0 -61 l75 0 l0 61 l-75 0 Z" /><glyph glyph-name="" unicode="&#x4e86;" d="M122 118 l80 52 l-185 0 l0 20 l215 0 l0 -24 l-89 -58 l0 -89 q3 -43 -42 -42 q-24 0 -39 0 q0 3 -2 11 q-1 8 -2 12 q17 -1 41 -1 q24 -2 23 21 l0 98 Z" /><glyph glyph-name="" unicode="&#x4e8c;" d="M11 18 l233 0 l0 -18 l-233 0 l0 18 ZM29 177 l198 0 l0 -21 l-198 0 l0 21 Z" /><glyph glyph-name="" unicode="&#x4e9b;" d="M32 182 l18 0 l0 -93 q5 1 15 3 q9 1 14 2 l0 112 l18 0 l0 -46 l41 0 l0 -16 l-41 0 l0 -47 q20 2 43 7 q0 -8 0 -18 q-27 -4 -113 -19 q-9 -2 -14 -3 l-4 19 q2 0 5 1 q4 0 18 3 l0 95 ZM150 207 l17 0 l0 -61 q36 20 59 39 l12 -14 q-34 -25 -71 -43 l0 -25 q-1 -17 18 -16 l21 0 q18 -1 19 13 q3 12 4 31 q2 -1 6 -2 q9 -3 12 -4 q-2 -17 -5 -31 q-3 -24 -31 -23 l-30 0 q-33 -2 -31 30 l0 106 ZM15 0 l226 0 l0 -16 l-226 0 l0 16 ZM40 47 l173 0 l0 -16 l-173 0 l0 16 Z" /><glyph glyph-name="" unicode="&#x4ea4;" d="M245 -8 q-1 -2 -4 -7 q-4 -8 -6 -12 q-76 21 -107 44 q-30 -23 -108 -46 q-1 3 -5 9 q-3 6 -5 9 q74 18 103 41 q-19 20 -42 63 l17 10 q18 -40 40 -60 q20 20 39 61 l18 -7 q-19 -43 -42 -67 q34 -25 102 -38 ZM13 172 l112 0 q-2 4 -8 15 q-6 9 -8 14 l17 8 q13 -17 19 -30 l-14 -7 l113 0 l0 -18 l-231 0 l0 18 ZM90 146 l14 -15 q-40 -34 -78 -58 q-1 1 -3 5 q-6 8 -9 11 q42 26 76 57 ZM164 145 q41 -26 78 -52 l-13 -17 q-35 27 -77 55 l12 14 Z" /><glyph glyph-name="" unicode="&#x4eba;" d="M8 -8 q106 59 112 212 l21 0 q-2 -23 -5 -44 q29 -125 111 -163 q-2 -4 -7 -10 q-5 -7 -7 -11 q-78 47 -105 146 q-23 -99 -105 -149 q-2 3 -7 9 q-5 7 -8 10 Z" /><glyph glyph-name="" unicode="&#x4f19;" d="M148 208 l20 0 q0 -10 0 -29 q-1 -19 -1 -30 q0 -9 -1 -17 q0 -3 0 -6 q13 -93 82 -136 q-3 -3 -9 -11 q-3 -4 -5 -6 q-60 43 -75 110 q-12 -61 -79 -112 q-6 8 -14 16 q47 34 63 68 q18 33 18 93 q1 23 1 60 ZM7 88 q39 53 59 121 l20 -6 q-13 -34 -24 -57 l0 -174 l-18 0 l0 137 q-14 -24 -28 -42 q-4 11 -9 21 ZM182 98 q16 20 41 55 q-1 -2 3 4 l16 -11 q-16 -23 -45 -60 l-15 12 ZM75 146 l16 9 q19 -30 34 -59 l-17 -10 q-9 18 -30 55 q1 -3 -3 5 Z" /><glyph glyph-name="" unicode="&#x4f34;" d="M152 207 l19 0 l0 -91 l67 0 l0 -18 l-67 0 l0 -39 l77 0 l0 -18 l-77 0 l0 -69 l-19 0 l0 69 l-76 0 l0 18 l76 0 l0 39 l-66 0 l0 18 l66 0 l0 91 ZM7 88 q39 53 59 121 l20 -6 q-11 -30 -25 -59 l0 -172 l-19 0 l0 135 q-12 -23 -26 -40 q-4 11 -9 21 ZM189 140 q19 24 34 45 l17 -13 q-7 -9 -24 -30 q-8 -10 -12 -15 l-15 13 ZM86 172 l16 11 q16 -21 31 -42 l-17 -12 q-5 8 -15 22 q-10 14 -15 21 Z" /><glyph glyph-name="" unicode="&#x4f5c;" d="M74 109 q35 48 52 99 l19 -4 q-6 -18 -14 -34 l117 0 l0 -18 l-88 0 l0 -42 l78 0 l0 -18 l-78 0 l0 -43 l81 0 l0 -17 l-81 0 l0 -60 l-19 0 l0 180 l-18 0 q-15 -29 -34 -56 q-11 11 -15 13 ZM7 88 q33 46 56 119 l20 -5 q-10 -28 -22 -55 l0 -175 l-19 0 l0 136 q-14 -24 -26 -41 q-4 9 -9 21 Z" /><glyph glyph-name="" unicode="&#x4f60;" d="M7 88 q39 53 59 121 l20 -6 q-13 -34 -24 -57 l0 -174 l-18 0 l0 137 q-14 -24 -28 -42 q-4 11 -9 21 ZM209 113 l16 39 l-102 0 q-12 -22 -25 -43 q-3 3 -10 8 q-3 3 -5 4 q28 39 43 87 l20 -6 q-7 -18 -15 -33 l113 0 l0 -19 l-18 -44 l-17 7 ZM155 133 l19 0 l0 -126 q3 -32 -34 -32 q-22 0 -27 0 q0 1 0 3 q-1 6 -4 17 q19 -1 29 -1 q18 -1 17 15 l0 124 ZM133 91 q-21 -50 -36 -83 l-18 8 q20 39 36 81 l18 -6 ZM212 98 q20 -40 36 -79 l-18 -8 q-7 19 -25 59 q-7 14 -10 21 l17 7 Z" /><glyph glyph-name="" unicode="&#x4fe1;" d="M93 58 l138 0 l0 -87 l-19 0 l0 14 l-100 0 l0 -14 l-19 0 l0 87 ZM7 91 q36 52 54 117 l19 -6 q-1 -3 -3 -8 q-7 -21 -20 -50 l0 -173 l-18 0 l0 137 q-12 -21 -24 -37 q-4 11 -8 20 ZM112 41 l0 -41 l100 0 l0 41 l-100 0 ZM144 201 l16 8 q3 -5 8 -14 q5 -10 7 -15 l-11 -5 l84 0 l0 -17 l-171 0 l0 17 l80 0 q-6 13 -13 26 ZM91 136 l142 0 l0 -17 l-142 0 l0 17 ZM91 97 l142 0 l0 -17 l-142 0 l0 17 Z" /><glyph glyph-name="" unicode="&#x5019;" d="M102 72 q19 27 28 58 l17 -4 q-2 -5 -5 -14 q-2 -3 -2 -4 l96 0 l0 -17 l-53 0 q0 -6 -1 -16 q0 -11 -1 -17 l67 0 l0 -17 l-63 0 q17 -37 64 -50 q-8 -11 -11 -18 q-51 21 -66 56 q-10 -34 -77 -59 q0 0 -1 1 q-8 13 -12 16 q69 20 77 54 l-60 0 l0 17 l63 0 q2 15 2 33 l-31 0 q-7 -15 -16 -29 q-3 3 -10 7 q-4 2 -5 3 ZM6 93 q33 53 47 115 l18 -3 q-9 -31 -18 -56 l0 -178 l-18 0 l0 138 q-9 -18 -21 -37 q-1 3 -7 18 q-1 2 -1 3 ZM114 197 l107 0 l-5 -48 l30 0 l0 -17 l-146 0 l0 17 l97 0 l4 31 l-87 0 l0 17 ZM73 173 l17 0 l0 -151 l-17 0 l0 151 Z" /><glyph glyph-name="" unicode="&#x513f;" d="M145 204 l20 0 l0 -188 q-1 -18 22 -17 l13 0 q21 -1 23 14 q4 21 4 50 q11 -3 22 -6 q-1 -13 -5 -42 q-1 -6 -1 -8 q-4 -28 -41 -27 l-19 0 q-39 -1 -38 35 l0 189 ZM70 202 l20 0 l0 -81 q1 -59 -13 -88 q-13 -30 -55 -60 q-1 1 -2 2 q-2 4 -12 15 q37 25 50 52 q12 26 12 79 l0 81 Z" /><glyph glyph-name="" unicode="&#x5165;" d="M75 194 l16 11 q26 -16 60 -86 q44 -98 98 -119 l-17 -21 q-55 31 -98 131 q-1 3 -4 8 q-2 5 -4 7 q-26 -94 -104 -148 q-6 10 -14 18 q77 48 105 155 q-17 30 -38 44 Z" /><glyph glyph-name="" unicode="&#x519b;" d="M11 28 l117 0 l0 33 l-88 0 l0 17 q16 21 31 47 l-53 0 l0 17 l64 0 q3 5 9 16 q5 10 8 15 l19 -6 q-7 -13 -15 -25 l135 0 l0 -17 l-145 0 q-15 -25 -31 -47 l66 0 l0 36 l19 0 l0 -36 l79 0 l0 -17 l-79 0 l0 -33 l100 0 l0 -18 l-100 0 l0 -39 l-19 0 l0 39 l-117 0 l0 18 ZM20 196 l219 0 l0 -43 l-19 0 l0 26 l-181 0 l0 -26 l-19 0 l0 43 Z" /><glyph glyph-name="" unicode="&#x51a0;" d="M46 61 l0 19 l-30 0 l0 17 l116 0 l0 -17 l-25 0 l0 -68 q0 -16 16 -16 l77 0 q20 -1 22 14 q3 17 4 41 q9 -4 20 -6 q-2 -20 -5 -40 q-5 -27 -39 -26 l-83 0 q-30 -1 -30 33 l0 68 l-26 0 l0 -19 q3 -57 -44 -89 q-1 1 -2 3 q-5 7 -10 12 q41 22 39 74 ZM192 156 l18 0 l0 -28 l31 0 l0 -17 l-31 0 l0 -67 q2 -35 -35 -34 q-15 0 -27 0 q0 10 -3 19 q9 -1 26 -1 q23 -2 21 17 l0 66 l-66 0 l0 17 l66 0 l0 28 ZM18 194 l218 0 l0 -44 l-18 0 l0 27 l-182 0 l0 -30 l-18 0 l0 47 ZM30 144 l88 0 l0 -17 l-88 0 l0 17 ZM137 90 l15 7 q4 -7 15 -24 q7 -12 10 -17 l-17 -8 q-6 13 -23 42 Z" /><glyph glyph-name="" unicode="&#x51c6;" d="M59 110 q34 41 56 98 l18 -6 q-6 -15 -17 -35 l128 0 l0 -17 l-59 0 l0 -37 l52 0 l0 -16 l-52 0 l0 -38 l53 0 l0 -16 l-53 0 l0 -37 l62 0 l0 -15 l-136 0 l0 -20 l-19 0 l0 154 q-11 -18 -20 -30 q-6 9 -13 15 ZM47 96 q9 -5 19 -9 q-16 -42 -35 -98 l-21 10 q16 35 37 97 ZM111 43 l0 -37 l56 0 l0 37 l-56 0 ZM111 97 l0 -38 l56 0 l0 38 l-56 0 ZM111 150 l0 -37 l56 0 l0 37 l-56 0 ZM24 195 q21 -23 41 -50 l-16 -13 q-17 25 -40 52 l15 11 ZM156 200 l15 10 q10 -11 23 -30 l-16 -11 q-2 3 -6 9 q-4 7 -16 22 Z" /><glyph glyph-name="" unicode="&#x51fa;" d="M33 96 l0 87 l19 0 l0 -69 l66 0 l0 91 l19 0 l0 -91 l66 0 l0 69 l19 0 l0 -87 l-85 0 l0 -95 l73 0 l0 69 l19 0 l0 -94 l-19 0 l0 8 l-183 0 l0 86 l19 0 l0 -69 l72 0 l0 95 l-85 0 Z" /><glyph glyph-name="" unicode="&#x51fb;" d="M27 164 l91 0 l0 44 l20 0 l0 -44 l92 0 l0 -18 l-92 0 l0 -44 l109 0 l0 -18 l-109 0 l0 -84 l66 0 l0 63 l19 0 l0 -91 l-19 0 l0 10 l-171 0 l0 81 l19 0 l0 -63 l66 0 l0 84 l-109 0 l0 18 l109 0 l0 44 l-91 0 l0 18 Z" /><glyph glyph-name="" unicode="&#x521d;" d="M101 187 l135 0 q-2 -81 -6 -166 q0 -44 -39 -42 q-15 -1 -35 -1 q-1 12 -4 22 q10 -1 35 -1 q23 -2 23 24 q4 54 6 145 l-55 0 q0 -8 -1 -32 q-1 -25 -2 -33 q-1 -83 -67 -131 q-13 13 -15 15 q62 44 62 120 q2 44 2 61 l-39 0 l0 19 ZM13 145 l0 18 l77 0 l0 -18 q-14 -25 -29 -43 l0 -8 q2 -1 6 -4 q4 -3 6 -4 q7 8 19 27 q3 4 4 6 l16 -10 q-2 -2 -5 -8 q-13 -17 -20 -25 q12 -9 24 -18 l-12 -15 q-11 9 -32 25 q-4 3 -6 5 l0 -100 l-18 0 l0 106 q-13 -14 -30 -29 q-3 10 -6 21 q35 30 62 74 l-56 0 ZM38 201 l17 8 q9 -14 19 -33 l-18 -9 q-10 19 -18 34 Z" /><glyph glyph-name="" unicode="&#x5230;" d="M113 164 q21 -32 38 -62 q-9 -4 -18 -9 q-1 3 -4 9 q-3 5 -5 8 q-17 -1 -55 -4 q-13 -1 -19 -2 q-4 0 -12 -2 q-9 -1 -13 -2 l-9 20 q7 4 15 12 q17 20 29 44 l-48 0 l0 17 l140 0 l0 -17 l-70 0 q-18 -30 -37 -55 q19 1 63 4 q-31 -2 7 1 q-3 6 -10 17 q-5 7 -7 11 l15 10 ZM72 99 l19 0 l0 -30 l56 0 l0 -17 l-56 0 l0 -44 q30 5 59 8 q0 -10 1 -17 q-43 -5 -138 -19 l-5 20 q29 2 64 6 l0 46 l-57 0 l0 17 l57 0 l0 30 ZM218 208 l19 0 l0 -203 q2 -32 -31 -30 q-24 0 -33 0 q-1 10 -3 22 q20 -2 30 -2 q20 -2 18 18 l0 195 ZM166 182 l18 0 l0 -154 l-18 0 l0 154 Z" /><glyph glyph-name="" unicode="&#x5236;" d="M8 120 l70 0 l0 32 l-36 0 q-6 -13 -14 -27 q-7 6 -16 10 q18 25 27 62 l17 -4 q-1 -4 -3 -12 q-3 -8 -4 -12 l29 0 l0 37 l19 0 l0 -37 l52 0 l0 -17 l-52 0 l0 -32 l63 0 l0 -17 l-63 0 l0 -27 l53 0 l0 -58 q1 -25 -25 -25 q-9 0 -19 0 q-1 3 -2 9 q-2 5 -2 7 q9 -1 19 -1 q12 0 11 11 l0 40 l-35 0 l0 -88 l-19 0 l0 88 l-33 0 l0 -70 l-18 0 l0 87 l51 0 l0 27 l-70 0 l0 17 ZM217 206 l18 0 l0 -199 q0 -31 -30 -31 q-9 -1 -31 -1 q-1 10 -4 21 q17 -1 29 -1 q19 -1 18 14 l0 197 ZM188 34 l-18 0 l0 149 l18 0 l0 -149 Z" /><glyph glyph-name="" unicode="&#x52a8;" d="M157 208 l20 0 q0 -10 -1 -28 q0 -15 0 -23 l64 0 q0 -3 0 -9 q-2 -102 -4 -129 q-1 -41 -37 -41 q-14 0 -28 0 q-2 10 -4 21 q20 -2 30 -2 q19 0 20 22 q4 70 4 121 l-46 0 q0 -10 0 -21 q-1 -95 -56 -149 q-6 8 -15 16 q50 41 52 133 q0 9 0 21 l-37 0 l0 17 l38 0 q0 25 0 51 ZM94 74 q11 -23 27 -59 q-2 3 2 -6 q-4 -1 -13 -5 q-4 -2 -6 -3 q-1 5 -3 9 q-43 -4 -83 -10 l-9 20 q11 7 17 21 q13 28 25 60 l-42 0 l0 18 l117 0 l0 -18 l-55 0 q-18 -48 -36 -80 q15 1 48 4 q8 1 12 1 q-3 7 -9 21 q-5 13 -8 20 l16 7 ZM20 187 l97 0 l0 -18 l-97 0 l0 18 Z" /><glyph glyph-name="" unicode="&#x5355;" d="M9 37 l110 0 l0 26 l-86 0 l0 108 l51 0 q-4 5 -14 15 q-8 9 -13 14 l15 10 q17 -16 30 -31 l-13 -8 l62 0 q15 18 29 38 l18 -9 q-4 -5 -12 -14 q-8 -10 -12 -15 l49 0 l0 -108 l-86 0 l0 -26 l110 0 l0 -17 l-110 0 l0 -49 l-18 0 l0 49 l-110 0 l0 17 ZM137 109 l0 -29 l68 0 l0 29 l-68 0 ZM51 109 l0 -29 l68 0 l0 29 l-68 0 ZM205 154 l-68 0 l0 -29 l68 0 l0 29 ZM51 154 l0 -29 l68 0 l0 29 l-68 0 Z" /><glyph glyph-name="" unicode="&#x535a;" d="M210 58 l0 13 l-45 0 l0 -15 l-17 0 l0 15 l-46 0 l0 -18 l-17 0 l0 95 l63 0 l0 16 l-75 0 l0 16 l75 0 l0 28 l17 0 l0 -28 l41 0 q-13 13 -21 20 l11 10 q4 -4 11 -10 q8 -7 12 -11 l-10 -9 l33 0 l0 -16 l-77 0 l0 -16 l62 0 l0 -90 l-17 0 ZM32 208 l18 0 l0 -69 l23 0 l0 -17 l-23 0 l0 -151 l-18 0 l0 151 l-24 0 l0 17 l24 0 l0 69 ZM67 43 l124 0 l0 14 l18 0 l0 -14 l39 0 l0 -15 l-39 0 l0 -28 q1 -26 -30 -26 q-18 0 -33 0 q-1 7 -3 18 q6 0 17 -1 q12 0 17 0 q15 0 14 11 l0 26 l-124 0 l0 15 ZM102 133 l0 -16 l46 0 l0 16 l-46 0 ZM102 102 l0 -16 l46 0 l0 16 l-46 0 ZM165 102 l0 -16 l45 0 l0 16 l-45 0 ZM210 133 l-45 0 l0 -16 l45 0 l0 16 ZM95 14 l11 12 q18 -11 34 -23 l-12 -11 q-14 11 -33 22 Z" /><glyph glyph-name="" unicode="&#x53cb;" d="M88 209 l21 -3 q-3 -18 -6 -35 l141 0 l0 -18 l-144 0 q-4 -19 -9 -36 l127 0 l0 -18 q-16 -48 -53 -79 q34 -20 82 -27 q-9 -14 -15 -21 q-48 15 -82 36 q-39 -22 -88 -38 q-6 9 -13 19 q52 13 85 32 q-32 30 -47 78 l-1 0 q-24 -73 -67 -118 q-6 8 -13 16 q53 53 74 156 l-65 0 l0 18 l68 0 q3 18 5 38 ZM196 99 l-91 0 q15 -42 45 -66 q34 26 46 66 Z" /><glyph glyph-name="" unicode="&#x53cc;" d="M118 172 l0 18 l114 0 l0 -18 q-10 -89 -44 -133 q24 -29 61 -45 q-2 -2 -16 -18 q-41 26 -57 48 q-25 -28 -74 -54 q-5 7 -13 17 q46 20 75 52 q-33 45 -39 133 l-7 0 ZM14 143 l15 9 q3 -5 10 -14 q14 -22 34 -53 q15 40 19 86 l-81 0 l0 19 l101 0 l0 -19 q-10 -65 -27 -105 q8 -11 21 -33 q7 -13 11 -19 l-16 -13 q-15 27 -26 45 q-19 -35 -53 -68 q-3 3 -10 10 q-4 3 -5 4 q38 34 57 72 q-18 29 -50 79 ZM212 172 l-69 0 q6 -79 33 -117 q28 40 36 117 Z" /><glyph glyph-name="" unicode="&#x53f3;" d="M18 171 l84 0 q8 18 14 38 l20 -6 q-3 -8 -9 -21 q-3 -8 -4 -11 l123 0 l0 -18 l-132 0 q-11 -24 -30 -51 l136 0 l0 -130 l-20 0 l0 21 l-122 0 l0 -21 l-19 0 l0 99 q-18 -21 -36 -38 q-8 8 -15 15 q57 51 85 105 l-75 0 l0 18 ZM78 84 l0 -74 l122 0 l0 74 l-122 0 Z" /><glyph glyph-name="" unicode="&#x5404;" d="M47 69 l165 0 l0 -97 l-19 0 l0 15 l-127 0 l0 -15 l-19 0 l0 97 ZM82 210 l20 -5 q-1 -2 -3 -4 q-4 -8 -11 -17 l123 0 l0 -19 q-25 -31 -60 -52 q31 -14 97 -22 q-4 -7 -11 -20 q-70 12 -106 31 q-43 -22 -115 -35 q-1 3 -5 10 q-3 6 -5 9 q68 11 105 27 q-22 14 -45 42 q-18 -21 -40 -40 q-4 5 -13 14 q41 31 69 81 ZM66 52 l0 -50 l127 0 l0 50 l-127 0 ZM188 166 l-108 0 q24 -29 51 -43 q29 15 57 43 Z" /><glyph glyph-name="" unicode="&#x5427;" d="M120 15 q0 -18 18 -18 l72 0 q14 -1 16 13 q1 7 2 21 q2 13 2 20 q3 -1 11 -5 q5 -1 7 -2 q-3 -22 -5 -41 q-4 -24 -32 -23 l-75 0 q-35 0 -34 32 l0 184 l128 0 l0 -113 l-110 0 l0 -68 ZM18 185 l61 0 l0 -168 l-17 0 l0 16 l-26 0 l0 -24 l-18 0 l0 176 ZM36 167 l0 -116 l26 0 l0 116 l-26 0 ZM212 179 l-38 0 l0 -79 l38 0 l0 79 ZM120 179 l0 -79 l37 0 l0 79 l-37 0 Z" /><glyph glyph-name="" unicode="&#x5458;" d="M47 198 l162 0 l0 -67 l-162 0 l0 67 ZM33 109 l190 0 l0 -88 l-19 0 l0 71 l-152 0 l0 -73 l-19 0 l0 90 ZM118 85 l19 0 q0 -20 -1 -27 q-1 -10 -3 -19 q9 -4 28 -12 q68 -27 86 -35 l-11 -18 q-38 20 -110 49 q-16 -31 -108 -53 q-3 8 -10 18 q114 18 109 73 q1 5 1 24 ZM66 182 l0 -35 l124 0 l0 35 l-124 0 Z" /><glyph glyph-name="" unicode="&#x548c;" d="M131 179 l106 0 l0 -200 l-19 0 l0 22 l-69 0 l0 -22 l-18 0 l0 200 ZM149 162 l0 -144 l69 0 l0 144 l-69 0 ZM8 135 l47 0 l0 39 q-21 -3 -39 -6 q-2 8 -5 17 q47 5 98 17 l5 -17 q-18 -5 -40 -8 l0 -42 l44 0 l0 -16 l-44 0 l0 -31 l9 9 q3 -2 9 -8 q21 -18 29 -27 l-14 -14 q-13 16 -33 34 l0 -111 l-19 0 l0 117 q-14 -38 -39 -71 q-4 9 -9 21 q29 35 44 81 l-43 0 l0 16 Z" /><glyph glyph-name="" unicode="&#x54c1;" d="M45 197 l166 0 l0 -88 l-166 0 l0 88 ZM21 82 l92 0 l0 -110 l-19 0 l0 16 l-55 0 l0 -16 l-18 0 l0 110 ZM143 82 l92 0 l0 -110 l-18 0 l0 16 l-55 0 l0 -16 l-19 0 l0 110 ZM64 180 l0 -54 l128 0 l0 54 l-128 0 ZM162 65 l0 -63 l55 0 l0 63 l-55 0 ZM39 65 l0 -62 l55 0 l0 62 l-55 0 Z" /><glyph glyph-name="" unicode="&#x56ed;" d="M22 195 l212 0 l0 -223 l-18 0 l0 11 l-176 0 l0 -12 l-18 0 l0 224 ZM40 179 l0 -179 l176 0 l0 179 l-176 0 ZM51 107 l154 0 l0 -16 l-48 0 l0 -42 q-1 -17 13 -15 l5 0 q13 -1 14 12 q2 11 3 27 q8 -3 17 -6 q-1 -15 -4 -28 q-4 -23 -28 -22 l-12 0 q-27 -2 -25 30 l0 44 l-32 0 q2 -56 -50 -83 q-4 8 -12 16 q46 20 44 67 l-39 0 l0 16 ZM63 152 l130 0 l0 -16 l-130 0 l0 16 Z" /><glyph glyph-name="" unicode="&#x56fd;" d="M22 195 l212 0 l0 -223 l-18 0 l0 11 l-175 0 l0 -12 l-19 0 l0 224 ZM41 178 l0 -178 l175 0 l0 178 l-175 0 ZM61 105 l58 0 l0 33 l-63 0 l0 16 l144 0 l0 -16 l-63 0 l0 -33 l58 0 l0 -16 l-58 0 l0 -48 l67 0 l0 -16 l-152 0 l0 16 l67 0 l0 48 l-58 0 l0 16 ZM149 73 l14 11 q8 -8 23 -26 l-15 -11 q-12 16 -22 26 Z" /><glyph glyph-name="" unicode="&#x5927;" d="M8 -10 q101 44 107 132 l-103 0 l0 19 l104 0 q0 36 0 66 l22 0 q0 -10 -1 -36 q0 -22 0 -30 l107 0 l0 -19 l-107 0 q15 -96 112 -126 q-2 -2 -5 -7 q-7 -8 -10 -14 q-84 33 -106 114 q-16 -74 -105 -117 q-3 3 -8 9 q-5 7 -7 9 Z" /><glyph glyph-name="" unicode="&#x5956;" d="M248 -8 q-6 -10 -10 -19 q-82 15 -109 61 q-21 -46 -112 -63 q0 1 -1 3 q-5 9 -8 14 q86 14 104 53 l-99 0 l0 17 l106 0 q2 8 3 15 l19 0 q-1 -7 -4 -15 l107 0 l0 -17 l-101 0 q29 -41 105 -49 ZM97 140 q35 31 50 69 l19 -4 q-6 -12 -12 -22 l81 0 l0 -15 q-28 -67 -124 -90 q-4 8 -9 17 q83 18 113 71 l-71 0 q-3 -4 -7 -8 q17 -12 32 -27 l-13 -12 q-14 14 -29 26 q-8 -9 -17 -18 q-3 3 -9 9 q-3 3 -4 4 ZM71 207 l19 0 l0 -138 l-19 0 l0 50 q-11 -6 -36 -18 q-13 -7 -20 -10 l-7 19 q35 14 63 28 l0 69 ZM16 181 l12 11 q18 -16 35 -36 l-14 -12 q-14 16 -33 37 Z" /><glyph glyph-name="" unicode="&#x597d;" d="M110 15 l-15 -15 q-6 5 -18 16 q-6 5 -9 8 q-13 -23 -48 -49 q-5 7 -11 16 q28 19 46 45 q-20 17 -37 31 q11 40 16 72 l-26 0 l0 18 l29 0 q2 9 4 26 q3 17 4 25 l19 -2 q-1 -7 -4 -22 q-2 -19 -4 -27 l46 0 l0 -16 q-6 -66 -24 -101 q9 -7 27 -21 q3 -3 5 -4 ZM168 137 q13 11 39 32 q-16 -13 5 5 l-102 0 l0 17 l129 0 l0 -19 q-11 -10 -39 -33 q-9 -7 -13 -11 l0 -29 l61 0 l0 -17 l-61 0 l0 -76 q1 -30 -32 -30 q-4 0 -11 0 q-12 -1 -20 0 q0 4 -2 15 q-1 3 -1 5 q9 -1 32 -1 q15 -1 15 13 l0 74 l-67 0 l0 17 l67 0 l0 38 ZM83 139 l-30 0 q-7 -39 -15 -67 q13 -9 25 -20 q16 32 20 87 Z" /><glyph glyph-name="" unicode="&#x5b66;" d="M123 68 l46 26 l-114 0 l0 18 l142 0 l0 -20 l-55 -32 l0 -5 l105 0 l0 -18 l-105 0 l0 -34 q2 -30 -31 -30 q-18 0 -34 0 q0 3 -2 8 q-1 9 -2 13 q15 -1 35 -1 q16 -1 15 13 l0 31 l-114 0 l0 18 l114 0 l0 13 ZM18 155 l221 0 l0 -51 l-20 0 l0 33 l-182 0 l0 -33 l-19 0 l0 51 ZM170 168 q19 19 32 37 l16 -11 q-15 -20 -32 -38 l-16 12 ZM102 200 l16 9 q12 -15 27 -39 l-17 -10 q-9 17 -26 40 ZM37 193 l14 10 q9 -10 26 -31 q2 -3 3 -4 l-16 -12 q-13 19 -27 37 Z" /><glyph glyph-name="" unicode="&#x5bb6;" d="M12 36 q61 16 98 50 q-1 2 -4 6 q-3 3 -5 5 q-36 -24 -80 -37 q-5 7 -11 17 q53 12 98 44 l-66 0 l0 16 l173 0 l0 -16 l-82 0 q-9 -7 -18 -15 q14 -14 22 -32 q41 20 73 39 l12 -16 q-23 -12 -47 -24 q18 -48 73 -66 q-8 -7 -15 -17 q-54 22 -74 76 q-2 -1 -7 -4 q-5 -2 -8 -4 q6 -17 6 -36 q2 -48 -45 -47 q-14 -1 -24 -1 q-2 10 -4 20 q6 -1 28 -1 q28 -2 27 29 q0 9 -2 18 q-38 -38 -110 -62 q-3 7 -10 18 q72 19 115 62 q-3 8 -7 14 q-38 -34 -96 -52 q-4 7 -10 16 ZM113 204 l18 6 q2 -4 6 -13 q5 -11 7 -17 l-11 -3 l106 0 l0 -41 l-18 0 l0 24 l-186 0 l0 -24 l-18 0 l0 41 l108 0 q-6 17 -12 27 Z" /><glyph glyph-name="" unicode="&#x5c0f;" d="M121 205 l20 0 l0 -198 q1 -33 -33 -32 q-5 0 -18 -1 q-13 0 -18 0 q0 1 0 3 q-1 8 -4 20 q12 -1 34 -1 q20 -1 19 16 l0 193 ZM61 153 l22 -7 q-25 -67 -55 -125 q-11 6 -20 11 q30 53 53 121 ZM170 143 l19 9 q24 -45 60 -118 l-22 -10 q-31 69 -57 119 Z" /><glyph glyph-name="" unicode="&#x5c14;" d="M78 208 l21 -6 q-7 -15 -15 -28 l159 0 l0 -18 q-18 -27 -27 -45 q-4 2 -19 8 q11 15 23 37 l-147 0 q-20 -30 -50 -58 q-9 9 -15 14 q48 43 70 96 ZM122 144 l20 0 l0 -137 q2 -34 -36 -32 q-6 0 -16 -1 q-8 0 -12 0 q0 5 -3 18 q3 -9 -1 3 q4 0 15 -1 q11 0 15 0 q19 -1 18 16 l0 134 ZM72 106 l19 -9 q-27 -55 -61 -98 q-7 4 -17 11 q36 42 59 96 ZM167 94 l16 11 q30 -41 63 -93 l-18 -12 q-29 49 -61 94 Z" /><glyph glyph-name="" unicode="&#x5c4a;" d="M139 128 l17 0 l0 -27 l71 0 l0 -129 l-18 0 l0 14 l-123 0 l0 -14 l-18 0 l0 129 l71 0 l0 27 ZM34 196 l196 0 l0 -63 l-178 0 l0 -24 q0 -54 -6 -82 q-6 -27 -25 -55 q-6 9 -14 16 q17 26 22 48 q5 21 5 68 l0 92 ZM52 179 l0 -29 l160 0 l0 29 l-160 0 ZM86 35 l0 -34 l53 0 l0 34 l-53 0 ZM156 35 l0 -34 l53 0 l0 34 l-53 0 ZM86 85 l0 -34 l53 0 l0 34 l-53 0 ZM209 85 l-53 0 l0 -34 l53 0 l0 34 Z" /><glyph glyph-name="" unicode="&#x5c55;" d="M144 10 q0 -5 0 -17 q-3 -1 -9 -3 q-27 -9 -34 -12 q-6 -2 -18 -7 l-11 14 q7 3 6 18 l0 53 l-28 0 q-2 -49 -29 -85 q-1 1 -3 4 q-7 8 -11 11 q16 19 21 43 q5 22 5 71 l0 97 l198 0 l0 -56 l-180 0 l0 -32 q0 -21 0 -38 l50 0 l0 27 l-40 0 l0 16 l40 0 l0 21 l17 0 l0 -21 l50 0 l0 21 l18 0 l0 -21 l46 0 l0 -16 l-46 0 l0 -27 l57 0 l0 -15 l-102 0 q11 -19 26 -32 q16 8 43 22 q5 3 7 4 l10 -15 q-8 -4 -45 -21 q22 -13 66 -20 q-5 -5 -13 -17 q-83 18 -113 79 l-26 0 l0 -60 q2 1 11 3 q20 5 37 11 ZM51 181 l0 -24 l162 0 l0 24 l-162 0 ZM118 98 l0 -27 l50 0 l0 27 l-50 0 Z" /><glyph glyph-name="" unicode="&#x5de6;" d="M49 2 l88 0 l0 79 l-59 0 q-21 -44 -57 -88 q-3 4 -14 14 q57 67 75 145 l-66 0 l0 19 l70 0 q3 18 6 37 l21 -2 q-3 -18 -7 -35 l140 0 l0 -19 l-144 0 q-7 -27 -16 -53 l145 0 l0 -18 l-74 0 l0 -79 l89 0 l0 -16 l-197 0 l0 16 Z" /><glyph glyph-name="" unicode="&#x5df2;" d="M33 145 l21 0 l0 -39 l144 0 l0 68 l-171 0 l0 18 l191 0 l0 -104 l-164 0 l0 -64 q-2 -24 25 -23 l111 0 q28 -1 31 22 q3 17 5 32 q11 -3 21 -7 q-1 -3 -2 -10 q-3 -14 -4 -20 q-6 -37 -47 -36 l-118 0 q-44 -1 -43 38 l0 125 Z" /><glyph glyph-name="" unicode="&#x5e73;" d="M22 197 l214 0 l0 -19 l-98 0 l0 -101 l108 0 l0 -19 l-108 0 l0 -87 l-20 0 l0 87 l-108 0 l0 19 l108 0 l0 101 l-96 0 l0 19 ZM157 102 q22 24 49 61 l16 -11 q-28 -38 -50 -63 l-15 13 ZM34 152 l15 10 q20 -24 47 -60 l-17 -13 q-15 24 -45 63 Z" /><glyph glyph-name="" unicode="&#x5e7c;" d="M125 156 l31 0 q1 24 1 51 l19 0 q-1 -20 -1 -51 l61 0 q-1 -44 -3 -121 q-1 -13 -1 -18 q0 -42 -37 -40 q-17 0 -29 0 q-1 10 -4 20 q10 -1 32 -1 q18 -1 19 21 q0 6 1 19 q2 71 3 102 l-43 0 q0 -9 0 -20 q-1 -99 -60 -148 q-4 5 -15 14 q56 41 56 135 q0 3 1 10 q0 6 0 9 l-31 0 l0 18 ZM96 76 q17 -34 29 -61 l-17 -8 q0 1 -1 4 q-2 4 -3 7 q-56 -4 -82 -8 l-7 18 q8 5 18 18 q18 24 40 59 q-16 0 -52 -3 q-3 0 -5 0 l-5 17 q10 7 16 17 q28 42 43 72 l20 -9 q-32 -48 -53 -78 q32 0 46 1 q12 18 20 35 l19 -8 q-43 -69 -80 -119 q28 2 55 4 q-3 6 -9 19 q-5 10 -7 15 l15 8 Z" /><glyph glyph-name="" unicode="&#x5ea6;" d="M64 51 l0 17 l152 0 l0 -17 q-28 -28 -51 -42 q26 -9 82 -17 q-6 -9 -10 -19 q-56 9 -93 27 q-39 -19 -92 -30 q-5 13 -10 18 q57 11 82 21 q-24 18 -43 42 l-17 0 ZM127 206 l19 4 q1 -6 4 -16 q2 -8 3 -12 l92 0 l0 -17 l-194 0 l0 -56 q0 -58 -6 -84 q-5 -27 -23 -55 q-2 2 -7 6 q-6 6 -8 8 q17 26 21 49 q5 22 5 72 l0 77 l100 0 q-3 12 -6 24 ZM179 158 l18 0 l0 -19 l45 0 l0 -16 l-45 0 l0 -38 l-105 0 l0 38 l-35 0 l0 16 l35 0 l0 19 l19 0 l0 -19 l68 0 l0 19 ZM189 51 l-85 0 q18 -20 40 -32 q25 13 45 32 ZM111 123 l0 -22 l68 0 l0 22 l-68 0 Z" /><glyph glyph-name="" unicode="&#x5f0f;" d="M141 209 l21 0 q-1 -22 0 -47 l84 0 l0 -18 l-83 0 q1 -32 4 -58 q6 -60 30 -85 q10 -8 17 -8 q6 -1 9 10 q5 20 6 36 q10 -5 19 -7 q-2 -24 -8 -37 q-5 -23 -24 -23 q-16 0 -32 15 q-29 29 -36 96 q-3 29 -5 61 l-135 0 l0 18 l134 0 q0 8 0 24 q-1 16 -1 23 ZM9 8 q9 1 38 5 q12 1 18 2 l0 68 l-47 0 l0 18 l114 0 l0 -18 l-47 0 l0 -65 q11 1 34 5 q17 2 24 3 q-1 -10 -1 -19 q-9 -1 -56 -7 q-55 -7 -72 -10 l-5 18 ZM180 195 l12 12 q11 -8 27 -21 q5 -5 8 -7 l-14 -15 q-15 16 -33 31 Z" /><glyph glyph-name="" unicode="&#x5f71;" d="M70 121 l10 4 l-58 0 l0 72 l120 0 l0 -72 l-55 0 q1 -3 3 -8 q2 -6 3 -9 l65 0 l0 -14 l-149 0 l0 14 l67 0 l-6 13 ZM25 80 l114 0 l0 -46 l-47 0 l0 -36 q1 -25 -24 -25 q-14 0 -23 0 q0 1 -1 3 q-1 10 -3 14 q14 -1 21 -1 q15 -1 14 11 l0 34 l-51 0 l0 46 ZM135 -16 q60 30 98 85 l15 -10 q-40 -57 -101 -89 q-2 2 -6 7 q-4 5 -6 7 ZM152 71 q45 30 75 72 l15 -12 q-37 -45 -77 -74 q-2 2 -5 5 q-5 7 -8 9 ZM150 142 q36 22 66 62 l15 -11 q-32 -39 -68 -65 q-3 3 -7 8 q-4 4 -6 6 ZM42 66 l0 -18 l80 0 l0 18 l-80 0 ZM38 155 l0 -17 l87 0 l0 17 l-87 0 ZM38 184 l0 -17 l87 0 l0 17 l-87 0 ZM9 -7 q20 16 35 35 l13 -9 q-11 -16 -36 -37 l-12 11 ZM104 18 l11 11 q4 -4 12 -10 q13 -11 19 -17 l-12 -11 q-5 5 -15 13 q-9 9 -15 14 Z" /><glyph glyph-name="" unicode="&#x5f97;" d="M102 197 l124 0 l0 -89 l-124 0 l0 89 ZM89 89 l154 0 l0 -16 l-30 0 l0 -20 l35 0 l0 -16 l-35 0 l0 -33 q1 -30 -31 -29 q-26 0 -34 0 q-1 8 -4 20 q2 0 4 0 q19 -2 30 -2 q18 -1 17 17 l0 27 l-116 0 l0 16 l116 0 l0 20 l-106 0 l0 16 ZM7 65 q36 36 60 80 l16 -9 q-12 -19 -22 -35 l0 -129 l-18 0 l0 105 q-13 -16 -27 -31 q-4 9 -9 19 ZM120 145 l0 -22 l88 0 l0 22 l-88 0 ZM120 182 l0 -22 l88 0 l0 22 l-88 0 ZM8 141 q32 24 58 67 l17 -9 q-25 -39 -65 -75 q-6 12 -10 17 ZM102 26 l14 11 q14 -15 26 -30 l-15 -10 q-12 14 -25 29 Z" /><glyph glyph-name="" unicode="&#x5fae;" d="M190 207 l17 -3 q-4 -21 -12 -42 l54 0 l0 -17 l-14 0 q-6 -70 -23 -107 q12 -24 39 -48 q-6 -10 -10 -18 q-21 21 -38 48 q-10 -19 -39 -50 q-5 6 -13 14 q33 32 44 54 q-14 32 -19 72 q-3 -9 -8 -17 q-5 7 -12 12 q22 45 34 102 ZM129 49 l-35 0 l0 -6 q2 -43 -24 -66 q-3 7 -11 15 q21 13 19 56 l0 17 l67 0 l0 -42 q14 11 23 21 q1 -4 3 -12 q1 -5 1 -7 q-15 -12 -28 -25 q-3 -1 -10 -8 l-12 14 q8 6 7 21 l0 22 ZM108 204 l15 0 l0 -62 l20 0 l0 44 l16 0 l0 -60 l-86 0 l0 60 l15 0 l0 -44 l20 0 l0 62 ZM7 64 q25 31 46 77 l15 -8 q-8 -16 -17 -33 l0 -128 l-16 0 l0 102 q-3 -4 -10 -14 q-7 -9 -11 -14 q-2 7 -5 14 q-2 3 -2 4 ZM204 58 q11 34 15 87 l-29 0 q0 0 -1 -1 q0 -1 -1 -2 q3 -51 16 -84 ZM11 141 q27 31 43 65 l16 -9 q-21 -38 -52 -73 q-3 9 -7 17 ZM76 104 l79 0 l0 -16 l-79 0 l0 16 Z" /><glyph glyph-name="" unicode="&#x5feb;" d="M144 207 l19 0 q0 -24 0 -43 l59 0 l0 -76 l24 0 l0 -18 l-79 0 q19 -54 76 -79 q-6 -8 -14 -18 q-59 34 -76 89 q-9 -52 -69 -91 q-1 1 -4 5 q-8 10 -10 11 q60 37 68 83 l-55 0 l0 18 l58 0 q3 20 3 59 l-46 0 l0 17 l46 0 l0 43 ZM44 207 l18 0 l0 -52 l13 8 q3 -4 9 -14 q13 -18 17 -24 l-16 -10 q-4 9 -21 34 q-1 3 -2 4 l0 -181 l-18 0 l0 235 ZM203 147 l-40 0 q0 -7 -1 -19 q0 -30 -2 -40 l43 0 l0 59 ZM18 151 l17 -2 q-7 -43 -11 -62 q-12 3 -17 4 q7 29 11 60 Z" /><glyph glyph-name="" unicode="&#x60a8;" d="M74 138 q27 29 47 70 l19 -4 q-6 -12 -12 -22 l110 0 l0 -16 l-16 -34 l-18 8 l13 26 l-98 0 q-13 -20 -30 -40 q-6 6 -15 12 ZM66 49 l19 0 l0 -38 q-2 -17 19 -16 l47 0 q21 0 23 11 q3 11 5 30 q9 -4 19 -7 q-1 -4 -2 -11 q-2 -11 -3 -17 q-6 -24 -40 -23 l-53 0 q-36 -2 -34 32 l0 39 ZM61 210 l18 -8 q-3 -4 -8 -13 q-8 -13 -12 -19 l0 -108 l-18 0 l0 82 q-10 -14 -21 -26 q-6 7 -13 15 q28 28 54 77 ZM154 154 l18 0 l0 -55 q2 -35 -31 -33 q-10 -1 -21 -1 q0 7 -4 19 q6 -1 22 -1 q17 -2 16 19 l0 52 ZM119 136 l14 -10 q-20 -25 -47 -52 q-6 6 -14 13 q26 23 47 49 ZM185 120 l12 13 q25 -20 49 -44 l-13 -15 q-22 25 -48 46 ZM195 49 l14 10 q24 -26 41 -50 l-16 -10 q-8 11 -28 36 q-7 9 -11 14 ZM35 51 l17 -6 q-10 -29 -24 -57 l-18 8 q15 23 25 55 ZM105 50 l12 11 q20 -15 38 -33 l-14 -13 q-18 19 -36 35 Z" /><glyph glyph-name="" unicode="&#x6211;" d="M7 65 q7 1 25 4 q18 3 28 4 l0 45 l-53 0 l0 17 l53 0 l0 38 q-20 -4 -42 -6 q-2 9 -5 19 q56 5 102 14 l6 -18 q-1 0 -3 -1 q-25 -4 -39 -6 l0 -40 l62 0 q-2 39 -3 72 l19 0 q0 -27 3 -72 l89 0 l0 -17 l-88 0 q4 -40 10 -66 q32 27 47 53 l17 -11 q-23 -32 -58 -61 q12 -28 25 -36 q17 -12 21 3 q4 14 7 39 q11 -4 19 -7 q-3 -17 -8 -35 q-6 -24 -26 -25 q-21 0 -39 25 q-8 8 -14 23 q-27 -20 -57 -34 q-6 10 -12 16 q35 16 63 37 q-11 33 -14 79 l-63 0 l0 -41 q27 5 50 9 q0 -10 1 -18 q-11 -3 -51 -10 l0 -53 q1 -29 -33 -31 q-15 0 -26 0 q-1 11 -4 20 q3 0 11 0 q12 -1 18 -1 q16 -1 15 13 l0 48 q-15 -3 -40 -7 q-6 -2 -8 -2 l-5 20 ZM177 186 l13 12 q26 -20 43 -36 l-14 -14 q-10 10 -42 38 Z" /><glyph glyph-name="" unicode="&#x6218;" d="M151 208 l18 0 q0 -24 2 -69 l71 9 l2 -18 l-72 -9 q3 -43 9 -68 q25 26 43 57 l16 -9 q-25 -42 -53 -68 q7 -21 19 -33 q7 -7 13 -7 q5 1 8 9 q4 18 6 38 q7 -3 17 -7 q-2 -19 -5 -33 q-5 -26 -25 -26 q-18 -1 -31 18 q-11 11 -17 27 q-19 -16 -50 -35 q-6 8 -10 13 l-76 0 l0 -17 l-19 0 l0 112 l37 0 l0 116 l19 0 l0 -46 l49 0 l0 -17 l-49 0 l0 -53 l40 0 l0 -92 q31 19 52 38 q-8 33 -11 81 l-34 -4 l-3 18 l36 4 q-2 43 -2 71 ZM36 75 l0 -63 l59 0 l0 63 l-59 0 ZM184 189 l11 12 q2 -1 5 -4 q21 -14 32 -23 l-11 -14 q-19 17 -37 29 Z" /><glyph glyph-name="" unicode="&#x626b;" d="M107 98 l108 0 l0 71 l-113 0 l0 19 l132 0 l0 -216 l-19 0 l0 13 l-124 0 l0 16 l124 0 l0 78 l-108 0 l0 19 ZM9 158 l35 0 l0 48 l19 0 l0 -48 l33 0 l0 -17 l-33 0 l0 -47 q4 1 12 4 q6 2 21 7 q0 -4 0 -19 q-2 -1 -6 -2 q-16 -5 -27 -9 l0 -71 q2 -30 -28 -28 q-7 -1 -22 -1 q-1 8 -3 21 q7 -1 23 -1 q12 -1 11 10 l0 64 q-8 -3 -24 -8 q-8 -3 -11 -4 l-2 21 q8 2 29 8 q5 1 8 2 l0 53 l-35 0 l0 17 Z" /><glyph glyph-name="" unicode="&#x62dc;" d="M119 193 l121 0 l0 -17 l-52 0 l0 -34 l48 0 l0 -17 l-48 0 l0 -34 l49 0 l0 -17 l-49 0 l0 -33 l61 0 l0 -17 l-61 0 l0 -51 l-19 0 l0 51 l-59 0 l0 17 l59 0 l0 33 l-48 0 l0 17 l48 0 l0 34 l-46 0 l0 17 l46 0 l0 34 l-50 0 l0 17 ZM12 66 l40 0 q3 18 2 43 l-38 0 l0 17 l38 0 l0 46 q-19 -3 -39 -3 q-2 9 -4 18 q39 1 97 9 l4 -19 q-19 -1 -39 -4 l0 -47 l36 0 l0 -17 l-36 0 q0 -25 -2 -43 l42 0 l0 -17 l-44 0 q-6 -47 -45 -79 q-6 7 -14 15 q35 24 40 64 l-38 0 l0 17 Z" /><glyph glyph-name="" unicode="&#x6311;" d="M173 207 l18 0 l0 -115 q15 -8 43 -26 q4 -3 6 -4 l-12 -16 q-9 7 -28 20 q-6 4 -9 6 l0 -63 q-1 -15 12 -14 l11 0 q12 0 14 12 q1 5 3 24 q-1 -2 0 5 q14 -6 18 -7 q-1 -13 -4 -28 q-4 -23 -28 -23 l-17 0 q-28 -1 -27 30 l0 199 ZM8 74 q15 5 32 9 l0 58 l-30 0 l0 16 l30 0 l0 49 l18 0 l0 -49 l28 0 l0 -16 l-28 0 l0 -52 q14 3 27 8 q-1 -11 -1 -18 q-2 -1 -11 -4 q-9 -3 -15 -5 l0 -65 q0 -27 -26 -28 q-11 0 -20 0 q0 7 -3 19 q6 0 19 0 q12 -1 12 10 l0 58 q-7 -3 -21 -7 q-6 -2 -9 -3 l-2 20 ZM129 207 l18 0 l0 -105 q3 -100 -60 -132 q-10 14 -13 17 q49 22 53 84 q-6 -5 -20 -15 q-14 -11 -21 -16 l-11 18 q20 11 53 36 q1 5 1 9 l0 104 ZM220 172 l17 -9 q-12 -22 -28 -49 l-16 10 q16 22 27 48 ZM88 164 l15 7 q15 -28 22 -48 l-17 -8 q-9 27 -20 49 Z" /><glyph glyph-name="" unicode="&#x63a7;" d="M8 78 q4 1 15 4 q13 3 19 5 l0 57 l-33 0 l0 17 l33 0 l0 47 l18 0 l0 -47 l26 0 l0 -17 l-26 0 l0 -52 q6 1 19 5 q4 1 6 2 q1 -11 2 -19 q-5 -1 -18 -4 q-6 -2 -9 -3 l0 -69 q1 -30 -29 -30 q-11 0 -18 0 q-1 9 -4 19 q3 0 11 -1 q7 0 10 0 q12 0 12 14 l0 62 q-12 -3 -32 -10 l-2 20 ZM98 75 l138 0 l0 -17 l-60 0 l0 -59 l71 0 l0 -17 l-165 0 l0 17 l75 0 l0 59 l-59 0 l0 17 ZM95 171 l70 0 q-8 16 -19 30 l16 9 q14 -19 21 -32 l-13 -7 l70 0 l0 -43 l-18 0 l0 26 l-110 0 l0 -26 l-17 0 l0 43 ZM179 125 l12 12 q33 -23 55 -44 l-13 -14 q-25 24 -54 46 ZM155 125 q-23 -22 -53 -46 l-13 14 q21 14 54 44 l12 -12 Z" /><glyph glyph-name="" unicode="&#x63cf;" d="M91 121 l145 0 l0 -149 l-18 0 l0 15 l-109 0 l0 -15 l-18 0 l0 149 ZM8 80 q5 1 17 5 q9 3 14 4 l0 56 l-30 0 l0 17 l30 0 l0 45 l17 0 l0 -45 l26 0 l0 -17 l-26 0 l0 -49 q12 5 24 9 q1 -12 1 -19 q-1 0 -3 -1 q-12 -5 -22 -8 l0 -75 q3 -30 -26 -28 q-6 -1 -20 0 q-1 10 -2 20 q13 -1 20 -1 q13 -2 11 10 l0 67 q-7 -3 -19 -7 q-7 -3 -10 -4 l-2 21 ZM84 176 l39 0 l0 31 l18 0 l0 -31 l45 0 l0 31 l18 0 l0 -31 l44 0 l0 -17 l-44 0 l0 -29 l-18 0 l0 29 l-45 0 l0 -29 l-18 0 l0 29 l-39 0 l0 17 ZM218 104 l-46 0 l0 -43 l46 0 l0 43 ZM109 104 l0 -43 l46 0 l0 43 l-46 0 ZM172 45 l0 -43 l46 0 l0 43 l-46 0 ZM109 45 l0 -43 l46 0 l0 43 l-46 0 Z" /><glyph glyph-name="" unicode="&#x6444;" d="M78 94 q12 1 23 1 l0 87 l-22 0 l0 15 l162 0 l0 -15 l-24 0 l0 -80 q5 1 15 1 q9 1 14 1 q-1 -8 -1 -15 q-4 0 -14 -1 q-9 0 -14 -1 l0 -15 l-17 0 l0 14 q-74 -4 -119 -8 l-3 16 ZM7 81 q5 3 16 7 q10 5 15 7 l0 52 l-29 0 l0 17 l29 0 l0 44 l17 0 l0 -44 l28 0 l0 -17 l-28 0 l0 -43 q12 6 24 12 q1 -12 2 -19 q-5 -2 -16 -8 q-7 -3 -10 -5 l0 -83 q2 -29 -24 -28 q-13 0 -18 0 q0 3 -2 10 q-1 7 -2 10 q10 -1 19 -1 q11 -1 10 9 l0 75 q-14 -9 -29 -16 l-2 21 ZM155 51 l0 15 l83 0 l0 -15 q-10 -28 -28 -46 q16 -10 40 -17 q-3 -8 -8 -15 q-27 10 -43 23 q-19 -15 -48 -25 q-4 6 -9 15 q27 9 45 19 q-17 18 -26 46 l-6 0 ZM74 31 l10 12 q5 -3 16 -10 q10 -7 15 -11 q10 12 16 29 l-57 0 l0 15 l74 0 l0 -15 q-8 -23 -20 -38 q2 -1 6 -4 q4 -4 14 -9 l-11 -14 q-10 9 -20 14 q-14 -13 -46 -29 q-4 7 -10 15 q28 12 43 23 q-15 12 -30 22 ZM118 96 q14 1 41 3 q28 1 41 2 l0 16 l-82 0 l0 -21 ZM118 150 l0 -19 l82 0 l0 19 l-82 0 ZM118 182 l0 -18 l82 0 l0 18 l-82 0 ZM221 51 l-44 0 q7 -20 21 -36 q16 15 23 36 Z" /><glyph glyph-name="" unicode="&#x65e0;" d="M30 189 l197 0 l0 -17 l-91 0 q-1 -33 -6 -58 l115 0 l0 -18 l-94 0 l0 -78 q-1 -21 19 -20 l34 0 q20 -1 21 15 q0 4 1 11 q1 13 2 22 q3 -1 10 -3 q6 -3 9 -4 q-1 -20 -4 -33 q-2 -28 -38 -26 l-39 0 q-35 -1 -34 35 l0 81 l-6 0 q-17 -79 -104 -127 q-5 9 -14 18 q81 39 98 109 l-94 0 l0 18 l98 0 q6 25 6 58 l-86 0 l0 17 Z" /><glyph glyph-name="" unicode="&#x65f6;" d="M17 185 l84 0 l0 -196 l-19 0 l0 19 l-45 0 l0 -21 l-20 0 l0 198 ZM195 209 l19 0 l0 -54 l34 0 l0 -18 l-34 0 l0 -128 q2 -34 -34 -33 q-5 0 -20 -1 q-14 0 -18 0 q-1 6 -4 19 q-1 2 -1 3 q7 -1 39 -1 q21 -2 19 17 l0 124 l-86 0 l0 18 l86 0 l0 54 ZM37 89 l0 -63 l45 0 l0 63 l-45 0 ZM37 167 l0 -61 l45 0 l0 61 l-45 0 ZM136 114 q9 -17 29 -57 q-9 -3 -19 -10 q-16 36 -27 58 l17 9 Z" /><glyph glyph-name="" unicode="&#x660e;" d="M95 -30 q-9 9 -16 14 q29 23 39 50 q10 26 10 77 l0 85 l106 0 l0 -191 q2 -31 -34 -31 q-17 -1 -35 -1 q0 2 -1 6 q-2 10 -3 15 q9 -1 37 -1 q19 -1 17 12 l0 47 l-73 0 q-7 -44 -47 -82 ZM23 188 l75 0 l0 -164 l-58 0 l0 -18 l-17 0 l0 182 ZM146 110 q1 -23 -2 -41 l71 0 l0 46 l-69 0 l0 -5 ZM146 179 l0 -46 l69 0 l0 46 l-69 0 ZM40 41 l40 0 l0 58 l-40 0 l0 -58 ZM40 172 l0 -57 l40 0 l0 57 l-40 0 Z" /><glyph glyph-name="" unicode="&#x662f;" d="M46 199 l165 0 l0 -93 l-165 0 l0 93 ZM58 61 l19 -5 q-4 -14 -9 -23 q19 -34 55 -35 l0 72 l-111 0 l0 17 l233 0 l0 -17 l-103 0 l0 -24 l86 0 l0 -17 l-86 0 l0 -32 q49 -2 108 1 q-4 -9 -7 -19 q-66 0 -110 0 q-52 1 -73 37 q-13 -24 -42 -46 q-6 7 -12 15 q39 24 52 76 ZM64 182 l0 -21 l129 0 l0 21 l-129 0 ZM64 145 l0 -22 l129 0 l0 22 l-129 0 Z" /><glyph glyph-name="" unicode="&#x66ff;" d="M42 80 l172 0 l0 -108 l-17 0 l0 14 l-138 0 l0 -14 l-17 0 l0 108 ZM132 183 l42 0 l0 1 l0 24 l16 0 l0 -25 l48 0 l0 -15 l-48 0 q0 -13 -1 -22 l54 0 l0 -15 l-52 0 q18 -32 57 -43 q-6 -8 -11 -15 q-39 15 -56 48 q-9 -20 -48 -37 q-4 7 -9 14 q38 16 43 33 l-37 0 l0 15 l42 0 q2 9 2 22 l-42 0 l0 15 ZM17 183 l53 0 l0 25 l16 0 l0 -25 l37 0 l0 -15 l-37 0 q0 -13 -1 -22 l39 0 l0 -15 l-42 0 q20 -18 39 -33 l-12 -13 q-22 22 -33 32 q-12 -23 -57 -49 q-5 6 -11 15 q49 24 56 48 l-53 0 l0 15 l57 0 q1 9 1 22 l-52 0 l0 15 ZM59 24 l0 -24 l138 0 l0 24 l-138 0 ZM59 64 l0 -24 l138 0 l0 24 l-138 0 Z" /><glyph glyph-name="" unicode="&#x673a;" d="M135 174 l0 -66 q0 -55 -9 -83 q-8 -29 -34 -56 q-3 3 -10 10 q-3 3 -5 5 q23 23 31 48 q8 26 8 76 l0 84 l89 0 l0 -178 q-1 -16 10 -15 l3 0 q10 -1 11 12 q2 9 3 34 q1 5 1 7 q8 -4 18 -6 q-1 -11 -3 -31 q-1 -7 -1 -10 q-4 -26 -28 -25 l-5 0 q-29 -2 -28 31 l0 163 l-51 0 ZM6 54 q28 41 40 89 l-37 0 l0 17 l38 0 l0 47 l18 0 l0 -47 l34 0 l0 -17 l-34 0 l0 -40 l10 10 q17 -15 29 -28 l-13 -13 q-1 1 -3 3 q-11 14 -23 24 l0 -126 l-18 0 l0 128 q-12 -39 -32 -66 q-1 3 -5 10 q-3 6 -4 9 Z" /><glyph glyph-name="" unicode="&#x6765;" d="M7 3 q58 29 98 73 l-94 0 l0 17 l108 0 l0 64 l-94 0 l0 17 l94 0 l0 35 l18 0 l0 -35 l95 0 l0 -17 l-95 0 l0 -64 l108 0 l0 -17 l-96 0 q38 -46 100 -69 q-8 -9 -13 -17 q-62 25 -99 79 l0 -98 l-18 0 l0 99 q-37 -50 -99 -83 q-5 7 -13 16 ZM162 110 q1 1 4 5 q20 21 30 36 l16 -13 q-20 -25 -37 -40 l-13 12 ZM46 138 l14 13 q17 -18 34 -39 l-16 -13 q-15 21 -32 39 Z" /><glyph glyph-name="" unicode="&#x6a21;" d="M101 143 l129 0 l0 -83 l-57 0 q0 -3 -1 -10 q0 -7 -1 -10 l75 0 l0 -16 l-68 0 q17 -24 70 -34 q0 -1 -1 -2 q-5 -7 -10 -15 q-54 14 -73 44 q-12 -29 -80 -46 q-4 8 -9 16 q64 13 74 37 l-66 0 l0 16 l71 0 q0 2 0 8 q1 8 1 12 l-54 0 l0 83 ZM7 56 q22 35 33 82 l-31 0 l0 16 l34 0 l0 53 l17 0 l0 -53 l32 0 l0 -16 l-32 0 l0 -32 l9 7 q14 -15 26 -30 l-13 -10 q-12 15 -22 28 l0 -129 l-17 0 l0 130 q-10 -37 -28 -67 q-4 10 -8 21 ZM88 184 l38 0 l0 23 l17 0 l0 -23 l43 0 l0 23 l17 0 l0 -23 l42 0 l0 -16 l-42 0 l0 -19 l-17 0 l0 19 l-43 0 l0 -19 l-17 0 l0 19 l-38 0 l0 16 ZM118 94 l0 -19 l95 0 l0 19 l-95 0 ZM118 127 l0 -18 l95 0 l0 18 l-95 0 Z" /><glyph glyph-name="" unicode="&#x6b65;" d="M125 208 l20 0 l0 -35 l81 0 l0 -18 l-81 0 l0 -37 l100 0 l0 -18 l-234 0 l0 18 l41 0 l0 68 l20 0 l0 -68 l53 0 l0 90 ZM10 -12 q141 13 204 84 l15 -13 q-70 -71 -210 -90 q-1 2 -4 9 q-4 8 -5 10 ZM74 83 l15 -11 q-28 -30 -61 -58 q-2 2 -7 8 q-5 5 -6 7 q34 26 59 54 ZM122 94 l19 0 l0 -72 l-19 0 l0 72 Z" /><glyph glyph-name="" unicode="&#x6bd4;" d="M129 208 l20 0 l0 -103 q47 34 77 71 l17 -12 q-39 -44 -94 -83 l0 -68 q-1 -17 20 -16 l33 0 q19 -1 21 16 q3 15 5 37 q10 -3 20 -5 q-3 -25 -6 -40 q-6 -26 -37 -26 l-41 0 q-37 -1 -35 31 l0 198 ZM45 201 l0 -72 l68 0 l0 -18 l-68 0 l0 -103 q11 5 36 17 q19 8 30 13 q0 -12 1 -22 q-34 -14 -60 -25 q-8 -4 -20 -14 l-14 18 q7 7 7 17 l0 189 l20 0 Z" /><glyph glyph-name="" unicode="&#x6c34;" d="M118 207 l19 0 l0 -39 q14 -36 24 -53 q26 23 53 53 l16 -14 q-28 -28 -60 -55 q30 -48 79 -82 q-2 -2 -8 -9 q-6 -6 -9 -8 q-68 56 -95 123 l0 -113 q2 -36 -35 -35 q-16 0 -31 0 q0 2 -1 8 q-2 10 -3 13 q7 -1 32 -1 q20 -1 19 16 l0 196 ZM14 130 l0 18 l84 0 l0 -18 q-21 -79 -75 -134 q-6 4 -15 13 q55 57 70 121 l-64 0 Z" /><glyph glyph-name="" unicode="&#x6cd5;" d="M74 95 l76 0 l0 51 l-64 0 l0 17 l64 0 l0 45 l19 0 l0 -45 l67 0 l0 -17 l-67 0 l0 -51 l79 0 l0 -17 l-84 0 q-28 -42 -55 -76 q19 0 65 2 q20 1 29 1 q-22 30 -30 40 l15 12 q26 -32 58 -72 l-18 -13 q-1 2 -5 7 q-5 8 -8 12 q-18 -1 -50 -2 q-34 -2 -53 -3 q-7 0 -18 -2 q-6 -1 -9 -1 l-8 19 q12 5 25 21 q20 24 37 55 l-65 0 l0 17 ZM43 73 q9 -4 19 -8 q-1 -4 -4 -12 q-19 -56 -26 -80 l-20 7 q17 46 31 93 ZM29 205 q20 -15 42 -36 l-15 -14 q-17 18 -40 36 l13 14 ZM20 142 q2 -1 7 -5 q29 -23 35 -28 l-14 -15 q-13 13 -41 34 l13 14 Z" /><glyph glyph-name="" unicode="&#x70b9;" d="M115 209 l20 0 l0 -32 l108 0 l0 -17 l-108 0 l0 -29 l86 0 l0 -83 l-182 0 l0 83 l76 0 l0 78 ZM58 113 l0 -48 l143 0 l0 48 l-143 0 ZM58 27 q-24 -38 -34 -54 l-16 11 q15 21 32 52 l18 -9 ZM214 36 q5 -9 18 -29 q10 -14 13 -20 l-18 -10 q-2 3 -6 11 q-16 27 -24 39 l17 9 ZM95 34 q5 -13 17 -46 q2 -3 2 -4 l-19 -7 q-3 11 -12 38 q-4 9 -5 13 l17 6 ZM154 35 q15 -33 21 -48 l-18 -8 q-3 9 -14 36 q-4 10 -6 14 l17 6 Z" /><glyph glyph-name="" unicode="&#x7279;" d="M52 207 l18 0 l0 -55 l31 0 l0 -16 l-31 0 l0 -52 q14 6 27 10 q0 -1 1 -5 q1 -9 2 -12 q-6 -3 -20 -7 q-6 -3 -10 -4 l0 -94 l-18 0 l0 87 q-20 -7 -41 -15 l-4 20 q10 3 30 9 q10 3 15 5 l0 58 l-20 0 q-4 -21 -12 -41 q-7 5 -15 9 q13 37 17 81 l17 -3 q-1 -15 -4 -30 l17 0 l0 55 ZM159 208 l18 0 l0 -34 l59 0 l0 -16 l-59 0 l0 -36 l70 0 l0 -17 l-155 0 l0 17 l67 0 l0 36 l-57 0 l0 16 l57 0 l0 34 ZM97 73 l98 0 l0 26 l18 0 l0 -26 l35 0 l0 -17 l-35 0 l0 -53 q1 -29 -30 -29 q-25 0 -33 0 q0 2 -1 6 q-2 10 -3 15 q2 0 5 0 q13 -2 27 -2 q18 -1 17 13 l0 50 l-98 0 l0 17 ZM110 39 l14 11 q15 -16 30 -34 l-15 -12 q-14 18 -29 35 Z" /><glyph glyph-name="" unicode="&#x73a9;" d="M96 121 l147 0 l0 -18 l-50 0 l0 -92 q0 -14 12 -14 l11 0 q12 -1 13 12 q0 0 0 1 q3 16 3 28 q10 -4 19 -7 q0 -1 0 -4 q-2 -17 -4 -24 q-5 -25 -30 -24 l-16 0 q-28 -1 -27 30 l0 94 l-30 0 q-1 -7 -1 -13 q-1 -81 -63 -120 q-11 15 -14 17 q57 29 58 102 q0 6 1 14 l-29 0 l0 18 ZM7 23 q7 1 23 5 q8 2 12 3 l0 66 l-30 0 l0 17 l30 0 l0 57 l-32 0 l0 18 l82 0 l0 -18 l-32 0 l0 -57 l28 0 l0 -17 l-28 0 l0 -60 q17 4 33 10 q0 -4 0 -20 q-19 -5 -82 -25 l-4 21 ZM107 191 l123 0 l0 -18 l-123 0 l0 18 Z" /><glyph glyph-name="" unicode="&#x7518;" d="M9 165 l41 0 l0 40 l20 0 l0 -40 l116 0 l0 41 l20 0 l0 -41 l41 0 l0 -17 l-41 0 l0 -175 l-20 0 l0 15 l-116 0 l0 -16 l-20 0 l0 176 l-41 0 l0 17 ZM70 70 l0 -66 l116 0 l0 66 l-116 0 ZM70 148 l0 -61 l116 0 l0 61 l-116 0 Z" /><glyph glyph-name="" unicode="&#x751f;" d="M61 197 l20 -6 q-7 -18 -15 -34 l56 0 l0 52 l20 0 l0 -52 l92 0 l0 -18 l-92 0 l0 -56 l86 0 l0 -19 l-86 0 l0 -61 l106 0 l0 -17 l-239 0 l0 17 l113 0 l0 61 l-86 0 l0 19 l86 0 l0 56 l-66 0 q-14 -26 -34 -51 q-7 8 -15 15 q36 40 54 94 Z" /><glyph glyph-name="" unicode="&#x754c;" d="M163 56 l13 0 q-24 13 -42 34 l-9 0 q-20 -18 -44 -33 l14 0 q4 -62 -56 -87 q-6 7 -15 16 q57 19 52 68 q-27 -17 -57 -29 q-5 8 -11 16 q59 21 92 49 l-67 0 l0 106 l190 0 l0 -106 l-68 0 q34 -32 93 -44 q-6 -9 -9 -18 q-31 9 -57 24 l0 -80 l-19 0 l0 84 ZM137 135 l0 -30 l68 0 l0 30 l-68 0 ZM205 180 l-68 0 l0 -29 l68 0 l0 29 ZM51 180 l0 -29 l68 0 l0 29 l-68 0 ZM51 135 l0 -30 l68 0 l0 30 l-68 0 Z" /><glyph glyph-name="" unicode="&#x767e;" d="M36 143 l74 0 l6 33 l-106 0 l0 18 l236 0 l0 -18 l-110 0 l-7 -33 l92 0 l0 -170 l-20 0 l0 19 l-146 0 l0 -19 l-19 0 l0 170 ZM55 59 l0 -52 l146 0 l0 52 l-146 0 ZM55 126 l0 -50 l146 0 l0 50 l-146 0 Z" /><glyph glyph-name="" unicode="&#x7684;" d="M18 168 l24 0 q10 23 15 40 l21 -6 q-3 -6 -9 -19 q-5 -10 -7 -15 l49 0 l0 -191 l-18 0 l0 19 l-56 0 l0 -21 l-19 0 l0 193 ZM115 119 q22 37 38 89 l21 -5 q-1 -3 -3 -9 q-3 -8 -10 -26 l78 0 q-3 -123 -4 -150 q-1 -44 -49 -42 q-10 0 -25 -1 q-9 0 -12 0 q-2 12 -4 21 q3 0 11 0 q19 -1 31 -1 q28 -2 29 27 q2 30 3 128 l-65 0 q-2 -3 -5 -10 q-11 -23 -17 -32 q-7 5 -17 11 ZM37 73 l0 -61 l56 0 l0 61 l-56 0 ZM37 150 l0 -59 l56 0 l0 59 l-56 0 ZM136 102 l15 11 q28 -34 43 -55 l-18 -13 q-18 27 -40 57 Z" /><glyph glyph-name="" unicode="&#x76c6;" d="M9 -2 l29 0 l0 66 l180 0 l0 -66 l29 0 l0 -17 l-238 0 l0 17 ZM140 201 l15 9 q36 -45 94 -60 q-7 -7 -12 -17 q-18 6 -33 14 q-1 -21 -4 -37 q-1 -32 -43 -31 q-19 0 -33 0 q-1 11 -4 18 q3 0 13 0 q16 -1 23 -1 q24 -2 26 16 q1 3 2 13 q1 7 1 10 l-75 0 q-12 -49 -87 -66 q-6 12 -11 17 q68 10 79 49 l-36 0 l0 14 q-15 -9 -36 -18 q-3 5 -11 16 q-1 1 -1 1 q62 21 91 60 l15 -11 q-21 -26 -54 -45 l136 0 q-32 19 -55 49 ZM200 47 l-36 0 l0 -49 l36 0 l0 49 ZM110 47 l0 -49 l36 0 l0 49 l-36 0 ZM56 47 l0 -49 l36 0 l0 49 l-36 0 Z" /><glyph glyph-name="" unicode="&#x7801;" d="M14 185 l90 0 l0 -18 l-36 0 q-7 -31 -19 -57 l47 0 l0 -129 l-17 0 l0 16 l-31 0 l0 -19 l-17 0 l0 99 q-6 -11 -13 -20 q-4 7 -11 16 q30 42 43 94 l-36 0 l0 18 ZM144 167 l-6 -71 l57 0 l8 80 l-89 0 l0 17 l110 0 l-11 -97 l26 0 q-2 -46 -4 -84 q0 -35 -38 -35 q-13 -1 -33 -1 q-1 15 -3 20 q3 0 13 0 q14 -1 22 -1 q19 -1 21 19 q2 31 2 65 l-100 0 l7 88 l18 0 ZM48 94 l0 -82 l31 0 l0 82 l-31 0 ZM105 46 l103 0 l0 -17 l-103 0 l0 17 Z" /><glyph glyph-name="" unicode="&#x7c73;" d="M7 2 q69 38 96 91 l-93 0 l0 18 l109 0 l0 94 l19 0 l0 -94 l108 0 l0 -18 l-91 0 q33 -56 94 -85 q-6 -8 -12 -16 q-69 37 -99 98 l0 -118 l-19 0 l0 118 q-26 -61 -100 -103 q0 0 -1 1 q-6 11 -11 14 ZM31 180 l14 11 q34 -38 48 -55 l-16 -13 q-17 22 -46 57 ZM164 135 q21 21 46 55 l16 -11 q-2 -2 -5 -6 q-18 -24 -42 -51 l-15 13 Z" /><glyph glyph-name="" unicode="&#x7ef4;" d="M79 109 q33 46 53 99 l17 -6 q-4 -7 -10 -21 q-6 -12 -9 -18 l113 0 l0 -16 l-53 0 l0 -37 l51 0 l0 -17 l-51 0 l0 -36 l51 0 l0 -17 l-51 0 l0 -37 l56 0 l0 -14 l-122 0 l0 -17 l-18 0 l0 147 q-6 -10 -16 -24 q-5 8 -11 14 ZM36 62 q27 3 53 5 q-2 -9 -2 -18 q-51 -3 -69 -7 l-6 18 q7 6 15 16 q15 19 24 34 q-7 0 -19 -1 q-14 0 -20 -1 l-5 17 q3 2 11 13 q2 2 3 4 q18 29 35 66 l17 -8 q-16 -31 -46 -76 q10 1 34 1 q9 15 17 29 l17 -9 q-30 -47 -59 -83 ZM124 40 l0 -37 l49 0 l0 37 l-49 0 ZM124 93 l0 -36 l49 0 l0 36 l-49 0 ZM124 147 l0 -37 l49 0 l0 37 l-49 0 ZM7 7 q25 3 74 10 q7 1 11 1 q-2 -10 -2 -18 q-45 -3 -80 -10 l-3 17 ZM164 198 l15 10 q6 -8 16 -22 q5 -8 7 -11 l-16 -10 q-12 21 -22 33 Z" /><glyph glyph-name="" unicode="&#x811a;" d="M23 194 l58 0 l0 -194 q0 -25 -25 -25 q-10 0 -17 0 q-1 8 -3 17 q4 -1 19 -1 q10 -1 10 10 l0 55 l-26 0 q1 -50 -18 -84 q-8 8 -14 13 q17 26 16 83 l0 126 ZM175 189 l61 0 l0 -154 q2 -28 -25 -29 q-6 0 -13 0 q0 7 -2 19 q2 0 7 0 q5 -1 6 -1 q10 0 10 11 l0 138 l-27 0 l0 -201 l-17 0 l0 217 ZM89 109 l31 0 l0 43 l-27 0 l0 15 l27 0 l0 41 l17 0 l0 -41 l27 0 l0 -15 l-27 0 l0 -43 l31 0 l0 -16 l-32 0 q-12 -33 -29 -68 q16 0 38 3 q-2 6 -8 18 q-4 10 -6 15 l15 7 q16 -36 28 -68 l-17 -5 q-3 8 -6 17 q-40 -2 -62 -5 l-4 15 q14 13 33 71 l-29 0 l0 16 ZM39 117 l0 -46 l26 0 l0 46 l-26 0 ZM39 178 l0 -46 l26 0 l0 46 l-26 0 Z" /><glyph glyph-name="" unicode="&#x81ea;" d="M34 175 l66 0 q1 5 3 18 q1 10 2 15 l20 -3 q-3 -18 -6 -30 l103 0 l0 -203 l-20 0 l0 15 l-148 0 l0 -15 l-20 0 l0 203 ZM54 42 l0 -40 l148 0 l0 40 l-148 0 ZM54 100 l0 -40 l148 0 l0 40 l-148 0 ZM54 157 l0 -40 l148 0 l0 40 l-148 0 Z" /><glyph glyph-name="" unicode="&#x8282;" d="M21 115 l200 0 q0 -5 -1 -17 q-1 -33 -3 -49 q0 -46 -46 -45 q-14 0 -34 0 q-1 4 -2 13 q-2 6 -2 7 q2 0 9 0 q17 -1 27 -1 q28 -3 29 25 q1 8 2 30 q1 14 1 20 l-98 0 l0 -127 l-20 0 l0 127 l-62 0 l0 17 ZM160 207 l19 0 l0 -32 l68 0 l0 -18 l-68 0 l0 -26 l-19 0 l0 26 l-65 0 l0 -26 l-19 0 l0 26 l-67 0 l0 18 l67 0 l0 32 l19 0 l0 -32 l65 0 l0 32 Z" /><glyph glyph-name="" unicode="&#x83b7;" d="M157 141 l19 0 q0 -6 0 -17 q-1 -15 -1 -27 l69 0 l0 -17 l-68 0 q16 -70 71 -92 q-8 -9 -15 -17 q-52 30 -65 82 q-10 -49 -68 -84 q-6 8 -12 16 q62 32 68 95 l-57 0 l0 17 l58 0 q1 22 1 44 ZM5 80 q23 12 42 26 q-11 16 -26 31 l12 11 q12 -12 26 -30 q14 12 26 27 l15 -10 q-16 -18 -31 -32 q21 -37 22 -85 q0 -42 -41 -42 l-23 0 q-1 4 -2 12 q-2 6 -2 7 q14 -1 26 -1 q23 -1 23 25 q2 17 -3 36 q-16 -24 -51 -48 q-5 7 -12 15 q34 18 57 53 q-3 9 -8 17 q-23 -18 -39 -26 q-4 6 -11 14 ZM162 208 l18 0 l0 -26 l67 0 l0 -18 l-67 0 l0 -16 l-18 0 l0 16 l-67 0 l0 -16 l-18 0 l0 16 l-67 0 l0 18 l67 0 l0 26 l18 0 l0 -26 l67 0 l0 26 ZM189 130 l10 13 q18 -12 35 -24 l-10 -14 q-17 13 -35 25 Z" /><glyph glyph-name="" unicode="&#x8be5;" d="M82 36 q52 28 77 55 q-8 -1 -24 -2 q-19 -2 -27 -3 q-10 -1 -17 -4 l-9 18 q8 5 15 13 q17 18 31 42 l-49 0 l0 17 l80 0 q-1 1 -4 7 q-7 15 -12 23 l17 7 q7 -12 17 -30 l-15 -7 l83 0 l0 -17 l-94 0 q-18 -26 -38 -50 q13 1 41 3 q18 1 21 1 q12 16 23 35 l16 -9 q-43 -75 -119 -113 q-6 7 -13 14 ZM82 -14 q86 35 136 111 l16 -10 q-21 -30 -45 -53 q8 -6 24 -19 q21 -16 31 -24 l-14 -16 q-14 13 -39 34 q-10 9 -15 13 q-34 -30 -82 -52 q-4 7 -12 16 ZM79 33 q1 -5 2 -14 q1 -5 1 -7 q-5 -4 -15 -11 q-10 -7 -15 -11 q-4 -3 -11 -11 l-14 15 q9 8 8 21 l0 94 l-27 0 l0 18 l46 0 l0 -115 q13 10 25 21 ZM33 203 q21 -21 35 -37 l-16 -14 q-15 20 -33 39 l14 12 Z" /><glyph glyph-name="" unicode="&#x8bf4;" d="M226 159 l0 -94 l-40 0 l0 -55 q0 -15 15 -15 l11 0 q12 -1 14 10 q2 10 2 32 q9 -3 6 -2 q9 -4 13 -5 q0 -12 -3 -31 q-3 -21 -28 -21 l-19 0 q-29 0 -29 30 l0 57 l-26 0 q2 -68 -64 -94 q-1 1 -2 4 q-5 7 -9 13 q58 16 57 77 l-35 0 l0 94 l76 0 q1 2 4 6 q18 28 26 43 l18 -11 q-2 -3 -7 -10 q-14 -20 -21 -28 l41 0 ZM107 143 l0 -62 l101 0 l0 62 l-101 0 ZM87 48 q1 -13 3 -20 q-2 -2 -7 -6 q-24 -17 -31 -23 q-7 -6 -11 -11 l-13 14 q7 10 7 23 l0 85 l-27 0 l0 18 l46 0 l0 -107 q2 1 7 6 q17 14 26 21 ZM35 206 q9 -9 30 -32 q5 -6 7 -8 l-16 -13 q-20 26 -35 41 l14 12 ZM99 198 l13 10 q11 -12 27 -31 q2 -3 3 -4 l-16 -11 q-6 10 -27 36 Z" /><glyph glyph-name="" unicode="&#x8bf7;" d="M112 -27 l-18 0 l0 121 l133 0 l0 -92 q1 -28 -30 -27 q-22 0 -33 0 q-1 3 -2 12 q-1 4 -1 6 q4 0 13 0 q12 -1 20 -1 q16 -1 15 11 l0 12 l-97 0 l0 -42 ZM88 156 l63 0 l0 17 l-71 0 l0 14 l71 0 l0 22 l18 0 l0 -22 l74 0 l0 -14 l-74 0 l0 -17 l68 0 l0 -15 l-68 0 l0 -17 l79 0 l0 -15 l-176 0 l0 15 l79 0 l0 17 l-63 0 l0 15 ZM84 31 q0 -13 2 -21 q-3 -2 -8 -5 q-10 -6 -16 -9 q-13 -11 -18 -18 l-14 18 q9 7 9 20 l0 91 l-30 0 l0 17 l47 0 l0 -112 q5 3 18 12 q6 4 10 7 ZM112 47 l0 -17 l97 0 l0 17 l-97 0 ZM112 79 l0 -17 l97 0 l0 17 l-97 0 ZM35 200 q15 -13 35 -36 l-15 -13 q-13 17 -33 38 l13 11 Z" /><glyph glyph-name="" unicode="&#x8d5b;" d="M8 41 q40 15 69 39 l-63 0 l0 14 l69 0 l0 16 l-49 0 l0 13 l49 0 l0 15 l-44 0 l0 14 l44 0 l0 11 l17 0 l0 -11 l56 0 l0 11 l17 0 l0 -11 l44 0 l0 -14 l-44 0 l0 -15 l50 0 l0 -13 l-50 0 l0 -16 l69 0 l0 -14 l-60 0 q23 -20 66 -35 q-4 -5 -12 -15 q-24 11 -40 21 l0 -46 l-17 0 l0 43 l-101 0 l0 -45 l-17 0 l0 47 q-19 -13 -43 -24 q-2 4 -7 10 q-3 5 -3 5 ZM115 207 l19 2 q2 -9 5 -23 l99 0 l0 -39 l-17 0 l0 25 l-186 0 l0 -25 l-17 0 l0 39 l102 0 q-2 11 -5 21 ZM138 42 q0 -3 -1 -8 q0 -11 -2 -15 q12 -4 37 -13 q48 -15 59 -20 l-9 -14 q-38 16 -93 33 q-4 -4 -10 -8 q-19 -17 -85 -27 q-2 5 -9 17 q73 11 84 22 q13 8 12 33 l17 0 ZM99 80 q-5 -5 -14 -12 q-5 -4 -7 -6 l103 0 q0 0 -1 1 q-12 10 -18 17 l-63 0 ZM100 110 l0 -16 l56 0 l0 16 l-56 0 ZM100 138 l0 -15 l56 0 l0 15 l-56 0 Z" /><glyph glyph-name="" unicode="&#x8d77;" d="M9 121 l50 0 l0 34 l-41 0 l0 18 l41 0 l0 34 l19 0 l0 -34 l41 0 l0 -18 l-41 0 l0 -34 l45 0 l0 -18 l-38 0 l0 -37 l37 0 l0 -18 l-37 0 l0 -46 q17 -5 41 -5 q21 -1 64 0 q47 0 58 1 q-4 -11 -6 -19 q-40 0 -124 0 q-59 3 -80 41 q-5 -25 -19 -49 q-8 5 -15 10 q24 41 24 108 l18 -1 q-1 -25 -4 -43 q10 -22 25 -33 l0 91 l-58 0 l0 18 ZM153 56 q-2 -17 16 -15 l40 0 q13 -1 14 14 q2 12 3 30 q10 -4 18 -7 q0 -5 -2 -20 q-1 -5 -1 -7 q-1 -29 -31 -27 l-44 0 q-33 -2 -31 29 l0 74 l75 0 l0 49 l-80 0 l0 17 l99 0 l0 -84 l-76 0 l0 -53 Z" /><glyph glyph-name="" unicode="&#x8d85;" d="M9 121 l49 0 l0 35 l-40 0 l0 17 l40 0 l0 34 l18 0 l0 -34 l37 0 l0 -17 l-37 0 l0 -35 l40 0 l0 -18 l-33 0 l0 -38 l35 0 l0 -17 l-35 0 l0 -46 q18 -4 43 -5 q21 -1 64 0 q47 0 58 1 q-1 -3 -2 -8 q-2 -6 -4 -11 q-40 0 -124 0 q-58 3 -79 41 q-8 -29 -20 -49 q-5 11 -11 22 q19 33 21 95 l18 -1 q-1 -24 -4 -43 q10 -21 22 -31 l0 90 l-56 0 l0 18 ZM131 95 l101 0 l0 -79 l-101 0 l0 79 ZM119 180 l0 16 l116 0 q0 -4 -1 -15 q-1 -19 -2 -31 q-1 -38 -32 -37 q-18 -1 -28 -1 q-1 13 -3 19 q2 0 8 0 q13 -1 20 -1 q18 0 18 21 q1 18 1 29 l-46 0 q0 -48 -40 -77 q-5 8 -12 16 q35 20 35 61 l-34 0 ZM148 79 l0 -46 l67 0 l0 46 l-67 0 Z" /><glyph glyph-name="" unicode="&#x8d8a;" d="M9 120 l49 0 l0 35 l-40 0 l0 17 l40 0 l0 35 l16 0 l0 -35 l38 0 l0 -17 l-38 0 l0 -35 l41 0 l0 -17 l-34 0 l0 -38 l32 0 l0 -17 l-32 0 l0 -45 q18 -5 45 -6 q20 -1 54 0 q39 0 68 1 q-1 -3 -3 -8 q-2 -7 -3 -11 q-40 0 -124 0 q-58 2 -79 41 q-5 -25 -20 -49 q-2 2 -11 9 q-2 1 -3 2 q25 37 23 107 l17 -1 q0 -5 -1 -14 q0 -21 -2 -30 q10 -21 23 -31 l0 90 l-56 0 l0 17 ZM164 86 q1 -10 4 -18 q-8 -6 -20 -17 q-6 -6 -9 -9 q-2 -2 -6 -6 q-4 -5 -6 -7 l-12 12 q8 11 8 24 l0 97 l44 0 q-1 21 -1 46 l17 0 q0 -30 1 -46 l59 0 l0 -16 l-58 0 q2 -40 8 -65 q13 23 22 48 l16 -7 q-14 -33 -32 -61 q2 -6 8 -18 q3 -5 4 -7 q4 -5 8 -4 q4 1 5 7 q3 15 4 38 q3 -1 8 -3 q6 -2 8 -3 q0 -1 0 -3 q-1 -14 -4 -32 q-3 -23 -22 -23 q-14 0 -24 18 q-1 1 -2 3 q-3 6 -4 10 q-15 -19 -33 -38 q-1 1 -5 5 q-6 5 -8 7 q23 23 38 44 q-9 32 -12 84 l-29 0 l0 -83 q11 9 25 23 ZM196 198 l12 9 q10 -11 24 -28 l-14 -10 q-13 18 -22 29 Z" /><glyph glyph-name="" unicode="&#x8dd1;" d="M20 96 l17 0 l0 -91 q9 2 20 3 l0 112 l-33 0 l0 75 l74 0 l0 -62 q26 35 40 75 l19 -6 q-6 -12 -12 -24 l85 0 q0 -36 -2 -93 q0 -7 0 -10 q2 -53 -45 -50 q-12 -1 -26 -1 q-1 10 -4 19 q12 -1 29 -1 q30 -3 29 34 q1 29 1 85 l-76 0 q-4 -7 -12 -21 q-3 -5 -5 -8 l66 0 l0 -69 l-53 0 l0 -46 q0 -20 20 -19 l46 0 q23 -1 27 14 q3 11 6 27 q9 -4 18 -7 q0 -2 -1 -5 q-2 -7 -6 -21 q-7 -26 -38 -25 l-56 0 q-34 -1 -33 33 l0 112 q-2 -3 -6 -8 q-5 -6 -7 -9 q-1 2 -4 6 q-2 3 -4 5 l-21 0 l0 -41 l30 0 l0 -16 l-30 0 l0 -52 q17 3 31 6 q0 -11 0 -17 q-1 0 -4 0 q-57 -10 -88 -17 l-4 17 q2 1 6 1 q4 1 6 1 l0 94 ZM41 180 l0 -45 l40 0 l0 45 l-40 0 ZM132 115 l0 -36 l36 0 l0 36 l-36 0 Z" /><glyph glyph-name="" unicode="&#x8fbe;" d="M144 207 l20 0 q0 -19 -2 -57 l76 0 l0 -18 l-77 0 q-4 -28 -8 -39 l10 8 q3 -3 9 -8 q48 -46 67 -66 l-15 -15 q-43 47 -73 76 q-12 -40 -67 -77 q-5 6 -3 4 q-9 11 -10 12 q70 41 71 105 l-65 0 l0 18 l66 0 q1 20 1 57 ZM120 -5 q90 0 128 1 q0 -1 -1 -3 q-5 -12 -6 -16 q-91 0 -124 1 q-44 -2 -70 26 q-11 -7 -31 -29 l-10 20 q19 15 32 25 l0 84 l-28 0 l0 18 l47 0 l0 -102 q21 -25 63 -25 ZM37 206 q2 -3 9 -11 q20 -25 27 -34 l-17 -12 q-9 14 -34 46 l15 11 Z" /><glyph glyph-name="" unicode="&#x8fc7;" d="M184 207 l20 0 l0 -46 l41 0 l0 -18 l-41 0 l0 -97 q2 -34 -35 -34 q-23 0 -32 0 q-2 10 -5 20 q15 -1 34 -1 q19 -1 18 18 l0 94 l-99 0 l0 18 l99 0 l0 46 ZM120 -2 q25 -1 66 -1 q38 1 62 2 q0 -1 -1 -3 q-5 -12 -6 -16 q-52 0 -124 0 q-46 0 -70 27 q-19 -15 -31 -30 l-10 21 q3 2 13 9 q13 11 19 16 l0 83 l-28 0 l0 17 l47 0 l0 -100 q21 -25 63 -25 ZM90 112 l14 11 q17 -17 45 -49 l-16 -13 q-28 36 -43 51 ZM38 206 q13 -14 35 -45 l-17 -11 q-9 15 -32 46 l14 10 Z" /><glyph glyph-name="" unicode="&#x8fd0;" d="M170 89 l15 10 q25 -31 51 -70 l-19 -13 q-5 8 -11 19 q-49 -3 -98 -9 q-8 -1 -17 -4 l-9 17 q6 3 14 14 q19 29 34 60 l-52 0 l0 18 l164 0 l0 -18 l-89 0 q-16 -29 -40 -68 q11 0 40 2 q31 2 43 3 q-8 13 -24 36 q-1 2 -2 3 ZM109 -2 q18 -1 67 0 q55 0 72 1 q-4 -10 -7 -19 q-107 -1 -135 0 q-34 1 -57 27 q-21 -18 -31 -31 l-10 21 q7 5 27 22 q3 3 5 5 l0 81 l-31 0 l0 18 l51 0 l0 -102 q18 -21 49 -23 ZM94 194 l134 0 l0 -19 l-134 0 l0 19 ZM35 206 q7 -8 32 -41 q4 -4 5 -6 q-1 0 -2 -1 q-11 -6 -15 -10 q-20 29 -35 48 l15 10 Z" /><glyph glyph-name="" unicode="&#x8fdb;" d="M72 95 l42 0 q0 6 0 13 l0 39 l-31 0 l0 17 l31 0 l0 43 l19 0 l0 -43 l48 0 l0 43 l19 0 l0 -43 l37 0 l0 -17 l-37 0 l0 -52 l46 0 l0 -17 l-46 0 l0 -74 l-19 0 l0 74 l-50 0 q-2 -45 -41 -74 q-6 7 -15 15 q36 23 37 59 l-40 0 l0 17 ZM106 -4 q22 -1 73 0 q57 0 69 1 q-3 -8 -7 -19 q-14 -1 -59 0 q-52 0 -78 1 q-41 -1 -58 26 q-10 -8 -29 -31 l-10 21 q21 19 31 28 l0 81 l-29 0 l0 18 l48 0 l0 -103 q12 -23 49 -23 ZM133 109 q0 -8 -1 -14 l49 0 l0 52 l-48 0 l0 -38 ZM37 203 q15 -18 34 -46 l-17 -11 q-13 22 -32 48 l15 9 Z" /><glyph glyph-name="" unicode="&#x901a;" d="M100 164 l10 12 q32 -16 46 -24 l43 27 l-116 0 l0 16 l146 0 l0 -17 l-57 -34 l59 0 l0 -107 q1 -29 -27 -30 q-19 -1 -26 0 q0 1 -1 3 q-1 12 -3 16 q1 0 2 0 q13 -2 22 -2 q17 -1 16 17 l0 9 l-47 0 l0 -39 l-17 0 l0 39 l-46 0 l0 -42 l-17 0 l0 136 l55 0 q-12 6 -42 20 ZM106 -4 q22 -1 73 0 q57 0 69 1 q-3 -8 -7 -19 q-14 -1 -59 0 q-52 0 -78 1 q-32 0 -57 27 q-10 -8 -30 -32 l-12 17 q10 10 33 32 l0 81 l-29 0 l0 18 l48 0 l0 -100 q18 -24 49 -26 ZM167 89 l0 -24 l47 0 l0 24 l-47 0 ZM104 89 l0 -24 l46 0 l0 24 l-46 0 ZM214 129 l-47 0 l0 -25 l47 0 l0 25 ZM37 203 q15 -18 34 -46 q-8 -5 -17 -12 q-22 34 -32 48 l15 10 ZM104 129 l0 -25 l46 0 l0 25 l-46 0 Z" /><glyph glyph-name="" unicode="&#x901f;" d="M91 141 l61 0 l0 24 l-73 0 l0 16 l73 0 l0 27 l17 0 l0 -27 l76 0 l0 -16 l-76 0 l0 -24 l61 0 l0 -63 l-61 0 l0 -15 l9 11 q31 -20 66 -45 l-12 -16 q-21 18 -63 47 l0 -58 l-17 0 l0 61 q-28 -29 -68 -53 q-9 12 -13 16 q41 20 73 52 l-53 0 l0 63 ZM106 -4 q22 -1 73 0 q57 0 69 1 q-3 -8 -7 -19 q-14 -1 -59 0 q-52 0 -78 1 q-38 1 -58 26 q-10 -8 -29 -31 l-10 21 q21 19 31 28 l0 81 l-29 0 l0 18 l48 0 l0 -103 q14 -22 49 -23 ZM108 125 l0 -32 l44 0 l0 32 l-44 0 ZM212 125 l-43 0 l0 -32 l43 0 l0 32 ZM35 203 q15 -18 34 -46 q-5 -3 -16 -11 q-1 -1 -1 -1 q-22 34 -32 48 l15 10 Z" /><glyph glyph-name="" unicode="&#x9080;" d="M105 107 l9 4 l-38 0 l0 74 l26 0 q1 2 2 6 q1 5 5 18 l18 -3 q-2 -5 -6 -14 q-1 -5 -2 -7 l35 0 l0 -74 l-35 0 q5 -8 8 -17 l-9 -3 l47 0 l0 -14 l-59 0 q-1 -7 -1 -15 l49 0 q0 -8 -2 -30 q-1 -28 -29 -26 q-12 0 -19 1 q0 9 -2 16 q14 -1 20 -1 q12 0 13 11 q2 7 2 17 l-34 0 q-5 -24 -24 -44 q-1 1 -4 4 q-6 7 -8 8 q25 19 23 59 l-26 0 l0 14 l49 0 q-1 3 -4 8 q-2 6 -4 8 ZM166 101 l12 10 q5 -6 15 -21 q5 -6 7 -9 q10 27 10 70 l-23 0 q-7 -21 -19 -40 q-9 9 -12 11 q22 38 31 85 l17 -2 q-5 -22 -11 -39 l53 0 l0 -15 l-19 0 q-3 -56 -16 -86 q24 -36 31 -46 l-16 -11 q-4 7 -17 28 q-5 7 -7 11 q-14 -22 -38 -46 q-5 7 -11 16 q27 24 39 45 q-7 11 -20 30 q-4 6 -6 9 ZM106 -5 q25 -1 121 1 q19 0 21 0 q-2 -7 -7 -18 q-14 -1 -59 0 q-52 0 -78 1 q-38 0 -59 28 q-18 -17 -28 -33 l-12 17 q16 17 32 31 l0 82 l-28 0 l0 17 l45 0 l0 -98 q16 -28 52 -28 ZM35 200 q10 -16 27 -44 q-9 -4 -17 -10 q-8 16 -25 46 l15 8 ZM91 142 l0 -18 l48 0 l0 18 l-48 0 ZM91 172 l0 -18 l48 0 l0 18 l-48 0 Z" /><glyph glyph-name="" unicode="&#x90fd;" d="M148 174 q-14 -23 -34 -48 l36 0 l0 -15 l-51 0 q-7 -7 -21 -20 q-5 -5 -8 -7 l62 0 l0 -112 l-17 0 l0 15 l-61 0 l0 -15 l-18 0 l0 87 q-1 -1 -5 -3 q-4 -3 -15 -10 q-1 3 -5 8 q-3 6 -5 8 q42 24 69 49 l-66 0 l0 15 l53 0 l0 32 l-41 0 l0 16 l41 0 l0 33 l17 0 l0 -33 l35 0 l0 -16 l-35 0 l0 -32 l12 0 q26 27 42 57 l15 -9 ZM245 47 q0 -42 -36 -42 q-18 0 -25 0 q-1 9 -4 20 q10 -2 26 -2 q23 -1 22 24 q1 29 -35 60 l30 69 l-47 0 l0 -205 l-18 0 l0 222 l83 0 l0 -18 l-28 -65 q33 -28 32 -63 ZM54 27 l0 -26 l61 0 l0 26 l-61 0 ZM54 69 l0 -27 l61 0 l0 27 l-61 0 Z" /><glyph glyph-name="" unicode="&#x9669;" d="M87 47 q0 -33 -24 -35 q-7 -1 -22 -1 q0 1 -1 3 q-1 10 -3 14 l0 -56 l-17 0 l0 223 l68 0 l0 -17 l-22 -67 q21 -29 21 -64 ZM82 -2 l98 0 q17 40 32 90 l20 -6 q-4 -11 -15 -39 q-11 -30 -17 -45 l42 0 l0 -16 l-160 0 l0 16 ZM179 206 q-1 -1 -2 -3 q-2 -4 -3 -5 q33 -50 75 -71 q-3 -4 -10 -15 q-1 -1 -1 -2 q-47 28 -73 72 q-24 -38 -75 -74 q-6 7 -13 16 q56 33 83 86 l19 -4 ZM37 179 l0 -149 q10 -1 19 -1 q15 0 14 19 q0 30 -23 61 l22 70 l-32 0 ZM109 120 l109 0 l0 -17 l-109 0 l0 17 ZM95 79 l17 6 q12 -30 24 -69 l-18 -6 q-11 38 -23 69 ZM144 87 l18 4 q11 -34 17 -62 l-17 -5 q-1 5 -4 14 q-8 32 -14 49 Z" /><glyph glyph-name="" unicode="&#x98ce;" d="M51 175 l0 -67 q0 -56 -6 -83 q-5 -27 -23 -54 q-9 9 -15 16 q26 35 24 117 l0 89 l179 0 l0 -113 q0 -47 1 -60 q1 -15 6 -20 q3 -5 6 -4 q3 0 4 6 q0 2 1 5 q2 23 2 37 q8 -4 19 -7 q-2 -21 -6 -39 q-4 -22 -22 -24 q-13 0 -21 16 q-9 12 -9 90 l0 95 l-140 0 ZM66 146 l15 11 q21 -28 41 -57 q19 30 34 63 l17 -8 q-19 -39 -40 -72 q15 -20 40 -58 q6 -9 9 -14 l-17 -11 q-6 8 -17 25 q-17 27 -26 40 q-19 -30 -51 -68 q-6 4 -16 10 q24 26 56 75 q-22 33 -45 64 Z" /><glyph glyph-name="" unicode="&#x98de;" d="M228 45 q2 -1 5 -2 q3 -1 15 -6 q-3 -18 -10 -40 q-9 -21 -33 -19 q-75 4 -76 120 q-1 18 -1 74 l-120 0 l0 19 l141 0 q-1 -34 -1 -65 q36 28 66 53 l15 -15 q-14 -12 -51 -38 q-11 -8 -17 -12 q39 -18 75 -36 l-12 -19 q-39 23 -76 42 q0 -3 0 -7 q2 -83 44 -94 q23 -7 29 8 q3 10 6 30 q1 5 1 7 Z" /><glyph glyph-name="" unicode="&#x98df;" d="M125 212 l18 -5 q-2 -2 -4 -5 q47 -48 109 -67 q-7 -10 -11 -18 q-17 6 -35 17 l0 -89 l-132 0 l0 -48 q1 0 4 1 q40 5 56 9 q-2 -7 -2 -18 q-24 -4 -62 -12 q-10 -3 -17 -7 l-7 18 q10 5 10 15 l0 128 q-16 -9 -34 -17 q-5 8 -10 16 q75 32 117 82 ZM102 41 q9 -3 33 -12 q13 -5 20 -8 q2 1 6 3 q32 14 48 24 l12 -17 q-7 -3 -21 -9 q-15 -7 -22 -10 q10 -4 29 -11 q16 -5 23 -8 l-8 -19 q-57 26 -128 52 l8 15 ZM129 190 q-26 -29 -67 -53 l134 0 q-44 28 -67 53 ZM70 83 l0 -22 l115 0 l0 22 l-115 0 ZM70 121 l0 -22 l115 0 l0 22 l-115 0 ZM112 163 l17 8 q2 -4 6 -10 q6 -10 9 -15 l-18 -8 q-3 10 -14 25 Z" /><glyph glyph-name="" unicode="&#x9996;" d="M39 130 l70 0 q0 2 1 8 q2 12 3 18 l-102 0 l0 17 l75 0 q-12 17 -21 27 l16 10 q3 -4 8 -10 q7 -8 15 -18 l-14 -9 l60 0 q17 23 25 36 l17 -10 q-4 -6 -13 -17 q-5 -6 -7 -9 l74 0 l0 -17 l-113 0 q-3 -15 -6 -26 l91 0 l0 -159 l-19 0 l0 15 l-141 0 l0 -15 l-19 0 l0 159 ZM58 113 l0 -27 l141 0 l0 27 l-141 0 ZM58 28 l0 -27 l141 0 l0 27 l-141 0 ZM58 70 l0 -26 l141 0 l0 26 l-141 0 Z" /><glyph glyph-name="" unicode="&#x9ad8;" d="M49 152 l157 0 l0 -51 l-157 0 l0 51 ZM40 -27 l-18 0 l0 112 l211 0 l0 -81 q2 -29 -29 -29 q-17 0 -32 0 q-1 7 -3 15 q-1 2 -1 3 q12 0 31 0 q18 -1 16 13 l0 64 l-175 0 l0 -97 ZM73 54 l110 0 l0 -53 l-110 0 l0 53 ZM115 204 l18 4 q3 -11 7 -24 l107 0 l0 -16 l-238 0 l0 16 l111 0 q-1 3 -3 12 q-1 5 -2 8 ZM68 136 l0 -20 l120 0 l0 20 l-120 0 ZM91 39 l0 -23 l74 0 l0 23 l-74 0 Z" /><glyph glyph-name="" unicode="&#xff01;" d="M73 26 l-18 0 q-1 88 -6 175 l30 0 q-1 -20 -2 -59 q-2 -76 -4 -116 ZM77 5 l0 -28 l-25 0 l0 28 l25 0 Z" /><glyph glyph-name="" unicode="&#xff0c;" d="M52 -37 l-9 9 q18 13 19 39 l-17 0 l0 33 l33 0 q0 -8 0 -29 q0 -35 -26 -52 Z" /><glyph glyph-name="" unicode="&#xff1b;" d="M80 35 l0 -34 q0 -30 -29 -36 l0 15 q12 3 13 20 l-16 0 l0 35 l32 0 ZM48 107 l32 0 l0 -35 l-32 0 l0 35 Z" /></font>
</defs>
</svg>
