<?xml version="1.0" standalone="no"?><!DOCTYPE svg PUBLIC "-//W3C//DTD SVG 1.1//EN" "http://www.w3.org/Graphics/SVG/1.1/DTD/svg11.dtd" ><svg xmlns="http://www.w3.org/2000/svg"><metadata></metadata><defs><font id="Founder:FZLanTingHeiS-H-GB	Regular" horiz-adv-x="287"><font-face font-family="FZLanTingHeiS-H-GB" font-weight="400" font-stretch="normal" units-per-em="256" panose-1="2 0 0 0 0 0 0 0 0 0" ascent="229" descent="-91" x-height="0" bbox="0 -90 288 219" underline-thickness="12" underline-position="-79" unicode-range="U+0022-ff0c" /><missing-glyph horiz-adv-x="256" d="M65 200 l-8 -154 l-39 0 l-7 154 l54 0 ZM63 -21 l-50 0 l0 46 l50 0 l0 -46 Z" /><glyph glyph-name="" unicode="&quot;" d="M102 125 l4 80 l-40 0 l4 -80 l32 0 ZM46 125 l4 80 l-40 0 l5 -80 l31 0 Z" /><glyph glyph-name="" unicode="#" d="M176 112 l5 30 l-30 0 l11 60 l-31 0 l-11 -60 l-30 0 l11 60 l-31 0 l-11 -60 l-34 0 l-6 -30 l35 0 l-8 -45 l-32 0 l-7 -30 l33 0 l-11 -61 l32 0 l11 61 l29 0 l-11 -61 l31 0 l12 61 l31 0 l5 30 l-31 0 l8 45 l30 0 ZM85 112 l30 0 l-9 -45 l-29 0 l8 45 Z" /><glyph glyph-name="" unicode="%" d="M97 -33 l122 236 l-38 0 l-122 -236 l38 0 ZM118 145 q-1 -57 -54 -58 q-53 2 -55 57 q2 56 55 58 q53 -1 54 -57 ZM86 145 q0 31 -22 31 q-22 1 -22 -31 q0 -31 22 -31 q22 0 22 31 ZM268 26 q-1 -56 -54 -57 q-53 2 -55 56 q2 56 55 58 q53 -1 54 -57 ZM236 26 q0 30 -22 30 q-22 1 -21 -30 q0 -30 21 -30 q22 0 22 30 Z" /><glyph glyph-name="" unicode="(" d="M96 -48 l-38 0 q-48 55 -48 130 q1 76 48 134 l38 0 q-43 -59 -43 -134 q0 -72 43 -130 Z" /><glyph glyph-name="" unicode=")" d="M48 -48 l-39 0 q44 57 44 130 q0 73 -43 134 l38 0 q49 -59 48 -134 q0 -76 -48 -130 Z" /><glyph glyph-name="" unicode="+" d="M165 72 l-61 0 l0 -61 l-32 0 l0 61 l-62 0 l0 32 l62 0 l0 61 l32 0 l0 -61 l61 0 l0 -32 Z" /><glyph glyph-name="" unicode="," d="M17 -81 l-12 18 q30 16 31 42 l-27 0 l0 50 l52 0 q0 -13 0 -43 q3 -45 -44 -67 Z" /><glyph glyph-name="" unicode="-" d="M148 71 l-140 0 l0 35 l140 0 l0 -35 Z" /><glyph glyph-name="" unicode="." d="M62 -21 l-52 0 l0 50 l52 0 l0 -50 Z" /><glyph glyph-name="" unicode="/" d="M88 213 l-51 -257 l-35 0 l51 257 l35 0 Z" /><glyph glyph-name="" unicode="0" d="M179 88 q2 -115 -85 -112 q-84 2 -85 112 q3 112 85 116 q84 -2 85 -116 ZM127 88 q1 81 -32 78 q-34 1 -34 -78 q0 -77 34 -77 q33 0 32 77 Z" /><glyph glyph-name="" unicode="1" d="M126 -21 l-49 0 l0 153 q-31 -23 -70 -35 l0 41 q55 22 81 62 l38 0 l0 -221 Z" /><glyph glyph-name="" unicode="2" d="M67 18 l105 0 l0 -39 l-163 0 l0 29 q28 42 65 69 q52 39 48 58 q-1 29 -30 29 q-30 1 -37 -38 l-45 10 q12 66 89 66 q69 -2 74 -62 q5 -41 -49 -74 q-33 -22 -57 -48 Z" /><glyph glyph-name="" unicode="3" d="M10 32 l50 11 q6 -33 37 -33 q31 1 32 32 q0 31 -48 31 l-20 0 l0 37 l19 0 q44 0 44 29 q-1 28 -28 28 q-28 -2 -35 -32 l-47 9 q15 58 86 59 q69 -2 74 -57 q1 -41 -47 -53 q48 -8 52 -54 q-4 -61 -85 -63 q-68 -3 -84 56 Z" /><glyph glyph-name="" unicode="4" d="M184 25 l-27 0 l0 -46 l-43 0 l0 46 l-108 0 l0 31 l104 144 l47 0 l0 -140 l27 0 l0 -35 ZM115 153 q-3 -7 -9 -16 l-54 -77 l62 0 l0 70 q0 15 1 23 Z" /><glyph glyph-name="" unicode="5" d="M9 34 l49 10 q7 -33 36 -34 q32 3 34 38 q-1 37 -36 38 q-20 -1 -34 -13 l-40 0 l8 125 l138 0 l0 -40 l-97 0 l-5 -51 q20 13 43 13 q69 -2 72 -70 q-2 -72 -83 -74 q-68 0 -85 58 Z" /><glyph glyph-name="" unicode="6" d="M173 148 l-46 -7 q-6 27 -30 26 q-39 1 -40 -70 q17 23 50 24 q65 -4 71 -70 q-4 -72 -81 -75 q-90 -3 -88 113 q3 112 87 115 q62 0 77 -56 ZM131 48 q-2 34 -36 36 q-34 -1 -36 -34 q2 -37 38 -39 q31 3 34 37 Z" /><glyph glyph-name="" unicode="7" d="M94 -20 l-50 0 q10 92 72 177 l-109 0 l0 40 l163 0 l0 -36 q-69 -85 -76 -181 Z" /><glyph glyph-name="" unicode="8" d="M57 93 q-40 11 -41 51 q6 57 79 60 q73 -3 79 -59 q1 -40 -46 -51 l0 -1 q50 -9 52 -53 q-1 -64 -90 -64 q-78 2 -81 61 q2 43 48 56 ZM124 142 q-1 25 -29 26 q-28 -1 -29 -26 q-1 -22 29 -30 q30 8 29 30 ZM130 39 q1 27 -37 36 q-34 -9 -34 -36 q2 -28 35 -30 q35 1 36 30 Z" /><glyph glyph-name="" unicode="9" d="M13 29 l45 8 q6 -26 31 -26 q38 -1 40 70 q-17 -23 -50 -24 q-67 3 -70 69 q5 74 82 78 q89 3 86 -113 q0 -115 -89 -115 q-64 -1 -75 53 ZM127 127 q-1 38 -37 39 q-32 -2 -34 -37 q1 -34 35 -36 q35 1 36 34 Z" /><glyph glyph-name="" unicode=":" d="M65 85 l-52 0 l0 52 l52 0 l0 -52 ZM65 -21 l-52 0 l0 50 l52 0 l0 -50 Z" /><glyph glyph-name="" unicode=";" d="M66 85 l-51 0 l0 52 l51 0 l0 -52 ZM23 -81 l-12 18 q30 16 31 42 l-27 0 l0 50 l51 0 q0 -13 0 -44 q3 -44 -43 -66 Z" /><glyph glyph-name="" unicode="=" d="M11 107 l155 0 l0 32 l-155 0 l0 -32 ZM11 38 l155 0 l0 32 l-155 0 l0 -32 Z" /><glyph glyph-name="" unicode="a" d="M225 -21 l-55 0 l-16 48 l-84 0 l-16 -48 l-54 0 l82 220 l60 0 l83 -220 ZM145 65 l-28 76 q-3 10 -5 19 l-1 0 q-1 -11 -5 -20 l-25 -75 l64 0 Z" /><glyph glyph-name="" unicode="e" d="M191 -21 l-173 0 l0 220 l170 0 l0 -41 l-120 0 l0 -47 l112 0 l0 -41 l-112 0 l0 -52 l123 0 l0 -39 Z" /><glyph glyph-name="" unicode="l" d="M180 -21 l-163 0 l0 220 l50 0 l0 -181 l113 0 l0 -39 Z" /><glyph glyph-name="" unicode="n" d="M213 -21 l-51 0 l-87 138 q-6 10 -12 20 q1 -14 1 -37 l0 -121 l-47 0 l0 220 l54 0 l84 -135 q1 -2 3 -5 q7 -11 9 -17 l0 1 q-1 11 -1 33 l0 123 l47 0 l0 -220 Z" /><glyph glyph-name="" unicode="s" d="M9 48 l49 10 q6 -46 50 -46 q33 1 35 27 q1 18 -23 28 q-25 9 -44 12 q-61 13 -59 64 q6 55 81 59 q79 2 92 -62 l-49 -9 q-5 32 -41 32 q-29 -1 -31 -21 q-2 -18 39 -27 q32 -7 52 -18 q35 -20 36 -56 q-3 -64 -87 -66 q-84 -1 -100 73 Z" /><glyph glyph-name="" unicode="t" d="M204 158 l-71 0 l0 -179 l-51 0 l0 179 l-72 0 l0 41 l194 0 l0 -41 Z" /><glyph glyph-name="" unicode="u" d="M17 73 l0 126 l50 0 l0 -126 q1 -55 50 -56 q47 0 47 56 l0 126 l51 0 l0 -124 q0 -100 -101 -100 q-96 0 -97 98 Z" /><glyph glyph-name="" unicode="w" d="M288 199 l-48 -220 l-56 0 l-34 141 q-3 11 -4 25 q-1 -16 -4 -25 l-36 -141 l-58 0 l-48 220 l51 0 l25 -147 q1 -5 2 -19 q0 3 1 -7 l1 0 q1 12 4 26 l34 147 l53 0 l36 -149 q0 -2 1 -6 q2 -11 2 -18 l1 0 q2 15 3 25 l24 148 l50 0 Z" /><glyph glyph-name="" unicode="[" d="M95 -44 l-84 0 l0 257 l84 0 l0 -31 l-44 0 l0 -195 l44 0 l0 -31 Z" /><glyph glyph-name="" unicode="]" d="M8 -44 l0 31 l44 0 l0 195 l-44 0 l0 31 l84 0 l0 -257 l-84 0 Z" /><glyph glyph-name="" unicode="a" d="M182 -20 l-46 0 q-7 12 -7 23 q-22 -26 -68 -27 q-48 3 -51 44 q-1 43 58 52 q43 7 58 15 q3 21 -31 20 q-27 0 -35 -20 l-45 6 q13 48 79 47 q84 3 80 -68 l0 -60 q0 -21 8 -32 ZM130 51 l0 9 q-15 -9 -42 -14 q-32 -7 -32 -22 q-1 -16 25 -16 q44 3 49 43 Z" /><glyph glyph-name="" unicode="b" d="M66 0 l0 -20 l-49 0 l0 234 l49 0 l0 -100 q16 26 52 26 q62 -3 64 -78 q0 -86 -69 -86 q-31 0 -47 24 ZM66 63 l0 -13 q1 -37 32 -38 q34 -1 34 49 q-2 40 -33 42 q-32 -1 -33 -40 Z" /><glyph glyph-name="" unicode="c" d="M181 87 l-49 -7 q-10 21 -32 23 q-38 -2 -40 -47 q0 -44 40 -44 q28 2 32 28 l52 -6 q-18 -60 -86 -58 q-86 1 -88 82 q3 80 89 82 q61 -2 82 -53 Z" /><glyph glyph-name="" unicode="d" d="M174 -20 l-49 0 l0 20 q-12 -24 -49 -24 q-63 4 -66 78 q-1 87 72 86 q31 -2 43 -26 l0 100 l49 0 l0 -234 ZM126 58 l0 8 q-2 35 -32 37 q-34 -1 -35 -46 q1 -44 34 -45 q33 0 33 46 Z" /><glyph glyph-name="" unicode="e" d="M182 55 l0 -12 l-123 0 q3 -32 40 -35 q27 1 34 20 l52 -6 q-19 -46 -85 -46 q-86 3 -90 78 q3 83 84 86 q87 0 88 -85 ZM58 74 l77 0 q-3 31 -38 34 q-36 -2 -39 -34 Z" /><glyph glyph-name="" unicode="f" d="M136 210 l-14 -35 q-9 4 -18 4 q-21 0 -21 -22 l0 -21 l35 0 l0 -36 l-35 0 l0 -121 l-48 0 l0 121 l-26 0 l0 36 l26 0 l0 20 q-2 63 59 60 q25 0 42 -6 Z" /><glyph glyph-name="" unicode="g" d="M13 -23 l53 -5 q2 -21 29 -21 q30 1 31 39 l-1 21 q-15 -25 -49 -25 q-64 3 -66 77 q1 77 70 78 q32 -1 45 -23 l0 19 l49 0 l0 -133 q5 -94 -86 -89 q-70 1 -75 62 ZM126 62 l0 6 q-1 34 -32 35 q-34 -1 -35 -38 q1 -42 34 -44 q33 0 33 41 Z" /><glyph glyph-name="" unicode="h" d="M174 -20 l-49 0 l0 88 q0 35 -29 35 q-29 -3 -31 -37 l0 -86 l-48 0 l0 233 l48 0 l0 -100 q21 26 51 27 q59 1 58 -64 l0 -96 Z" /><glyph glyph-name="" unicode="i" d="M66 159 l-50 0 l0 40 l50 0 l0 -40 ZM66 -21 l-50 0 l0 157 l50 0 l0 -157 Z" /><glyph glyph-name="" unicode="k" d="M191 -20 l-58 0 l-42 65 l-26 -25 l0 -40 l-48 0 l0 233 l48 0 l0 -139 l61 63 l61 0 l-64 -62 l68 -95 Z" /><glyph glyph-name="" unicode="l" d="M65 -20 l-49 0 l0 233 l49 0 l0 -233 Z" /><glyph glyph-name="" unicode="m" d="M269 -20 l-49 0 l0 88 q1 36 -26 35 q-28 0 -28 -36 l0 -87 l-49 0 l0 90 q1 34 -26 33 q-27 -1 -28 -37 l0 -86 l-48 0 l0 156 l48 0 l0 -24 q17 29 53 29 q34 0 46 -30 q19 30 55 30 q52 0 52 -64 l0 -97 Z" /><glyph glyph-name="" unicode="n" d="M172 -20 l-49 0 l0 88 q1 36 -29 35 q-29 -2 -31 -37 l0 -86 l-49 0 l0 157 l49 0 l0 -24 q19 25 51 27 q59 1 58 -64 l0 -96 Z" /><glyph glyph-name="" unicode="o" d="M181 57 q-3 -78 -86 -81 q-82 5 -86 81 q4 80 87 83 q82 -3 85 -83 ZM131 57 q-1 45 -37 46 q-35 0 -35 -46 q1 -44 35 -45 q37 0 37 45 Z" /><glyph glyph-name="" unicode="p" d="M65 -2 l0 -79 l-48 0 l0 218 l48 0 l0 -24 q17 26 54 27 q59 -3 62 -78 q0 -86 -69 -86 q-31 1 -47 22 ZM65 61 l0 -11 q1 -37 32 -38 q34 0 34 49 q-1 41 -32 42 q-34 0 -34 -42 Z" /><glyph glyph-name="" unicode="q" d="M174 -81 l-49 0 l0 79 q-16 -21 -49 -22 q-63 4 -66 78 q1 87 70 86 q30 -2 45 -27 l0 24 l49 0 l0 -218 ZM126 55 l0 10 q-1 37 -35 38 q-31 -1 -31 -48 q0 -42 32 -43 q34 0 34 43 Z" /><glyph glyph-name="" unicode="r" d="M132 133 l-16 -41 q-10 6 -20 6 q-32 -1 -33 -40 l0 -78 l-48 0 l0 157 l48 0 l0 -29 q13 33 42 33 q13 0 27 -8 Z" /><glyph glyph-name="" unicode="s" d="M9 24 l49 5 q5 -21 33 -21 q27 0 27 17 q2 11 -32 17 q-5 2 -17 5 q-12 3 -18 4 q-36 11 -37 41 q1 48 69 49 q64 2 78 -43 l-50 -5 q-3 16 -25 16 q-20 -1 -21 -15 q-1 -11 21 -15 q6 -1 20 -5 q10 -3 16 -4 q47 -10 44 -47 q0 -47 -71 -47 q-78 -4 -86 48 Z" /><glyph glyph-name="" unicode="t" d="M30 25 l0 76 l-25 0 l0 36 l25 0 l0 54 l48 9 l0 -63 l38 0 l0 -36 l-38 0 l0 -65 q0 -25 19 -24 q7 0 14 4 l10 -31 q-14 -9 -40 -9 q-52 -1 -51 49 Z" /><glyph glyph-name="" unicode="u" d="M173 -20 l-49 0 l0 22 q-18 -26 -49 -26 q-59 1 -60 65 l0 96 l48 0 l0 -92 q0 -34 31 -33 q28 2 30 37 l0 88 l49 0 l0 -157 Z" /><glyph glyph-name="" unicode="v" d="M176 137 l-61 -157 l-55 0 l-59 157 l51 0 l30 -99 q4 -13 6 -27 l1 0 q2 11 6 27 l29 99 l52 0 Z" /><glyph glyph-name="" unicode="w" d="M271 137 l-55 -157 l-53 0 l-25 93 q0 1 0 3 q-2 10 -2 18 l-1 0 q0 -13 -2 -21 l-28 -93 l-50 0 l-55 157 l51 0 l28 -104 q0 -1 1 -5 q1 -8 1 -12 l1 0 q0 4 1 12 q1 4 1 5 l27 104 l48 0 l27 -104 q1 -3 3 -18 l1 0 q2 15 3 18 l27 104 l51 0 Z" /><glyph glyph-name="" unicode="x" d="M187 -20 l-55 0 l-38 60 l-39 -60 l-55 0 l60 79 l-55 78 l52 0 l37 -60 l37 60 l52 0 l-56 -78 l60 -79 Z" /><glyph glyph-name="" unicode="y" d="M174 137 l-65 -163 q-23 -64 -70 -60 q-14 0 -28 4 l-4 38 q14 -6 24 -6 q19 -1 27 15 l8 19 l-66 153 l53 0 l31 -93 q3 -11 5 -21 l1 0 q1 5 3 14 q1 5 2 7 l28 93 l51 0 Z" /><glyph glyph-name="" unicode="{" d="M37 5 l0 36 q-1 28 -27 29 l0 27 q27 1 27 29 l0 34 q0 30 15 44 q15 12 60 12 l0 -27 q-34 -1 -35 -27 l0 -32 q1 -37 -26 -46 l0 -1 q27 -10 26 -47 l0 -31 q0 -14 6 -19 q8 -7 29 -7 l0 -27 q-45 0 -60 12 q-15 12 -15 41 Z" /><glyph glyph-name="" unicode="}" d="M84 42 l0 -37 q0 -28 -15 -41 q-15 -12 -60 -12 l0 27 q21 0 29 7 q6 6 6 20 l0 31 q-1 37 26 46 l0 1 q-27 9 -26 46 l0 32 q-2 27 -35 28 l0 26 q45 0 60 -12 q15 -13 15 -44 l0 -34 q1 -29 27 -30 l0 -26 q-27 0 -27 -28 Z" /><glyph glyph-name="" unicode="~" d="M9 58 l0 42 q21 21 48 20 q19 1 38 -11 q18 -9 35 -9 q20 0 40 19 l0 -42 q-16 -19 -44 -19 q-16 0 -38 10 q-22 11 -37 11 q-22 0 -42 -21 Z" /><glyph glyph-name="" unicode="&#x4e0b;" d="M9 197 l238 0 l0 -41 l-105 0 l0 -48 l19 22 q43 -30 80 -59 l-29 -35 q-39 33 -70 56 l0 -119 l-46 0 l0 183 l-87 0 l0 41 Z" /><glyph glyph-name="" unicode="&#x4e16;" d="M9 159 l23 0 l0 41 l41 0 l0 -41 l29 0 l0 51 l40 0 l0 -51 l37 0 l0 51 l41 0 l0 -51 l27 0 l0 -38 l-27 0 l0 -79 l-118 0 l0 79 l-29 0 l0 -104 l172 0 l0 -36 l-213 0 l0 140 l-23 0 l0 38 ZM142 79 l37 0 l0 42 l-37 0 l0 -42 Z" /><glyph glyph-name="" unicode="&#x4e32;" d="M107 210 l42 0 l0 -23 l79 0 l0 -81 l-79 0 l0 -15 l91 0 l0 -92 l-40 0 l0 9 l-51 0 l0 -37 l-42 0 l0 37 l-50 0 l0 -9 l-40 0 l0 92 l90 0 l0 15 l-79 0 l0 81 l79 0 l0 23 ZM200 59 l-51 0 l0 -18 l51 0 l0 18 ZM57 59 l0 -18 l50 0 l0 18 l-50 0 ZM188 138 l0 17 l-39 0 l0 -17 l39 0 ZM68 155 l0 -17 l39 0 l0 17 l-39 0 Z" /><glyph glyph-name="" unicode="&#x4e86;" d="M111 115 l70 48 l-164 0 l0 37 l221 0 l0 -44 l-83 -58 l0 -81 q2 -42 -40 -41 q-17 -1 -56 -1 q-3 21 -8 40 q8 -1 43 -1 q19 -2 17 18 l0 83 Z" /><glyph glyph-name="" unicode="&#x4ea4;" d="M11 183 l95 0 q-2 9 -7 24 l50 3 q1 -3 3 -11 q2 -11 4 -16 l89 0 l0 -39 l-63 0 q31 -16 66 -38 l-25 -37 q-23 17 -72 48 q-5 2 -7 4 l20 23 l-72 0 l22 -23 q-37 -28 -84 -54 q-11 18 -24 35 q44 21 72 42 l-67 0 l0 39 ZM94 96 q21 -29 34 -39 q16 16 29 40 l39 -18 q-18 -31 -33 -46 q27 -16 87 -23 q-7 -11 -19 -33 q-2 -5 -3 -7 q-61 12 -100 34 q-35 -19 -102 -35 q-4 10 -11 25 q-5 9 -7 15 q52 9 84 24 q-17 18 -35 44 l37 19 Z" /><glyph glyph-name="" unicode="&#x4eba;" d="M104 209 l44 0 q-1 -19 -2 -37 q3 -116 104 -158 q-5 -6 -15 -17 q-11 -15 -17 -22 q-70 38 -90 105 q-16 -62 -95 -108 q-16 25 -27 37 q96 48 96 143 q2 24 2 57 Z" /><glyph glyph-name="" unicode="&#x4eca;" d="M220 83 l0 -36 q-24 -30 -72 -79 l-35 21 q13 12 40 41 q9 11 13 15 l-134 0 l0 38 l92 0 q-13 18 -31 38 l30 22 q14 -14 36 -38 l-29 -22 l90 0 ZM21 89 q-2 7 -8 20 q-5 13 -8 19 q77 38 106 83 l49 -2 q-3 -6 -7 -11 q38 -41 99 -67 q-14 -28 -19 -40 q-71 37 -103 78 q-41 -45 -109 -80 Z" /><glyph glyph-name="" unicode="&#x5019;" d="M106 62 l52 0 q0 8 1 18 l-18 0 q-4 -8 -13 -18 q-5 4 -19 11 q-5 3 -7 4 l0 -67 l-32 0 l0 166 l32 0 l0 -94 q19 20 22 42 l34 -2 q0 -2 -1 -5 q-1 -4 -2 -6 l85 0 l0 -31 l-45 0 q0 -10 0 -18 l53 0 l0 -32 l-45 0 q16 -18 49 -27 q-11 -16 -20 -31 q-37 14 -53 37 q-13 -21 -68 -40 q-9 17 -19 31 q51 13 60 30 l-46 0 l0 32 ZM60 -28 l-35 0 l0 103 q-2 -4 -6 -11 q-5 -8 -7 -12 q-1 9 -3 29 q-3 21 -4 29 q19 40 32 101 l38 -6 q-6 -27 -15 -52 l0 -181 ZM115 202 l113 0 l-3 -45 l22 0 l0 -31 l-141 0 l0 31 l83 0 l1 14 l-75 0 l0 31 Z" /><glyph glyph-name="" unicode="&#x5144;" d="M226 73 l-50 0 l0 -47 q-1 -13 9 -12 l9 0 q10 -1 12 12 q2 14 3 35 q22 -8 40 -15 q-1 -18 -6 -40 q-5 -31 -43 -29 l-30 0 q-39 -1 -37 37 l0 59 l-23 0 q2 -67 -78 -103 q-11 17 -26 34 q37 18 48 31 q12 13 13 38 l-40 0 l0 126 l199 0 l0 -126 ZM182 111 l0 50 l-112 0 l0 -50 l112 0 Z" /><glyph glyph-name="" unicode="&#x51c6;" d="M122 -28 l-39 0 l0 125 q-3 -3 -9 -11 q-3 -4 -5 -6 q-5 -18 -15 -60 q-6 -23 -9 -35 l-39 13 q9 29 25 99 l35 -10 q-3 18 -6 32 l-26 -9 q-10 35 -25 78 l37 11 q0 -1 1 -3 q14 -38 20 -59 q22 33 35 76 l42 -7 q-6 -19 -14 -35 l34 0 q-5 16 -11 33 l41 3 q1 -4 4 -12 q5 -15 8 -24 l40 0 l0 -33 l-47 0 l0 -19 l44 0 l0 -32 l-44 0 l0 -20 l44 0 l0 -32 l-44 0 l0 -20 l50 0 l0 -30 l-127 0 l0 -13 ZM122 35 l0 -20 l37 0 l0 20 l-37 0 ZM122 87 l0 -20 l37 0 l0 20 l-37 0 ZM122 138 l0 -19 l37 0 l0 19 l-37 0 Z" /><glyph glyph-name="" unicode="&#x51fa;" d="M198 -28 l0 11 l-182 0 l0 93 l41 0 l0 -56 l49 0 l0 74 l-79 0 l0 95 l41 0 l0 -57 l38 0 l0 79 l44 0 l0 -79 l38 0 l0 57 l41 0 l0 -95 l-79 0 l0 -74 l48 0 l0 56 l41 0 l0 -104 l-41 0 Z" /><glyph glyph-name="" unicode="&#x51fb;" d="M20 179 l86 0 l0 31 l43 0 l0 -31 l87 0 l0 -37 l-87 0 l0 -26 l100 0 l0 -38 l-100 0 l0 -61 l45 0 l0 48 l40 0 l0 -92 l-40 0 l0 9 l-172 0 l0 81 l40 0 l0 -46 l44 0 l0 61 l-99 0 l0 38 l99 0 l0 26 l-86 0 l0 37 Z" /><glyph glyph-name="" unicode="&#x5236;" d="M23 202 l33 -4 q-2 -9 -4 -18 l13 0 l0 30 l36 0 l0 -30 l44 0 l0 -34 l-44 0 l0 -16 l51 0 l0 -34 l-51 0 l0 -17 l49 0 l0 -64 q0 -26 -20 -28 q-5 -1 -23 -1 q-1 4 -3 13 q-2 8 -3 12 l0 -40 l-36 0 l0 76 l-15 0 l0 -61 l-34 0 l0 93 l49 0 l0 17 l-58 0 l0 34 l58 0 l0 16 l-22 0 q-1 -3 -3 -9 q-1 -4 -2 -7 q-16 6 -32 10 q9 28 17 62 ZM205 210 l36 0 l0 -196 q2 -38 -33 -39 q-11 -1 -37 -1 q-4 26 -7 35 q18 0 28 0 q14 -1 13 14 l0 187 ZM193 31 l-34 0 l0 153 l34 0 l0 -153 ZM116 47 l-15 0 l0 -32 l9 0 q6 -1 6 7 l0 25 Z" /><glyph glyph-name="" unicode="&#x52a8;" d="M182 211 q0 -24 -1 -46 l60 0 q0 -74 -2 -153 q-1 -33 -31 -35 q-4 0 -17 0 q-16 -1 -22 -1 q-1 3 -2 10 q-3 16 -5 24 q-6 -12 -26 -41 q-15 10 -36 22 q1 1 4 4 q5 5 8 7 q-9 -1 -26 -2 q-9 0 -36 -2 q-14 -1 -30 -6 l-14 32 q5 4 11 16 q15 34 21 59 l-31 0 l0 35 l117 0 l0 -35 l-46 0 q-13 -39 -25 -66 q4 1 17 1 q11 1 17 1 q-7 23 -15 45 l31 10 q5 -13 18 -47 q4 -12 6 -18 q16 24 16 104 l-17 0 l0 36 l18 0 q0 27 1 46 l37 0 ZM116 161 l-97 0 l0 36 l97 0 l0 -36 ZM202 129 l-22 0 q-1 -82 -17 -116 q12 0 24 0 q13 0 13 13 q2 45 2 103 Z" /><glyph glyph-name="" unicode="&#x5305;" d="M61 211 l46 -3 q-4 -9 -9 -18 l130 0 q0 -46 -2 -111 q0 -19 -7 -31 q2 -1 7 -2 q9 -3 24 -6 q-3 -23 -7 -36 q-5 -28 -46 -27 l-116 0 q-51 -2 -49 48 l0 86 q-7 -7 -14 -13 q-2 10 -7 27 q-3 11 -5 17 q38 30 55 69 ZM149 34 q-1 4 -3 10 l-75 0 l0 -14 q-2 -21 22 -19 l94 0 q17 -1 19 15 q2 5 3 13 q-7 -4 -21 -5 q-19 0 -39 0 ZM188 153 l-115 0 q-3 -4 -9 -12 q-3 -3 -5 -5 l101 0 l0 -64 l14 0 q14 -1 13 12 q1 21 1 69 ZM71 102 l0 -24 l50 0 l0 24 l-50 0 Z" /><glyph glyph-name="" unicode="&#x5355;" d="M205 201 q-9 -12 -18 -26 l45 0 l0 -125 l-83 0 l0 -14 l100 0 l0 -36 l-100 0 l0 -29 l-42 0 l0 29 l-100 0 l0 36 l100 0 l0 14 l-83 0 l0 125 l46 0 q-3 5 -11 16 q-3 3 -4 5 l36 16 q7 -7 19 -23 q3 -3 4 -5 l-19 -9 l46 0 q13 20 22 37 l42 -11 ZM191 142 l-42 0 l0 -16 l42 0 l0 16 ZM149 83 l42 0 l0 16 l-42 0 l0 -16 ZM65 83 l42 0 l0 16 l-42 0 l0 -16 ZM65 142 l0 -16 l42 0 l0 16 l-42 0 Z" /><glyph glyph-name="" unicode="&#x535a;" d="M186 60 l19 0 l0 6 l-26 0 l0 -9 l-37 0 l0 9 l-26 0 l0 -10 l-35 0 l0 100 l61 0 l0 9 l-68 0 l0 29 l68 0 l0 17 l37 0 l0 -17 l16 0 l-4 13 l36 3 l6 -16 l15 0 l0 -29 l-69 0 l0 -9 l61 0 l0 -98 l-16 0 l0 -8 l25 0 l0 -29 l-25 0 l0 -12 q2 -35 -35 -35 q-13 -1 -35 -1 q-3 15 -9 31 q17 0 28 0 q14 -1 13 14 l0 3 l-66 0 q2 -1 6 -4 q5 -4 18 -13 l-26 -25 q-13 13 -34 27 l15 15 l-30 0 l0 29 l117 0 l0 10 ZM7 148 l17 0 l0 63 l37 0 l0 -63 l15 0 l0 -37 l-15 0 l0 -139 l-37 0 l0 139 l-17 0 l0 37 ZM205 130 l-26 0 l0 -9 l26 0 l0 9 ZM179 98 l0 -10 l26 0 l0 10 l-26 0 ZM116 130 l0 -9 l26 0 l0 9 l-26 0 ZM116 98 l0 -10 l26 0 l0 10 l-26 0 Z" /><glyph glyph-name="" unicode="&#x53f3;" d="M52 -29 l0 81 q-14 -15 -32 -30 q-1 4 -4 13 q-7 20 -10 29 q48 42 70 79 l-60 0 l0 37 l78 0 q6 15 10 31 l44 -3 q-4 -15 -10 -28 l109 0 l0 -37 l-126 0 q-9 -18 -21 -35 l127 0 l0 -137 l-40 0 l0 14 l-94 0 l0 -14 l-41 0 ZM93 71 l0 -52 l94 0 l0 52 l-94 0 Z" /><glyph glyph-name="" unicode="&#x5427;" d="M215 58 q23 -9 36 -12 q-5 -30 -8 -43 q-8 -26 -45 -25 l-56 0 q-40 -1 -39 39 l0 183 l135 0 l0 -133 l-98 0 l0 -42 q0 -14 14 -14 l41 0 q14 0 15 14 q4 14 5 33 ZM14 195 l78 0 l0 -200 l-32 0 l0 14 l-12 0 l0 -18 l-34 0 l0 204 ZM48 159 l0 -115 l12 0 l0 115 l-12 0 ZM140 165 l0 -63 l14 0 l0 63 l-14 0 ZM202 165 l-14 0 l0 -63 l14 0 l0 63 Z" /><glyph glyph-name="" unicode="&#x5458;" d="M35 201 l187 0 l0 -81 l-187 0 l0 81 ZM24 23 l0 85 l209 0 l0 -80 l-42 0 l0 45 l-125 0 l0 -50 l-42 0 ZM109 64 l43 0 q-1 -15 -6 -29 q31 -8 81 -23 q15 -4 22 -6 l-17 -36 q-44 16 -104 33 q-20 -22 -106 -33 q-2 4 -4 11 q-7 17 -12 26 q85 6 96 28 q7 9 7 29 ZM181 153 l0 15 l-105 0 l0 -15 l105 0 Z" /><glyph glyph-name="" unicode="&#x548c;" d="M129 -20 l0 211 l110 0 l0 -208 l-39 0 l0 19 l-33 0 l0 -22 l-38 0 ZM10 198 q4 0 13 1 q64 3 89 6 l7 -35 q-4 0 -11 -1 q-15 -2 -23 -2 l0 -25 l35 0 l0 -37 l-35 0 l0 -27 l10 11 q7 -6 22 -19 q9 -7 12 -10 l-23 -30 q-6 7 -21 22 l0 -79 l-38 0 l0 78 q-12 -24 -31 -46 q-4 22 -11 45 q21 22 35 55 l-31 0 l0 37 l38 0 l0 22 q-5 0 -16 -1 q-10 0 -16 -1 q-1 12 -4 32 q0 -2 -1 4 ZM167 156 l0 -118 l33 0 l0 118 l-33 0 Z" /><glyph glyph-name="" unicode="&#x5566;" d="M92 171 l13 0 l0 38 l34 0 l0 -38 l11 0 l0 -35 l-11 0 l0 -33 q3 1 7 2 q5 1 7 1 q0 -21 0 -38 q-1 0 -5 -1 q-5 -2 -9 -3 l0 -61 q0 -26 -25 -29 q-4 0 -12 0 q-9 -1 -15 -1 q-4 20 -7 31 l-33 0 l0 -17 l-32 0 l0 207 l72 0 l0 -185 l8 0 q10 0 10 10 l0 35 q-4 -2 -12 -3 q-1 -1 -2 -1 l-2 42 q7 2 16 3 l0 41 l-13 0 l0 35 ZM212 125 l34 -6 q-4 -20 -12 -58 q-7 -32 -10 -48 l25 0 l0 -34 l-102 0 l0 34 l46 0 q2 9 3 18 l-28 -5 q-3 20 -9 62 q-3 20 -5 31 l31 5 q2 -13 7 -41 q4 -27 6 -41 q1 9 4 25 q7 37 10 58 ZM174 206 l40 3 q3 -20 6 -38 l26 0 l0 -36 l-91 0 l0 36 l26 0 q0 2 -1 5 q-2 12 -6 30 ZM47 160 l0 -122 l11 0 l0 122 l-11 0 Z" /><glyph glyph-name="" unicode="&#x56fd;" d="M15 -29 l0 232 l226 0 l0 -232 l-42 0 l0 11 l-143 0 l0 -11 l-41 0 ZM56 168 l0 -153 l143 0 l0 153 l-143 0 ZM193 24 l-132 0 l0 33 l44 0 l0 23 l-38 0 l0 33 l38 0 l0 13 l-42 0 l0 32 l128 0 l0 -32 l-47 0 l0 -13 l44 0 l0 -33 l-12 0 q3 -3 10 -10 q3 -3 5 -5 l-8 -8 l10 0 l0 -33 ZM161 57 q-3 3 -7 8 q-4 4 -6 6 l11 9 l-15 0 l0 -23 l17 0 Z" /><glyph glyph-name="" unicode="&#x5bb6;" d="M217 122 l20 -31 q-6 -3 -17 -8 q-12 -6 -18 -9 q11 -39 49 -60 q-14 -14 -26 -31 q-40 27 -55 78 q-1 0 -3 -2 q-3 -1 -4 -2 q4 -16 4 -37 q1 -45 -41 -46 q-5 0 -16 0 q-14 -1 -21 -1 q-3 14 -7 28 q-28 -11 -62 -22 q-7 17 -15 31 q66 14 117 47 q0 3 -2 6 q-39 -22 -98 -40 q-6 15 -15 32 q54 9 98 32 q0 0 -1 2 q-2 2 -3 3 q-31 -13 -75 -23 q-3 8 -11 23 q-3 6 -4 8 q57 6 91 20 l-42 0 l0 28 l137 0 l0 -28 l-36 0 q-6 -3 -18 -9 q-5 -3 -8 -4 q2 -3 6 -9 q6 -7 8 -10 q34 14 68 34 ZM13 129 l0 63 l94 0 q-3 11 -6 19 l48 3 q2 -9 5 -22 l89 0 l0 -63 l-40 0 l0 31 l-151 0 l0 -31 l-39 0 ZM129 26 q-20 -13 -41 -22 q9 0 20 0 q23 -1 21 17 q0 3 0 5 Z" /><glyph glyph-name="" unicode="&#x5c0f;" d="M109 208 l44 0 l0 -187 q3 -43 -43 -43 q-18 -1 -42 -1 q-1 12 -6 31 q-2 7 -3 10 q11 -1 33 -1 q18 0 17 17 l0 174 ZM209 161 q8 -24 27 -76 q10 -29 15 -43 l-43 -14 q-18 62 -40 121 l41 12 ZM42 159 l43 -10 q-18 -61 -40 -123 l-40 15 q22 60 37 118 Z" /><glyph glyph-name="" unicode="&#x5c14;" d="M241 185 l0 -37 q-5 -11 -13 -30 q-4 -10 -6 -16 l-40 14 q7 16 13 31 l-123 0 q-13 -23 -32 -47 q-11 11 -34 26 q31 38 46 86 l46 -4 q-4 -12 -9 -23 l152 0 ZM111 138 l43 0 l0 -124 q4 -39 -39 -39 q-18 -1 -42 -1 q-3 20 -8 40 q13 -1 28 -1 q19 -1 18 17 l0 108 ZM57 109 l39 -17 q-37 -69 -56 -95 l-36 22 q29 39 53 90 ZM196 108 q42 -64 56 -89 l-39 -19 q-17 31 -52 91 l35 17 Z" /><glyph glyph-name="" unicode="&#x5de6;" d="M99 212 l43 -3 q-4 -15 -9 -30 l114 0 l0 -37 l-128 0 q-9 -18 -19 -36 l134 0 l0 -37 l-66 0 l0 -51 l80 0 l0 -35 l-210 0 l0 35 l88 0 l0 51 l-50 0 q-22 -29 -52 -58 q-3 7 -11 24 q-6 12 -8 17 q46 41 70 90 l-59 0 l0 37 l75 0 q0 2 1 5 q5 17 7 28 Z" /><glyph glyph-name="" unicode="&#x5ea6;" d="M228 73 l0 -32 q-16 -16 -34 -28 q17 -5 56 -6 q-9 -16 -16 -34 q-51 6 -84 19 q-33 -13 -84 -22 q-6 14 -15 30 q-1 -3 -4 -10 q-5 -14 -8 -20 q-5 4 -15 12 q-12 10 -18 14 q19 35 18 103 l0 95 l92 0 q-3 9 -5 17 l48 2 q3 -8 6 -19 l83 0 l0 -33 l-35 0 l0 -13 l33 0 l0 -31 l-33 0 l0 -36 l-127 0 l0 36 l-25 0 l0 -22 q0 -58 -10 -93 q33 4 60 10 q-18 13 -31 31 l-16 0 l0 30 l164 0 ZM123 161 l0 -13 l53 0 l0 13 l-53 0 ZM123 106 l53 0 l0 11 l-53 0 l0 -11 ZM181 43 l-59 0 q12 -10 29 -18 q18 9 30 18 ZM61 161 l0 -13 l25 0 l0 13 l-25 0 Z" /><glyph glyph-name="" unicode="&#x5f1f;" d="M48 207 l46 5 q5 -7 12 -20 q4 -7 6 -10 l31 0 q6 10 16 30 l48 -5 q-3 -4 -8 -12 q-6 -9 -9 -13 l45 0 l0 -84 l-88 0 l0 -17 l98 0 q-2 -28 -2 -50 q0 -39 -46 -38 q-9 -1 -33 -1 q0 2 -2 8 q-4 17 -6 26 q5 0 15 0 q12 -1 20 -1 q14 -1 14 12 q0 1 0 3 q1 5 1 7 l-59 0 l0 -75 l-39 0 l0 53 q-24 -25 -81 -50 q-5 11 -21 32 q48 17 76 40 l-66 0 l10 85 l82 0 l0 17 l-92 0 l0 33 l47 0 q-7 13 -15 25 ZM60 81 l48 0 l0 17 l-47 0 l-1 -17 ZM196 149 l-49 0 l0 -17 l49 0 l0 17 Z" /><glyph glyph-name="" unicode="&#x5f97;" d="M83 95 l162 0 l0 -30 l-24 0 l0 -9 l28 0 l0 -31 l-28 0 l0 -12 q2 -38 -35 -39 q-20 -1 -40 -1 q-2 12 -5 25 l-19 -15 q-6 7 -20 21 q-6 6 -9 10 l15 11 l-31 0 l0 31 l106 0 l0 9 l-100 0 l0 30 ZM91 102 l0 100 l146 0 l0 -100 l-146 0 ZM68 -29 l-37 0 l0 78 q-8 -9 -17 -16 q-4 21 -9 40 q33 36 54 71 l29 -23 q-9 -14 -20 -28 l0 -122 ZM57 212 l32 -24 q-30 -37 -67 -72 q-1 3 -4 9 q-5 14 -12 30 q28 26 51 57 ZM129 25 q4 -3 11 -10 q7 -6 10 -10 q9 0 18 0 q17 -2 15 16 l0 4 l-54 0 ZM200 131 l0 9 l-73 0 l0 -9 l73 0 ZM127 173 l0 -9 l73 0 l0 9 l-73 0 Z" /><glyph glyph-name="" unicode="&#x5feb;" d="M131 209 l41 0 q0 -17 -1 -32 l60 0 l0 -82 l16 0 l0 -38 l-67 0 q16 -30 66 -51 q-17 -20 -26 -34 q-49 27 -65 57 q-11 -30 -58 -60 q-3 5 -15 19 q-5 7 -8 10 l0 -25 l-38 0 l0 237 l38 0 l0 -44 q4 -2 12 -6 q7 -4 11 -6 l0 23 l34 0 l0 32 ZM84 57 l0 38 l46 0 q1 20 1 45 l-25 0 l-14 -29 l-18 12 l0 -119 q47 24 53 53 l-43 0 ZM12 164 l24 -2 q-2 -23 -7 -82 l-25 3 q4 39 8 81 ZM171 140 q-1 -24 -1 -45 l23 0 l0 45 l-22 0 Z" /><glyph glyph-name="" unicode="&#x60a8;" d="M104 55 l16 10 q-1 4 -3 12 q-2 7 -3 11 q-7 -10 -16 -21 l-28 24 q18 20 32 39 q-3 2 -9 7 q-14 10 -20 15 q26 27 38 59 l39 -4 q-1 -2 -3 -7 q-3 -7 -5 -10 l99 0 l0 -36 l-12 -25 l-18 5 q11 -12 28 -33 q6 -6 9 -10 l-31 -23 q-5 7 -15 20 q-15 20 -22 29 l0 -23 q1 -33 -30 -35 q-1 0 -3 0 q2 -2 4 -6 q5 -6 12 -15 l-33 -22 q-9 16 -26 39 ZM180 51 l32 18 q12 -17 33 -48 q5 -7 7 -11 l-34 -18 q-3 4 -8 12 q-6 9 -9 13 q-3 -12 -6 -19 q-7 -23 -40 -22 l-56 0 q-37 -1 -36 37 l0 45 l39 0 l0 -32 q0 -17 15 -17 l28 0 q16 -1 18 13 q1 4 2 13 q1 4 1 6 q4 -1 11 -3 q9 -3 14 -5 q-5 9 -11 18 ZM69 63 l-37 0 l0 56 q-7 -7 -15 -15 q-1 2 -2 6 q-5 23 -10 36 q30 28 47 67 l38 -12 q-9 -19 -21 -36 l0 -102 ZM5 -1 q13 31 22 61 l36 -11 q-13 -42 -23 -63 l-35 13 ZM142 148 l38 0 l0 -29 l23 17 l-10 3 l9 17 l-78 0 q-6 -9 -13 -17 l29 -17 q-3 -4 -9 -12 q-10 -13 -15 -20 q9 0 15 0 q12 0 11 11 l0 47 Z" /><glyph glyph-name="" unicode="&#x6211;" d="M13 197 q55 1 102 7 l7 -36 q-3 0 -9 -1 q-14 -1 -23 -1 l0 -23 l38 0 q-3 42 -3 68 l41 0 q0 -9 1 -40 q1 -18 1 -28 l45 0 q-14 15 -42 41 l25 25 q24 -18 45 -39 l-27 -27 l33 0 l0 -37 l-33 0 l26 -20 q-20 -27 -54 -57 q3 -4 6 -9 q6 -8 10 -8 q6 0 8 9 q3 19 5 35 q10 -6 26 -14 q6 -2 9 -4 q-7 -35 -12 -46 q-9 -21 -34 -21 q-34 -1 -51 33 q-18 -11 -39 -22 q-4 6 -12 17 q-8 10 -12 16 l0 -7 q1 -32 -26 -33 q-6 -1 -21 -1 q-14 -1 -21 -1 q-1 5 -3 15 q-1 5 -5 22 q12 -1 23 -1 q13 -1 12 14 l0 16 q-6 -1 -18 -2 q-13 -2 -19 -3 l-6 40 q13 2 40 4 q2 0 3 0 l0 28 l-41 0 l0 37 l41 0 l0 20 q-17 -2 -32 -2 q0 12 -4 36 ZM138 42 q-6 25 -8 64 l-40 0 l0 -24 q6 1 18 2 q12 2 18 2 q0 -7 -1 -21 q0 -12 0 -17 q-6 0 -17 -2 q-12 -1 -18 -2 l0 -29 q30 14 48 27 ZM169 106 q1 -9 3 -24 q1 -8 1 -12 q20 20 31 36 l-35 0 Z" /><glyph glyph-name="" unicode="&#x6218;" d="M13 -20 l0 123 l29 0 l0 106 l40 0 l0 -38 l40 0 l0 -29 l15 3 q0 5 0 10 q-3 34 -3 56 l40 0 q0 -21 2 -56 q0 -2 0 -5 l35 5 q-10 10 -28 27 q2 -3 -5 4 l23 24 q3 -2 9 -7 q18 -14 27 -23 l-25 -25 l30 4 l4 -33 l-32 -5 l31 -21 q-25 -37 -53 -63 q3 -8 7 -14 q5 -9 9 -8 q5 -1 6 9 q1 4 2 17 q1 11 1 15 q6 -3 18 -8 q10 -4 15 -6 q-6 -38 -10 -49 q-5 -21 -29 -21 q-32 -2 -50 40 q-13 -9 -27 -15 q-7 9 -16 21 l0 -37 l-38 0 l0 16 l-29 0 l0 -17 l-38 0 ZM149 51 q-3 13 -7 46 q-1 8 -2 13 l-24 -4 l-4 31 l-30 0 l0 -34 l36 0 l0 -72 q16 8 31 20 ZM51 70 l0 -42 l29 0 l0 42 l-29 0 ZM178 116 q1 -20 4 -35 q20 22 30 40 l-34 -5 Z" /><glyph glyph-name="" unicode="&#x62dc;" d="M248 15 l-48 0 l0 -42 l-39 0 l0 42 l-47 0 l0 34 l47 0 l0 17 l-39 0 l0 34 l39 0 l0 16 l-38 0 l0 34 l38 0 l0 17 l-42 0 l0 34 l124 0 l0 -34 l-43 0 l0 -17 l37 0 l0 -34 l-37 0 l0 -16 l39 0 l0 -34 l-39 0 l0 -17 l48 0 l0 -34 ZM112 36 l-31 0 q-2 -32 -29 -68 q-23 11 -39 16 q25 27 29 52 l-33 0 l0 35 l36 0 l0 6 l0 24 l-31 0 l0 35 l31 0 l0 27 q-14 -1 -29 -1 q-1 4 -2 12 q-2 15 -4 23 q46 1 96 7 l9 -35 q-17 -1 -32 -3 l0 -30 l28 0 l0 -35 l-28 0 l0 -24 l0 -6 l29 0 l0 -35 Z" /><glyph glyph-name="" unicode="&#x6311;" d="M106 181 q4 -11 11 -35 q1 -5 2 -8 l0 71 l36 0 l0 -119 q4 -82 -52 -122 q-11 12 -29 29 q39 25 43 62 q-13 -12 -27 -23 l-17 29 q-1 0 -5 -1 q2 1 -2 -1 l0 -53 q1 -33 -28 -35 q-5 0 -12 -1 q-8 0 -13 -1 q-1 4 -2 12 q-2 16 -4 25 q5 -1 12 -1 q12 0 11 12 l0 33 q-12 -3 -21 -6 l-2 42 q4 1 12 3 q7 1 11 2 l0 35 l-20 0 l0 37 l20 0 l0 43 l36 0 l0 -43 l14 0 q0 1 -1 4 q0 2 -1 3 l28 7 ZM222 182 l28 -15 q-16 -34 -30 -58 l-15 9 l0 -13 q5 -4 15 -11 q10 -7 32 -22 l-19 -30 q-12 10 -28 22 l0 -47 q0 -8 5 -8 q6 -1 7 9 q1 3 1 13 q1 10 1 13 q20 -8 31 -10 q-1 -9 -3 -27 q-1 -3 -1 -4 q-3 -28 -34 -27 l-13 0 q-31 -1 -30 30 l0 203 l36 0 l0 -63 q3 6 9 18 q6 13 8 18 ZM95 110 q-1 4 -4 14 q-6 25 -10 38 l0 -32 l-15 0 l0 -27 q8 2 17 3 l0 -30 q6 5 20 15 q11 9 16 13 l0 14 l-24 -8 Z" /><glyph glyph-name="" unicode="&#x63a7;" d="M139 208 l44 2 q0 -2 1 -5 q2 -7 4 -17 l58 0 l0 -57 l-36 0 q18 -13 37 -25 l-25 -27 l16 0 l0 -35 l-52 0 l0 -32 l61 0 l0 -33 l-167 0 l0 33 l66 0 l0 32 l-50 0 l0 35 l14 0 l-22 29 q0 -22 0 -38 q-2 0 -16 -4 q13 4 -4 -1 l0 -61 q1 -29 -26 -30 q-2 0 -7 -1 q-13 -1 -22 -1 q-1 8 -4 23 q-2 9 -2 13 l16 0 q9 0 8 10 l0 37 q-10 -3 -22 -6 l-3 43 q13 2 25 5 l0 38 l-20 0 l0 36 l20 0 l0 38 l37 0 l0 -38 l19 0 l0 17 l58 0 q-1 5 -4 13 q-2 5 -2 7 ZM169 118 l24 24 q8 -6 15 -10 l0 20 l-86 0 l0 -22 q9 6 18 13 l25 -25 q-20 -15 -54 -39 l107 0 q-28 23 -49 39 ZM88 108 q17 9 33 21 l-34 0 l0 6 l-19 0 l0 -31 q9 3 20 5 l0 -1 Z" /><glyph glyph-name="" unicode="&#x65f6;" d="M15 197 l98 0 l0 -213 l-37 0 l0 15 l-24 0 l0 -19 l-37 0 l0 217 ZM188 210 l41 0 l0 -42 l21 0 l0 -38 l-21 0 l0 -112 q2 -44 -41 -43 q-8 0 -22 -1 q-13 0 -22 0 q-3 21 -8 39 q8 -1 34 -1 q19 -1 18 19 l0 99 l-68 0 l0 38 l68 0 l0 42 ZM146 119 q11 -14 32 -43 q6 -9 9 -13 l-34 -21 q-17 28 -38 58 l31 19 ZM52 80 l0 -48 l24 0 l0 48 l-24 0 ZM52 162 l0 -48 l24 0 l0 48 l-24 0 Z" /><glyph glyph-name="" unicode="&#x660e;" d="M15 199 l95 0 l0 -182 q16 27 15 83 l0 101 l115 0 l0 -186 q2 -38 -35 -39 q-12 -1 -37 -1 q-4 21 -9 38 q12 -1 25 -1 q15 0 14 15 l0 17 l-35 0 q-4 -34 -33 -75 q-15 14 -35 28 l-42 0 l0 -17 l-38 0 l0 219 ZM53 31 l20 0 l0 49 l-20 0 l0 -49 ZM53 163 l0 -48 l20 0 l0 48 l-20 0 ZM167 97 q0 -10 -1 -19 l32 0 l0 27 l-31 0 l0 -8 ZM167 166 l0 -27 l31 0 l0 27 l-31 0 Z" /><glyph glyph-name="" unicode="&#x662f;" d="M8 59 l0 32 l240 0 l0 -32 l-98 0 l0 -11 l79 0 l0 -29 l-79 0 l0 -12 q46 0 100 0 q-6 -16 -9 -31 q-14 0 -45 0 q-37 1 -56 1 q-59 0 -76 22 q-8 -15 -33 -31 q-12 13 -25 28 q38 18 39 61 l37 -5 q-1 -5 -3 -15 q-1 -5 -1 -7 q10 -16 33 -20 l0 49 l-103 0 ZM33 100 l0 102 l190 0 l0 -102 l-190 0 ZM73 128 l110 0 l0 10 l-110 0 l0 -10 ZM73 171 l0 -9 l110 0 l0 9 l-110 0 Z" /><glyph glyph-name="" unicode="&#x665a;" d="M139 211 l40 0 q-2 -3 -4 -8 q-5 -8 -7 -12 l59 0 l0 -27 l-17 -22 l30 0 l0 -89 l-61 0 q0 -1 -1 -4 q-1 -2 -2 -4 l20 0 l0 -31 q0 -7 7 -7 l7 0 q7 0 8 8 q2 16 2 27 q12 -6 30 -12 q-1 -8 -2 -20 q-2 -6 -2 -10 q-5 -25 -34 -24 l-21 0 q-30 -1 -29 28 l0 14 q-12 -19 -54 -49 q-3 5 -13 18 q-7 10 -10 13 l-39 0 l0 -15 l-32 0 l0 211 l80 0 l0 -44 q31 27 45 59 ZM105 135 q-2 2 -5 6 q-4 4 -6 6 l0 -142 q41 24 50 48 l-39 0 l0 82 ZM46 33 l17 0 l0 48 l-17 0 l0 -48 ZM46 162 l0 -47 l17 0 l0 47 l-17 0 ZM183 159 l-35 0 q-8 -9 -14 -17 l36 0 l13 17 ZM208 85 l0 25 l-19 0 q0 -3 -1 -8 q-1 -11 -2 -17 l22 0 ZM137 110 l0 -25 l16 0 q2 9 2 25 l-18 0 Z" /><glyph glyph-name="" unicode="&#x66ff;" d="M247 127 l-44 0 q12 -13 47 -22 q-8 -17 -14 -32 q-8 2 -14 5 l0 -107 l-39 0 l0 9 l-111 0 l0 -9 l-40 0 l0 106 q-6 -3 -13 -6 q-7 16 -16 32 q33 11 44 24 l-38 0 l0 29 l46 0 q0 1 0 4 q1 4 1 6 l-42 0 l0 27 l42 0 l0 17 l35 0 l0 -17 l30 0 l0 -27 l-31 0 q0 -6 0 -10 l34 0 l0 -29 l-32 0 q4 -2 10 -5 q6 -3 21 -12 q25 9 33 17 l-26 0 l0 29 l35 0 q0 4 0 10 l-32 0 l0 27 l32 0 l0 17 l35 0 l0 -17 l41 0 l0 -27 l-41 0 q0 -2 -1 -6 q0 -3 0 -4 l48 0 l0 -29 ZM72 20 l0 -12 l111 0 l0 12 l-111 0 ZM72 57 l0 -12 l111 0 l0 12 l-111 0 ZM205 87 q-15 9 -24 20 q-7 -10 -26 -20 l50 0 ZM71 105 q-6 -9 -22 -18 l46 0 q-12 9 -24 18 ZM134 87 q-6 9 -12 18 l-12 -18 l24 0 Z" /><glyph glyph-name="" unicode="&#x6765;" d="M107 210 l41 0 l0 -25 l86 0 l0 -36 l-32 0 l23 -19 q-3 -3 -8 -8 q-14 -15 -23 -22 l51 0 l0 -37 l-79 0 q30 -27 84 -44 q-3 -4 -8 -12 q-10 -15 -14 -23 q-55 23 -80 49 l0 -61 l-41 0 l0 60 q-22 -25 -80 -50 q-3 5 -11 17 q-7 11 -11 17 q55 19 85 47 l-79 0 l0 37 l47 0 q-5 7 -18 20 q-6 7 -9 10 l24 19 l-34 0 l0 36 l86 0 l0 25 ZM95 117 l-22 -17 l34 0 l0 49 l-44 0 q4 -4 11 -11 q13 -13 21 -21 ZM159 118 q22 20 32 31 l-43 0 l0 -49 l29 0 l-18 18 Z" /><glyph glyph-name="" unicode="&#x6b65;" d="M230 187 l0 -35 l-74 0 l0 -20 l93 0 l0 -36 l-242 0 l0 36 l34 0 l0 61 l39 0 l0 -61 l36 0 l0 79 l40 0 l0 -24 l74 0 ZM200 86 l34 -20 q-54 -81 -214 -95 q-5 18 -14 34 q90 7 132 29 l-25 0 l0 57 l40 0 l0 -50 q27 18 47 45 ZM70 90 l26 -26 q-30 -26 -63 -47 q-6 9 -22 30 q31 18 59 43 Z" /><glyph glyph-name="" unicode="&#x6bd4;" d="M219 176 l31 -29 q-37 -34 -82 -66 l0 -54 q-1 -15 14 -14 l9 0 q13 -1 14 16 q3 17 4 39 q4 -1 13 -4 q21 -6 27 -7 q-1 -13 -5 -35 q-1 -11 -2 -16 q-5 -32 -45 -31 l-31 0 q-42 -2 -40 41 l0 193 l42 0 l0 -79 q24 19 51 46 ZM65 24 q23 9 50 19 q0 -7 1 -22 q0 -15 0 -21 q-31 -8 -53 -17 q-14 -6 -28 -14 l-23 33 q12 10 11 30 l0 176 l42 0 l0 -69 l50 0 l0 -39 l-50 0 l0 -76 Z" /><glyph glyph-name="" unicode="&#x6c34;" d="M217 178 l30 -31 q-30 -24 -61 -49 q21 -30 66 -62 q-7 -14 -21 -40 q-55 42 -79 91 l0 -69 q2 -42 -41 -43 q-9 -1 -41 -1 q-1 5 -3 14 q-3 15 -6 25 q13 -1 31 -1 q18 -1 17 18 l0 180 l43 0 l0 -47 q6 -16 13 -31 q12 10 37 33 q10 8 15 13 ZM102 161 l0 -36 q-13 -76 -81 -134 q-2 4 -7 15 q-7 17 -10 25 q46 40 57 91 l-50 0 l0 39 l91 0 Z" /><glyph glyph-name="" unicode="&#x6cd5;" d="M84 175 l55 0 l0 36 l41 0 l0 -36 l58 0 l0 -36 l-58 0 l0 -31 l68 0 l0 -36 l-78 0 q-21 -30 -40 -55 q9 0 26 1 q19 0 27 1 q-3 6 -10 18 q-5 8 -7 12 l33 17 q10 -15 32 -49 q12 -18 18 -27 l-37 -21 q-4 8 -9 17 q-73 -4 -115 -9 l-15 35 q12 7 22 20 q12 17 26 40 l-46 0 l0 36 l64 0 l0 31 l-55 0 l0 36 ZM34 70 l39 -13 q-3 -12 -10 -35 q-9 -31 -14 -49 l-39 13 q9 24 24 84 ZM31 146 q29 -23 44 -37 l-27 -31 q-6 6 -21 20 q-14 13 -21 19 l25 29 ZM36 209 q4 -3 12 -9 q12 -9 33 -25 l-27 -31 q-21 19 -43 37 l25 28 Z" /><glyph glyph-name="" unicode="&#x70b9;" d="M226 41 l-195 0 l0 101 l71 0 l0 68 l41 0 l0 -15 l102 0 l0 -38 l-102 0 l0 -15 l83 0 l0 -101 ZM184 79 l0 26 l-111 0 l0 -26 l111 0 ZM228 39 q1 -3 4 -9 q13 -30 19 -45 l-40 -12 q-6 21 -22 57 l39 9 ZM28 36 l39 -7 q-5 -15 -13 -39 q-5 -13 -7 -20 q-10 3 -30 8 q-7 2 -10 3 q13 27 21 55 ZM112 32 q2 -10 6 -28 q3 -17 5 -27 l-41 -3 q-2 14 -7 41 q-1 9 -2 14 l39 3 ZM170 34 q8 -25 15 -51 l-40 -7 q-7 29 -14 53 l39 5 Z" /><glyph glyph-name="" unicode="&#x70e4;" d="M243 68 l-87 0 l-1 -11 l75 0 q-2 -23 -5 -48 q-3 -34 -37 -34 q-7 0 -26 0 q-23 -1 -34 -1 q-1 3 -2 9 q-1 6 -5 24 q20 -1 53 -1 q12 1 13 10 q1 5 1 10 l-73 0 l4 28 q-3 -2 -8 -5 q-10 -7 -16 -10 q-7 17 -18 33 q36 18 62 37 l-50 0 l0 21 q-8 -5 -15 -11 q-1 -33 -5 -57 q11 -12 27 -31 q7 -9 11 -13 l-25 -28 q-4 5 -11 16 q-8 11 -12 16 q-7 -20 -30 -53 q-12 23 -21 34 q27 39 30 89 l-23 -4 q-1 8 -3 25 q-5 33 -7 48 l25 5 q1 -7 3 -20 q4 -27 5 -43 q1 6 1 10 q0 55 0 96 l37 0 q0 -7 0 -21 q-1 -17 -1 -26 q3 3 9 9 q4 4 6 6 l17 -31 q-3 -3 -6 -5 l29 0 l0 15 l-28 0 l0 31 l28 0 l0 23 l37 0 l0 -23 l29 0 l0 -24 q5 7 15 20 q6 8 9 12 l30 -19 q-15 -20 -29 -35 l28 0 l0 -32 l-58 0 q-2 -2 -6 -5 q-4 -4 -6 -6 l64 0 l0 -30 ZM176 141 q6 8 14 15 l-23 0 l0 -15 l9 0 Z" /><glyph glyph-name="" unicode="&#x7279;" d="M47 210 l37 0 l0 -50 l14 0 l0 -36 l-14 0 l0 -38 q6 2 14 3 q0 -29 1 -39 q-4 -1 -10 -2 q-3 -1 -5 -1 l0 -76 l-37 0 l0 69 q-10 -2 -30 -6 q-5 -1 -7 -2 l-3 42 q19 3 40 6 l0 44 l-11 0 q-1 -5 -2 -14 q-2 -10 -3 -15 q-5 1 -16 5 q-7 2 -9 2 q8 39 10 88 l24 -2 q-1 -15 -3 -28 l10 0 l0 50 ZM107 35 l20 16 l-22 0 l0 35 l81 0 l0 12 l39 0 l0 -12 l21 0 l0 -35 l-21 0 l0 -39 q1 -38 -32 -38 q-16 -1 -41 -1 q-3 16 -7 33 l-8 -6 q-6 7 -4 4 q-16 20 -26 31 ZM102 135 l52 0 l0 16 l-43 0 l0 34 l43 0 l0 25 l39 0 l0 -25 l44 0 l0 -34 l-44 0 l0 -16 l55 0 l0 -34 l-146 0 l0 34 ZM165 22 l-17 -14 q13 0 24 0 q15 0 14 14 l0 29 l-49 0 q15 -14 28 -29 Z" /><glyph glyph-name="" unicode="&#x73a9;" d="M10 160 l0 37 l84 0 l0 -37 l-21 0 l0 -44 l19 0 l0 -36 l-19 0 l0 -46 q11 2 21 3 q0 -18 1 -27 q24 19 24 56 q0 3 0 11 q1 10 1 15 l-21 0 l0 37 l147 0 l0 -37 l-35 0 l0 -74 q0 -8 4 -8 q5 0 6 8 q1 7 3 35 q3 -1 9 -3 q6 -3 19 -8 q-2 -27 -5 -42 q-4 -23 -31 -23 l-14 0 q-30 0 -30 29 l0 86 l-14 0 q0 -7 -1 -18 q0 -6 0 -8 q2 -62 -46 -96 q-19 19 -29 28 q-24 -4 -69 -13 l-8 39 q15 1 29 4 l0 52 l-22 0 l0 36 l22 0 l0 44 l-24 0 ZM110 198 l124 0 l0 -36 l-124 0 l0 36 Z" /><glyph glyph-name="" unicode="&#x7518;" d="M39 210 l43 0 l0 -33 l92 0 l0 33 l43 0 l0 -33 l31 0 l0 -38 l-31 0 l0 -167 l-43 0 l0 12 l-92 0 l0 -12 l-43 0 l0 167 l-31 0 l0 38 l31 0 l0 33 ZM82 139 l0 -41 l92 0 l0 41 l-92 0 ZM82 61 l0 -41 l92 0 l0 41 l-92 0 Z" /><glyph glyph-name="" unicode="&#x754c;" d="M26 201 l204 0 l0 -118 l-60 0 q32 -19 80 -27 q-1 -4 -4 -11 q-4 -8 -10 -26 q-27 7 -46 16 l0 -61 l-39 0 l0 71 l17 0 q-21 11 -40 27 q-17 -15 -38 -27 l14 0 q0 -9 0 -19 q-1 -36 -36 -58 q-6 3 -18 10 q-12 6 -18 9 q33 16 32 40 q0 3 0 6 q-10 -5 -38 -15 q-4 -1 -6 -2 q-8 22 -15 36 q53 13 82 31 l-61 0 l0 118 ZM191 170 l-44 0 l0 -14 l44 0 l0 14 ZM191 114 l0 15 l-44 0 l0 -15 l44 0 ZM66 129 l0 -15 l43 0 l0 15 l-43 0 ZM66 170 l0 -14 l43 0 l0 14 l-43 0 Z" /><glyph glyph-name="" unicode="&#x7684;" d="M241 25 q0 -48 -44 -49 q-18 -1 -46 -1 q-1 4 -2 12 q-2 12 -6 27 q12 -1 36 -1 q22 -2 22 21 q0 10 0 42 q1 42 1 59 l-35 0 q-6 -16 -14 -31 q-15 8 -31 17 l0 -145 l-39 0 l0 14 l-29 0 l0 -15 l-39 0 l0 198 l28 0 q5 20 7 37 l44 -5 q-1 -3 -2 -8 q-2 -11 -6 -24 l36 0 l0 -42 q20 43 30 80 l40 -9 q-1 -5 -4 -14 q-3 -10 -5 -15 l61 0 q-2 -110 -3 -148 ZM162 108 q9 -11 26 -34 q7 -10 11 -15 l-34 -22 q-21 32 -35 51 l32 20 ZM54 135 l0 -35 l29 0 l0 35 l-29 0 ZM54 62 l0 -35 l29 0 l0 35 l-29 0 Z" /><glyph glyph-name="" unicode="&#x811a;" d="M154 68 q3 -11 11 -32 q3 -9 5 -13 l0 173 l72 0 l0 -167 q2 -30 -23 -29 q-2 0 -6 0 q-6 0 -9 0 q0 1 -1 4 q-1 3 -3 15 l0 -48 l-30 0 l0 21 l-17 -7 q-2 3 -4 11 q0 1 0 2 q-9 -1 -25 -2 q-9 -2 -13 -2 q-10 -1 -17 -4 l-7 18 l0 -8 q0 -21 -21 -24 q-11 -1 -22 -1 q-4 17 -5 26 q-5 -14 -11 -31 q-3 3 -8 9 q-10 13 -16 18 q9 19 11 43 q3 24 3 79 l0 83 l69 0 l0 -174 q3 6 6 13 q7 16 14 40 l-17 0 l0 33 l22 0 l0 30 l-19 0 l0 33 l19 0 l0 33 l32 0 l0 -33 l19 0 l0 -33 l-19 0 l0 -30 l22 0 l0 -33 l-25 0 q-4 -10 -7 -19 l20 6 ZM200 162 l0 -129 q1 -1 2 0 q2 0 3 0 q8 -1 7 6 l0 123 l-12 0 ZM51 5 q10 -1 9 10 l0 29 l-15 0 q-2 -21 -5 -38 q5 -1 11 -1 ZM47 98 q0 -12 0 -22 l13 0 l0 31 l-13 0 l0 -9 ZM60 169 l-13 0 l0 -31 l13 0 l0 31 ZM139 27 q-1 3 -3 10 q-4 11 -6 16 q-1 -3 -3 -9 q-3 -6 -8 -19 q9 0 20 2 Z" /><glyph glyph-name="" unicode="&#x8282;" d="M229 47 q2 -47 -48 -47 q-15 -1 -47 -1 q0 1 -1 5 q-1 12 -7 36 q12 -1 37 -1 q25 -2 24 22 q0 14 0 23 l-72 0 l0 -113 l-43 0 l0 113 l-52 0 l0 38 l212 0 q0 -11 -1 -37 q-1 -26 -2 -38 ZM149 209 l43 0 l0 -21 l55 0 l0 -38 l-55 0 l0 -18 l-43 0 l0 18 l-43 0 l0 -18 l-43 0 l0 18 l-55 0 l0 38 l55 0 l0 21 l43 0 l0 -21 l43 0 l0 21 Z" /><glyph glyph-name="" unicode="&#x8be5;" d="M134 208 l48 2 q0 -2 1 -5 q2 -8 4 -20 l61 0 l0 -35 l-84 0 q-1 -2 -4 -5 q-15 -18 -24 -27 q4 0 13 0 q12 1 18 1 q11 13 20 28 l34 -16 q-47 -76 -123 -108 q-11 18 -21 34 q32 13 55 29 q-9 0 -16 -1 q-12 0 -24 -3 l-13 31 q13 5 21 15 q6 6 16 19 q-1 -1 2 3 l-38 0 l0 35 l61 0 q-1 2 -2 5 q-3 9 -5 18 ZM213 99 l34 -19 q-21 -28 -43 -50 q8 -5 23 -14 q14 -10 22 -15 l-26 -28 q-2 1 -6 4 q-16 13 -42 29 q-31 -19 -76 -38 q-8 12 -24 32 q93 32 138 99 ZM78 52 q3 -20 8 -37 q-24 -20 -32 -28 q-3 -3 -8 -9 q-4 -4 -6 -6 l-24 28 q10 9 9 27 l0 67 l-19 0 l0 38 l57 0 l0 -95 q7 7 15 15 ZM41 211 q10 -12 26 -35 q6 -8 9 -12 l-36 -22 q-13 22 -33 49 l34 20 Z" /><glyph glyph-name="" unicode="&#x8bf4;" d="M131 212 q6 -9 16 -25 q5 -8 7 -12 l-20 -8 l34 0 q11 21 21 45 l42 -13 q-12 -17 -22 -32 l25 0 l0 -105 l-32 0 l0 -43 q0 -7 6 -7 l3 0 q6 -1 7 10 q2 13 2 29 q5 -2 16 -6 q10 -4 15 -6 q0 -3 -1 -9 q-2 -20 -4 -30 q-5 -24 -35 -24 l-13 0 q-36 -1 -34 31 l0 55 l-15 0 q0 -4 0 -9 q3 -49 -52 -85 q-16 18 -28 30 q43 26 41 54 q0 4 1 10 l-25 0 l0 105 l26 0 q-12 19 -20 33 l39 12 ZM82 68 q2 -5 4 -15 q2 -5 7 -23 q-17 -16 -35 -33 q-10 -10 -17 -19 l-23 29 q10 13 10 28 l0 61 l-22 0 l0 38 l60 0 l0 -83 q2 3 7 8 q6 6 9 9 ZM125 97 l70 0 l0 35 l-70 0 l0 -35 ZM48 212 q16 -20 33 -46 l-36 -22 q-14 25 -30 49 l33 19 Z" /><glyph glyph-name="" unicode="&#x8d77;" d="M18 87 l34 -3 q1 -27 -2 -46 q6 -10 16 -17 l0 75 l-58 0 l0 33 l44 0 l0 22 l-37 0 l0 33 l37 0 l0 27 l38 0 l0 -27 l33 0 l0 -33 l-33 0 l0 -22 l40 0 l0 -33 l-28 0 l0 -26 l26 0 l0 -33 l-26 0 l0 -28 q3 0 9 0 q6 -1 10 -1 q42 -1 129 1 q-5 -16 -10 -34 q-72 0 -119 1 q-61 -1 -77 24 q-4 -14 -12 -31 q-8 9 -25 25 q13 -12 -2 1 q14 27 13 92 ZM214 92 q22 -7 35 -10 q-3 -19 -6 -34 q-5 -33 -40 -31 l-28 0 q-39 -1 -38 39 l0 79 l61 0 l0 27 l-64 0 l0 37 l101 0 l0 -100 l-61 0 l0 -33 q-1 -14 13 -13 l10 0 q12 -1 13 11 q3 13 4 28 Z" /><glyph glyph-name="" unicode="&#x8d8a;" d="M16 87 l32 -3 q0 -22 -1 -39 q5 -12 11 -18 l0 69 l-50 0 l0 33 l40 0 l0 22 l-32 0 l0 33 l32 0 l0 27 l36 0 l0 -27 l27 0 l0 -33 l-27 0 l0 -22 l30 0 l0 -33 l-22 0 l0 -26 l21 0 l0 -33 l-21 0 l0 -27 q6 -1 19 -2 q7 -1 10 -1 q11 0 23 0 q-9 9 -18 17 q32 24 51 47 q-6 30 -9 69 l-15 0 l0 -41 q2 1 8 6 q3 3 5 4 q1 -14 3 -33 q-26 -22 -38 -34 l-17 26 q7 6 7 20 l0 86 l46 0 q-1 16 -1 37 l33 0 q0 -21 0 -37 l21 0 q-6 11 -19 26 l21 12 q5 -5 14 -17 q6 -7 9 -11 l-17 -10 l19 0 l0 -34 l-47 0 q1 -14 3 -33 q1 1 2 3 q9 15 13 24 l28 -13 q-20 -37 -33 -54 q1 -2 3 -5 q1 -4 2 -6 q2 -6 4 -6 q2 0 4 6 q2 11 3 30 q11 -7 22 -12 q-4 -32 -7 -42 q-7 -17 -21 -18 q-20 1 -34 24 q-2 -2 -6 -6 q-16 -17 -27 -25 q41 0 94 1 q-1 -5 -5 -16 q-3 -12 -5 -17 q-72 0 -119 1 q-63 -2 -80 26 q-3 -17 -11 -33 q-4 5 -15 17 q-8 7 -10 10 q12 25 11 91 Z" /><glyph glyph-name="" unicode="&#x8dd1;" d="M128 210 l39 -2 q-1 -3 -3 -8 q-1 -2 -5 -11 l79 0 q0 -21 -1 -61 q0 -44 -1 -61 q0 -18 -9 -28 q11 -4 23 -7 q-3 -18 -6 -30 q-6 -26 -43 -25 l-55 0 q-37 -1 -36 36 l0 100 l-9 11 l0 -16 l-19 0 l0 -24 l21 0 l0 -33 l-21 0 l0 -26 q4 1 11 2 q8 1 11 1 q0 -23 0 -36 q-13 -2 -36 -6 q-38 -6 -56 -10 l-6 39 q1 0 3 0 q3 1 5 1 l0 82 l27 0 l0 -79 q5 1 9 1 l0 88 l-34 0 l0 95 l85 0 l0 -48 q17 21 27 55 ZM176 28 q0 2 -2 7 q-1 7 -2 10 l-30 0 l0 -25 q-1 -14 14 -13 l41 0 q14 -1 16 12 q1 2 1 6 q1 4 1 6 q-6 -2 -15 -2 q-9 -1 -24 -1 ZM191 138 l0 -75 q11 -1 12 12 q0 9 1 41 q0 31 0 39 l-61 0 q-4 -9 -10 -17 l58 0 ZM49 142 l20 0 l0 28 l-20 0 l0 -28 ZM142 106 l0 -29 l17 0 l0 29 l-17 0 Z" /><glyph glyph-name="" unicode="&#x8fc7;" d="M118 13 q53 -1 132 0 q-7 -19 -11 -37 q-52 0 -122 2 q-6 0 -9 0 q-39 1 -56 25 q-22 -21 -32 -33 l-14 46 q5 4 14 11 q9 8 13 11 l0 54 l-26 0 l0 39 l66 0 l0 -94 q15 -24 45 -24 ZM176 76 l0 62 l-88 0 l0 36 l88 0 l0 37 l41 0 l0 -37 l29 0 l0 -36 l-29 0 l0 -70 q2 -46 -41 -47 q-15 -1 -46 -1 q-2 12 -7 34 q-1 3 -1 5 q11 -1 36 -1 q20 -1 18 18 ZM52 211 q18 -26 33 -50 l-36 -19 q-3 5 -8 14 q-7 12 -23 38 l34 17 ZM118 135 q23 -27 38 -45 l-33 -23 q-5 6 -14 19 q-13 18 -21 28 l30 21 Z" /><glyph glyph-name="" unicode="&#x8fd0;" d="M203 102 q23 -32 44 -67 l-34 -19 l-9 15 q-29 -1 -74 -3 q-12 0 -30 -3 q-3 -1 -4 -1 l-15 34 q14 8 23 19 q1 1 2 3 q8 9 17 24 l-43 0 l0 36 l166 0 l0 -36 l-77 0 q-18 -25 -31 -40 q8 1 24 1 q15 1 23 1 q-2 4 -7 12 q-4 6 -6 9 l31 15 ZM118 12 q86 0 133 1 q-6 -15 -12 -37 q-55 0 -78 0 q-28 1 -53 2 q-39 1 -56 25 q-22 -21 -31 -33 l-15 46 q12 10 24 19 l0 57 l-23 0 l0 39 l63 0 l0 -94 q14 -24 48 -25 ZM93 199 l140 0 l0 -36 l-140 0 l0 36 ZM46 212 q8 -11 22 -32 q8 -12 12 -18 l-36 -20 q-3 5 -8 14 q-7 12 -23 38 l33 18 Z" /><glyph glyph-name="" unicode="&#x901a;" d="M114 9 q35 -1 137 1 q-1 -2 -2 -5 q-6 -17 -10 -30 q-51 0 -125 2 q4 0 -8 0 q-39 1 -56 24 q-16 -15 -29 -30 l-15 42 q14 12 21 19 l0 60 l-20 0 l0 39 l59 0 l0 -99 q6 -8 13 -14 l0 130 l43 0 l-27 15 l12 10 l-29 0 l0 29 l160 0 l0 -30 l-42 -24 l45 0 l0 -99 q2 -33 -28 -34 q-2 0 -9 0 q-11 -1 -19 -1 q-3 14 -7 26 q10 0 18 0 q8 -1 9 8 l-28 0 l0 -30 l-36 0 l0 30 l-26 0 l0 -32 l-33 0 q13 -7 32 -7 ZM43 212 q18 -25 32 -51 l-36 -19 q-14 26 -29 52 l33 18 ZM183 173 l-49 0 l25 -14 l24 14 ZM177 85 l0 -12 l28 0 l0 12 l-28 0 ZM205 121 l-28 0 l0 -11 l28 0 l0 11 ZM115 85 l0 -12 l26 0 l0 12 l-26 0 ZM115 121 l0 -11 l26 0 l0 11 l-26 0 Z" /><glyph glyph-name="" unicode="&#x901f;" d="M245 161 l-66 0 l0 -13 l58 0 l0 -77 l-58 0 l0 -24 l14 20 q17 -6 45 -18 q7 -3 11 -5 l-20 -32 q-26 15 -50 26 l0 -24 l-38 0 l0 29 q-21 -17 -48 -31 q9 -3 21 -3 q35 -1 137 1 q-1 -2 -2 -5 q-6 -17 -10 -30 q-51 0 -125 2 q4 0 -8 0 q-39 1 -56 24 q-16 -15 -29 -30 l-15 42 q14 12 21 19 l0 60 l-20 0 l0 39 l59 0 l0 -99 q9 -15 24 -19 q-5 8 -19 32 q36 12 54 26 l-42 0 l0 77 l58 0 l0 13 l-64 0 l0 31 l64 0 l0 20 l38 0 l0 -20 l66 0 l0 -31 ZM43 212 q18 -25 32 -51 l-36 -19 q-14 26 -29 52 l33 18 ZM201 119 l-22 0 l0 -18 l22 0 l0 18 ZM119 119 l0 -18 l22 0 l0 18 l-22 0 Z" /><glyph glyph-name="" unicode="&#x90fd;" d="M130 193 l19 -10 l0 16 l96 0 l0 -36 l-19 -62 q25 -24 24 -55 q1 -45 -38 -46 q-11 0 -20 0 l-7 29 l0 -58 l-36 0 l0 193 q-1 -2 -4 -5 q-6 -8 -16 -20 l14 0 l0 -31 l-41 0 q-6 -6 -13 -12 l47 0 l0 -123 l-35 0 l0 10 l-42 0 l0 -10 l-36 0 l0 74 q-2 -1 -6 -3 q-4 -3 -6 -4 q-3 20 -7 37 q28 13 50 31 l-46 0 l0 31 l38 0 l0 16 l-31 0 l0 30 l31 0 l0 25 l36 0 l0 -25 l29 0 l0 -19 q9 14 19 27 ZM185 163 l0 -127 l15 0 q13 -1 12 15 q0 22 -21 48 l15 64 l-21 0 ZM59 25 l0 -13 l42 0 l0 13 l-42 0 ZM59 65 l0 -12 l42 0 l0 12 l-42 0 ZM88 139 q4 4 12 13 q-5 -6 2 3 l-20 0 l0 -16 l6 0 Z" /><glyph glyph-name="" unicode="&#x98ce;" d="M215 23 q1 -6 3 -6 q2 0 3 6 q1 7 2 27 q1 7 1 10 q3 -1 10 -4 q11 -4 16 -5 q-2 -26 -6 -47 q-6 -28 -30 -28 q-30 0 -36 35 q-1 4 -1 7 l-28 -18 q-7 9 -20 30 q-5 8 -8 12 q-25 -32 -42 -46 q-1 1 -2 3 q-9 8 -20 22 q-9 -25 -24 -53 q-3 4 -7 10 q-13 19 -20 26 q12 24 15 43 q4 18 4 54 l0 99 l189 0 l0 -103 q0 -25 1 -56 q0 -13 0 -18 ZM89 151 q18 -22 32 -41 q3 5 9 16 q10 18 15 28 l29 -14 l0 23 l-109 0 l0 -28 l24 16 ZM59 33 q18 17 39 43 q-5 6 -15 20 q-12 16 -18 24 l0 -23 q0 -41 -6 -64 ZM174 127 q-14 -28 -29 -50 q15 -22 31 -44 q-2 30 -2 64 l0 30 Z" /><glyph glyph-name="" unicode="&#x98de;" d="M206 188 l32 -29 q-28 -22 -53 -40 q4 -2 13 -7 q26 -14 40 -23 l-20 -33 q18 -9 33 -15 q-9 -34 -16 -45 q-10 -22 -40 -22 q-57 -1 -75 71 q-9 31 -9 111 l-104 0 l0 40 l148 0 q-1 -34 -1 -56 q25 21 52 48 ZM206 29 q0 3 2 10 q3 9 4 14 q-26 19 -56 37 q1 -5 2 -14 q2 -12 3 -18 q9 -39 34 -41 q6 0 11 12 Z" /><glyph glyph-name="" unicode="&#x98df;" d="M233 32 q-2 -2 -7 -5 q-9 -5 -22 -13 q10 -4 31 -11 q6 -2 9 -3 l-17 -30 q-45 18 -99 35 q0 -3 1 -8 q0 -6 0 -9 q-6 -1 -17 -3 q-31 -6 -47 -10 q-15 -4 -24 -9 l-17 29 q11 7 10 22 l0 103 q-2 -1 -7 -3 q-5 -3 -8 -4 q-3 8 -11 24 q-3 7 -5 11 q83 26 109 64 l47 -2 q-3 -4 -6 -9 q36 -36 99 -50 q-2 -4 -5 -12 q-7 -15 -10 -24 q-4 1 -11 4 q-6 2 -8 3 l0 -76 l15 -14 ZM72 67 l109 0 l0 10 l-109 0 l0 -10 ZM72 112 l0 -10 l109 0 l0 10 l-109 0 ZM72 9 q13 3 28 6 q-4 1 -10 4 l13 20 l-31 0 l0 -30 ZM130 176 q-10 -9 -21 -17 l37 2 q0 -3 2 -9 q2 -8 3 -12 l28 0 q-25 14 -49 36 ZM124 39 q6 -2 18 -5 q15 -5 22 -7 q10 6 19 12 l-59 0 ZM108 158 q-14 -9 -31 -18 l36 0 q-4 14 -5 18 Z" /><glyph glyph-name="" unicode="&#xff01;" d="M79 201 l-8 -153 l-39 0 l-7 153 l54 0 ZM77 -19 l-50 0 l0 46 l50 0 l0 -46 Z" /><glyph glyph-name="" unicode="&#xff0c;" d="M28 -34 l-11 16 q26 14 27 34 l-24 0 l0 44 l45 0 q0 -12 0 -39 q2 -34 -37 -55 Z" /></font>
</defs>
</svg>
